<svg id="Ebene_1" data-name="Ebene 1" xmlns="http://www.w3.org/2000/svg" viewBox="0 0 3223 3318"><defs><style>.cls-1{fill:#eb5453;}</style></defs><title>aline_05</title><path class="cls-1" d="M1673.29,404.21c27.6,48.94,35.46,111.26,83.75,146.26a87.42,87.42,0,0,0,36.13,15.45c15.42,2.68,31,1.64,46.47.22,15-1.37,30-2.94,45.08-1.54a136,136,0,0,1,35.45,8.46,147.11,147.11,0,0,1,59.71,42.62,136.55,136.55,0,0,1,19.85,31.51c5.51,12.12,8.37,25.2,12.77,37.72s10.36,24.64,20.5,33.38a69,69,0,0,0,34.47,15.48c29.52,4.63,57.43-6.79,83.4-19.65,26.19-13,57-30.65,86-15.06,24.1,13,40.22,39.36,51.78,63.26,12.41,25.64,20.35,53.2,27.84,80.6,7.83,28.64,15.57,57.24,25.44,85.26a817.31,817.31,0,0,0,80.25,165.67c13.07,20.64,29.85,50.29,59.13,40.45,12-4,21.78-13,28.51-23.55,7.64-12,10.17-26.19,12-40,2-14.63,2.58-30.49,8.77-44.12,4.94-10.91,13.91-22,25.76-25.6,25.53-7.82,35.62,23.31,40.19,42,6.9,28.09,15,55.47,26.25,82.17a464.86,464.86,0,0,0,41.92,77.7c7.92,11.83,16.42,23.25,25.35,34.32,4.85,6,13.3-2.53,8.49-8.48a455.52,455.52,0,0,1-81.65-155.11c-3.93-13.14-6.71-26.55-10.33-39.76-3-10.86-6.88-21.84-13.85-30.8s-16.95-14.78-28.32-15.12c-12.55-.38-24.29,6.55-32.6,15.5-20.67,22.28-18.11,52.39-24.23,80.13-2.87,13-8.42,25-19.09,33.39-9.72,7.69-22.46,10.2-32.77,2.1-5.23-4.1-9.12-9.73-12.79-15.19q-6.33-9.45-12.35-19.1-12.15-19.37-23.18-39.41a798.34,798.34,0,0,1-40-83.53,817.93,817.93,0,0,1-29.77-86.8c-7.68-27.23-14.33-54.79-23.56-81.56-9.15-26.54-20.9-52.37-38.13-74.69-17-22.05-40.43-40.36-69.82-37.59-31.29,3-57.38,22.88-86.08,33.74-24.5,9.27-55.42,13.49-77.49-4.11-10.62-8.48-16-21.08-20.09-33.68-4.14-12.8-7.55-25.73-13.34-37.93-10.54-22.23-27-41.32-46.54-56.09a153.35,153.35,0,0,0-67.57-29.13c-29.62-4.71-58.69,3.13-88.3,1.53-28.13-1.52-50.83-17.09-67.21-39.33-17.26-23.43-26.66-51.07-37.33-77.83-5.47-13.71-11.31-27.27-18.56-40.13-3.8-6.73-14.17-.69-10.37,6Z"/><path class="cls-1" d="M2285,2454.83a476.46,476.46,0,0,1-57.22-122.31c-5.53-18.27-12-37.81-11.58-57.11.25-12.06,3.37-30.24,17.77-32.78,10.71-1.9,22.34,5.75,31.66,10l34.45,15.85,34.45,15.84c10.19,4.69,20.54,9.88,31.69,11.81,17.44,3,40-3.74,44.2-23.32,2.4-11.11-2.49-21.68-7.43-31.34-5.67-11.08-11.41-22.12-17.11-33.18-11-21.38-22.93-42.53-32.72-64.51-8.36-18.78-14-39.77-8.26-60.12,5.39-19,20.16-31.69,40.07-32.91,21.18-1.3,42.62,6.41,62.17,13.72a360.61,360.61,0,0,1,61.1,29.78c18.55,11.29,36.57,24,51.59,39.81,15.64,16.43,25.74,36.39,35.28,56.76,8.7,18.59,17.81,36.83,28.71,54.25,41.35,66,101.32,120.5,171.25,154.91,8.78,4.32,17.73,8.28,26.78,12,7.13,2.93,10.24-8.67,3.19-11.57-74-30.4-138.58-83.47-183.29-149.76a414.18,414.18,0,0,1-30.21-53c-9.82-20.56-18.74-41.72-32.76-59.89-13.63-17.65-31.09-31.79-49.47-44.25a367.45,367.45,0,0,0-61-33.38c-20.37-8.76-42-17.08-64-20.32-19.84-2.91-41.13-.58-56,14.22-13.33,13.28-18.8,33.23-17.72,51.67,1.33,22.71,11.43,43.6,21.65,63.51q17.41,33.93,35,67.81c4.88,9.46,14,22,11.46,33.23-1.95,8.56-11.23,13.61-19.37,14.59-11,1.34-22.08-3.34-31.87-7.76-12-5.42-23.91-11-35.86-16.49l-34.45-15.85c-10.58-4.87-21.68-11.57-33.24-13.71-17.15-3.18-30.48,6.68-36.12,22.46S2204,2287,2207.6,2303A485.3,485.3,0,0,0,2257.15,2432q8.25,14.76,17.53,28.91c4.2,6.44,14.6.43,10.36-6.06Z"/><path class="cls-1" d="M1896.82,2465.28a145.3,145.3,0,0,0,1-116.62c-14.58-33.64-43-60.41-76.69-74.38a136.94,136.94,0,0,0-26-7.88c-9.16-1.8-19.74-2.81-26.82-9.56s-10.19-16.94-13.82-25.65q-6.77-16.24-13.52-32.5c-8.06-19.38-15.14-39.63-25-58.2-7.88-14.9-19.88-29.3-37.33-32.45-22.21-4-42.82,9-56.43,25.49a191.85,191.85,0,0,0-19.47,28.7c-5,8.95-8.58,20.2-2.22,29.41,4.35,6.32,14.76.32,10.36-6.06-5-7.24,1.65-16.58,5.57-22.85,5-8.06,10.16-16.17,16.46-23.33,11.46-13,29.17-24.38,47.15-18.65,14.93,4.75,23.3,20.34,29.39,33.63,8.37,18.25,15.59,37.09,23.3,55.62q6.2,14.89,12.39,29.79c3.33,8,6.54,16,12.1,22.74,11.53,13.94,30.45,13.62,46.49,18.3a132.64,132.64,0,0,1,76.55,59.69c20.82,35.59,23,81.12,6.15,118.7-3.13,7,7.21,13.1,10.36,6.06Z"/><path class="cls-1" d="M1743.71,997.65c-16-9.25-20.91-31-25.69-47.4a556.43,556.43,0,0,1-13.35-59.13c-7.08-40.27-11.3-81-18.87-121.19-7.37-39.12-18.21-78-37.58-113-8.07-14.58-21.67-31.37-40.51-26.94-9.14,2.15-16.34,9.1-22.08,16.17A181.41,181.41,0,0,0,1569.25,670c-19.11,33.36-27.83,71.34-35.29,108.68-3.8,19-7.3,38-11.67,56.92-4.13,17.77-7.82,39.94-23,52-12.82,10.21-31.13,10.6-46,5.38-17-6-29.24-20.49-36.83-36.38-19-39.78-9.5-86.22-11.09-128.61a422.83,422.83,0,0,0-76.89-227.09q-8.73-12.3-18.31-24c-4.89-6-13.34,2.55-8.49,8.48a410.48,410.48,0,0,1,90.51,223.25c1.87,21.95,1.35,43.81.76,65.81-.6,22.17-.56,44.75,5.14,66.34,9.13,34.54,34.39,66.56,72.68,67.44,17.25.4,34.09-6.38,44.69-20.26,11.92-15.62,15.65-36.71,19.82-55.47,8.34-37.6,13.65-76,25.49-112.77,5.84-18.11,13.39-35.67,23.7-51.71,8.46-13.15,23.9-36.77,41.1-21.72,6.91,6,11.28,14.45,15.44,22.47a270.47,270.47,0,0,1,12.32,27.35,397,397,0,0,1,16.88,57.26c8.84,39.86,13.28,80.51,19.57,120.8,3.17,20.31,6.8,40.56,11.68,60.52,4.47,18.27,9.13,38.05,18.44,54.56,4.31,7.64,10.12,14.26,17.75,18.68,6.7,3.87,12.75-6.49,6.06-10.36Z"/><path class="cls-1" d="M2819,1720.45a809.08,809.08,0,0,1-237.77-216.92c-16.36-22.45-30.55-46.23-46.11-69.21-14.7-21.7-32-40.88-54.66-54.46-43.09-25.85-95.4-30.69-144.55-32.1-32-.92-65.23-2.67-96.62,4.78-28.19,6.69-61.59,23.91-90.09,9.9-6.91-3.39-13,7-6.06,10.36,25.7,12.63,53.47,4.43,79.34-3.19,14.06-4.14,28.07-7.84,42.71-9.21,15.81-1.48,31.73-1.25,47.59-1.07,48.79.53,100.8,1.79,145.92,22.61a151.66,151.66,0,0,1,59,48.44c16.25,22,29.67,46,45.43,68.41a820.06,820.06,0,0,0,249.8,232c6.64,4,12.69-6.39,6.06-10.36Z"/><path class="cls-1" d="M1218.35,2332c-10-29.75,2.79-64.83,30.39-80.25,15.73-8.79,34-11.46,51.28-15.84,17-4.31,33.32-10.59,46.36-22.61,26.32-24.28,34.43-62.17,36.59-96.45,2.74-43.3-4-86.5-2.46-129.81,1.24-34.15,8-69.7,27.7-98.32,20.77-30.23,55-43,86.34-59.2,15.65-8.11,30.61-17.58,43.18-30.06a166.18,166.18,0,0,0,30.55-42.67c17.07-33.52,24.45-70.48,29.41-107.47,5.47-40.9,7.52-83.78,21.4-123,5.54-15.65,14.87-31.66,31.07-38,14.23-5.57,30.62-3.09,44.07,3.51,33.41,16.39,45.1,54.06,51.11,88.17,7.53,42.67,11.09,86.29,12.4,129.57a1014.89,1014.89,0,0,1-4.45,130.47q-1.63,16.5-3.8,32.93c-1.34,10.25-2.7,20.52-1.21,30.85,2.34,16.24,14.08,32.87,31.85,33.5,15.49.54,26.25-12.44,32.12-25.3,8.11-17.81,12.33-37.68,17.87-56.39,5.31-17.92,9.71-36.5,17-53.76,5.48-13,13.62-27.44,27.28-33.21,15.37-6.5,30.93.8,42.09,11.66,13,12.64,21.26,29.26,27.76,46a236.31,236.31,0,0,1,14.78,59.15c2.46,22,1.58,44.06,1,66.09-1,37.39-.35,76.22,17.59,110.09a98.15,98.15,0,0,0,33.38,36.94c15,9.61,32.46,14.53,50,16.94s35.27,2.53,53,2.37c7.72-.07,7.74-12.07,0-12-34.88.32-75.34.7-103.85-22.69-27.34-22.43-36.42-59.56-38-93.39-1.08-22.57.48-45.15.62-67.72.14-21.3-1.43-42.49-6-63.33a242.6,242.6,0,0,0-20.51-57.53c-7.62-15-18.37-29.32-32.58-38.6-13.58-8.85-30.27-11.14-45.2-4.31-13.73,6.27-23.06,19.34-29.38,32.59-7.91,16.58-12.4,34.59-17.59,52.13-5.83,19.7-10.57,40.19-18,59.36-4.61,12-15.55,29.42-30.62,20.63-17.78-10.36-13.19-35.2-11-52a1015.94,1015.94,0,0,0-.38-264.43c-4.9-36.91-10.52-77.43-36.24-106.36-20.67-23.24-58.56-36.23-87-19.34-15.13,9-24.21,24.66-30.12,40.76-7,19-10.55,39.39-13.58,59.35-11.09,73-10.61,161.33-70.31,214.73-27.11,24.25-63.53,33.68-93.18,54.06s-47.4,51.18-55.75,85.67c-9.29,38.37-7,77.8-5,116.85,2.06,39.7,4.66,82.35-10.62,120-6.27,15.43-16.17,30-30.31,39.17-15.4,10-33.84,13.11-51.37,17.35-17,4.12-34,9.59-47.56,21.18-12.07,10.32-20.63,24.76-24.73,40a78.13,78.13,0,0,0,1.13,45.13c2.46,7.28,14,4.16,11.57-3.19Z"/><path class="cls-1" d="M2256,1506.24c3.61-26.47-2.93-55.26-23.18-73.88-19.13-17.6-47.11-23.71-71-12.62-22.27,10.32-36.47,32.77-46.7,54.13-13.42,28-24.12,57.61-33,87.33s-14.05,60.38-23.06,90c-7.87,25.89-20.61,52.29-43.3,68.36-46.78,33.11-103.66-1.95-130.29-43.78-15.55-24.42-25.23-51.84-35-78.92-9.24-25.61-19.16-50.84-32-74.87-24-44.85-56.92-86.25-99.88-114.26-22.61-14.75-47.63-24.74-73.9-30.8-30.43-7-61.71-9.66-92-17.31-24.77-6.26-49.76-16.22-69-33.46-20.8-18.61-29.4-43.39-33.56-70.33-4.36-28.28-5.73-56.83-17.5-83.36-10.89-24.55-28.66-45.5-47.78-64.07-21.47-20.85-44.89-39.77-67.76-59-24.44-20.6-49.12-40.93-74.45-60.43q-19.08-14.7-38.72-28.65c-6.31-4.48-12.31,5.93-6,10.36,52.56,37.27,101.79,79.12,150.63,121.08,20.53,17.65,41.14,36,57.06,58.1a148.87,148.87,0,0,1,19.26,35c4.89,13.15,7.45,27,9.35,40.86,3.79,27.52,5.45,56.13,18.87,81.09,11.91,22.16,32.3,38.48,54.64,49.37,52.71,25.68,113.43,21.38,167.54,42.5,47.16,18.41,85.17,55,113.11,96.44a400.34,400.34,0,0,1,36.37,67.56c11.07,26.15,19.27,53.4,30.29,79.58,10.63,25.25,24,50.1,44.13,69.06,18.37,17.28,41.63,30.13,66.92,33s49.72-6.72,67.89-24.32c19.8-19.17,31-45,38.37-71.06,8.46-29.89,14-60.46,23.17-90.18,8.89-28.67,19.16-57.62,32.87-84.38,10.68-20.85,26.34-43.43,51.11-47.77,26.18-4.59,51.22,13.44,60.58,37.16a78.82,78.82,0,0,1,4.53,39.3c-1,7.55,10.53,10.82,11.58,3.19Z"/><path class="cls-1" d="M3000.35,706.36c-4.78,64.82-10.48,133.14-40.33,192a209.17,209.17,0,0,1-25.76,39.68,176.3,176.3,0,0,1-16.72,17.63c-5.83,5.29-13.07,10.27-21.37,9.08-14.49-2.09-23.86-18.65-29.9-30.34-8.84-17.12-16.93-34.63-25.49-51.9-30.18-60.9-73.22-128.51-145.47-142.25-19.46-3.7-39.16-2.17-58.82-2.44-17.94-.24-35.32-2.94-51.33-11.39-28.42-15-48.71-41.65-65.62-68.24-20.95-33-39.61-67.57-57.85-102.08q-28.56-54.09-54-109.76-6.35-13.9-12.5-27.91c-3.1-7.05-13.44-.95-10.36,6.06a2084.08,2084.08,0,0,0,114.89,224.34c16.85,28.4,35.85,56.79,62.41,77,12.68,9.66,27.23,17.09,42.82,20.68,20.34,4.67,41.21,2.85,61.87,3.13,18.38.24,36.23,3.26,53.06,10.88a163.52,163.52,0,0,1,43,28.93c27.8,25.59,47,58.39,63.9,91.81,9.09,18,17.6,36.32,26.67,54.34,7,13.91,15.47,29.22,29.63,37,16,8.81,31.75,2,44.12-9.59A201,201,0,0,0,2958.62,925c36.76-57,46.1-127.22,51.75-193.44q1.07-12.6,2-25.23c.57-7.7-11.44-7.66-12,0Z"/><path class="cls-1" d="M200.19,2324.51q-12.47-43-23.73-86.37c-7.41-28.57-16-57.51-20.59-86.69-3.77-24.12.09-47.47,15.39-66.92,13.14-16.71,31.9-28.85,51.75-36.05,52.71-19.12,109.88-2.22,162.1,10.17,45.21,10.73,91.85,18,138.45,15,44.64-2.91,88.91-15.83,123.78-44.78,36.34-30.17,55.74-74.35,83.45-111.56,14.57-19.56,32.06-36.17,53.27-48.33,21.54-12.35,45.24-20.2,69.16-26.46,24.32-6.37,49-11.12,73.51-16.81q39.9-9.27,79.24-20.8a1460.86,1460.86,0,0,0,303-127.32q17.86-10,35.45-20.53c6.62-4,.6-14.33-6.06-10.36a1449.43,1449.43,0,0,1-304.61,137.2c-52.36,16.62-105.52,28.95-159,41.08-47.4,10.75-96.17,25.16-131.79,60-34.39,33.68-52.57,79.6-84,115.63-30.65,35.17-73.57,53.94-119.36,59.51-46.65,5.67-94.22-.1-139.82-10.4-53.47-12.08-110.24-30.73-165.3-17.27-40.41,9.88-81.3,38.78-90.19,81.63-5.78,27.84,3,56.32,9.55,83.22q10.77,44.09,22.79,87.83,5.86,21.32,12,42.55c2.15,7.4,13.73,4.25,11.57-3.2Z"/><path class="cls-1" d="M1062.34,3171.83c-20.59-13.83-42.8-28.9-54.25-51.7-11.66-23.19-6.28-49.86,6.95-71.14,14.53-23.36,37.75-38.72,62.17-50.31,26.77-12.72,55.16-21.93,82.54-33.21q44.16-18.16,87-39.24c24.91-12.26,49.74-25,73.18-39.89,42.85-27.27,82.33-63.75,96.43-114.16,18.27-65.27-5.79-132.93,1.53-199.1.85-7.66-11.16-7.6-12,0-6.68,60.4,13.23,121.31,2.24,181.39a150.83,150.83,0,0,1-33.8,70.85c-16.8,19.77-37.4,35.87-59.15,49.82-23.56,15.12-48.55,27.94-73.63,40.31q-44,21.69-89.47,40.27c-51.14,20.84-113.45,35.72-145.79,84.62-13.93,21.07-21.15,47.82-13.89,72.61,7.39,25.22,27.48,43.4,48.07,58.34,5.18,3.75,10.46,7.34,15.77,10.9,6.42,4.32,12.44-6.07,6-10.36Z"/><path class="cls-1" d="M144.55,202.21c44.56-7.07,89.08-14.74,133.74-21.13,33-4.72,67.72-7.7,100.54-.46,30.76,6.78,57.07,24,71.05,52.85,12.92,26.61,14.58,57.47,16.32,86.5s2.41,59.58,12.64,87.23c10.76,29.1,33.46,52,64.14,59.43,35.95,8.72,73.83-3.09,107.68-14.79,39.18-13.54,78.26-30.41,120.61-28.32,20.62,1,39.88,7.38,58,17.11,17.29,9.29,33.29,20.73,49.94,31.08,35.11,21.81,74.27,35.3,115.63,38.08a240.27,240.27,0,0,0,30.83,0c7.67-.48,7.73-12.48,0-12a231.78,231.78,0,0,1-121.35-25.49c-34.79-18.18-64.92-45.88-103.5-56.3-41.68-11.25-84.09-.32-123.6,13.67-35.4,12.54-72.53,28.53-110.77,27.82-32.28-.59-60.14-18-73.54-47.46-11.93-26.23-12.71-56.61-14.37-84.88-1.75-29.68-3.11-60.62-14.24-88.57-11.73-29.47-34.25-51.29-64-62.29-31.57-11.66-66.8-11.24-99.83-8-41.75,4.15-83.25,12.23-124.67,18.8l-34.39,5.45c-7.6,1.21-4.37,12.78,3.19,11.58Z"/><path class="cls-1" d="M2648.5,2915c-45-13.81-86.15-53.6-92.08-101.77-2.76-22.36,2.65-45.19,20.83-59.7,9.88-7.9,20.08-14.51,25.59-26.41,5-10.79,6.11-22.79,4.46-34.47-4.24-30-27-51.89-48.2-71.46-5.67-5.23-14.18,3.23-8.49,8.49,19.15,17.67,41,37.48,44.9,64.69,1.68,11.66-.09,24.5-7.35,34.09-7.56,10-19.8,15.18-27.9,24.73-32.27,38.05-13.15,95,15.93,128.52a150.15,150.15,0,0,0,69.12,44.86c7.39,2.28,10.56-9.3,3.19-11.57Z"/><path class="cls-1" d="M729.13,1218c-5.66-9.86,1.19-21.54,9.75-27.08,10.07-6.51,22.71-8.3,34.3-10.32,23.18-4,47-6.33,70.47-3.75,22.14,2.42,44,10.24,60.53,25.53,14.83,13.7,24.18,31.75,30.27,50.8,13.08,40.94,13.69,84.84,28,125.47,3.84,10.91,8.55,21.9,16.61,30.41,8.32,8.79,19.83,13.5,31.62,15.36,26.64,4.2,55.16-.13,81.51-4.49,32.26-5.35,64.13-13.09,96-20.18l99.55-22.12c7.53-1.67,4.34-13.24-3.19-11.57l-91.74,20.38c-29.47,6.55-58.89,13.55-88.56,19.19-14.71,2.79-29.51,5.17-44.43,6.61-14.11,1.37-28.72,2.47-42.88,1-12.05-1.26-23.78-5.36-31.56-15.08-7.32-9.15-11.12-21-14.43-32-12.59-42-12.82-87.3-29.29-128.24-7.85-19.5-19.45-37.1-36.23-50-18.9-14.57-42.08-21.33-65.6-23.37-26.91-2.33-54.45,1.17-80.81,6.61-13,2.69-27.13,7.11-35.83,17.89-8,9.92-11,23.63-4.45,35.08,3.84,6.7,14.22.66,10.37-6Z"/></svg>