<?xml version="1.0" encoding="utf-8"?>
<!-- Generator: Adobe Illustrator 22.0.1, SVG Export Plug-In . SVG Version: 6.00 Build 0)  -->
<svg version="1.1" id="Erica_Bus" xmlns="http://www.w3.org/2000/svg" xmlns:xlink="http://www.w3.org/1999/xlink" x="0px" y="0px"
	 viewBox="0 0 902.96 713.64" enable-background="new 0 0 902.96 713.64" xml:space="preserve">
<g id="Bus_1_">
	<g>
		<path fill="#EEB873" d="M512.97,493.6c6.89-0.63,13.78,0.81,20.58,2.09c1.61,0.3,3.25,0.6,4.89,0.44
			c3.15-0.31,5.88-2.25,8.43-4.13c3.05-2.24,6.1-4.48,9.15-6.71l-11.12-40.38l-39.55-4.39l-23.62,18.67l21.97,35.15L512.97,493.6z"
			/>
		<g>
			<path d="M512.97,495.1c4.94-0.32,9.73,0.18,14.6,1c3.45,0.58,7.32,1.87,10.87,1.52c6.82-0.66,13.11-7.21,18.34-11.05
				c0.54-0.4,0.88-1,0.69-1.69c-3.71-13.46-7.41-26.92-11.12-40.38c-0.19-0.69-0.78-1.03-1.45-1.1c-5.61-0.62-11.21-1.25-16.82-1.87
				c-4.45-0.49-8.9-0.99-13.34-1.48c-2.7-0.3-5.72-1.06-8.44-0.94c-3.76,0.16-7.54,4.71-10.39,6.97
				c-5.08,4.01-10.15,8.03-15.23,12.04c-0.5,0.4-0.56,1.3-0.23,1.82c7.32,11.72,14.65,23.43,21.97,35.15
				c0.27,0.42,0.77,0.78,1.3,0.74C506.8,495.6,509.88,495.35,512.97,495.1c1.91-0.15,1.93-3.15,0-3c-2.33,0.19-4.66,0.37-6.99,0.56
				c-1.99,0.16-2.07-0.41-0.99,0.9c-0.19-0.23-0.44-0.6-0.54-0.87c-1.43-3.89-4.88-7.81-7.07-11.32
				c-4.78-7.65-9.56-15.29-14.34-22.94c-0.08,0.61-0.16,1.21-0.23,1.82c4.7-3.72,9.4-7.44,14.11-11.15c2.66-2.1,5.51-4.09,8.04-6.36
				c1.27-1.13,1.84-0.72,0.45-0.72c0.53,0,1.16,0.08,1.67,0.19c6.94,1.47,14.46,1.61,21.51,2.39c5.44,0.6,10.89,1.21,16.33,1.81
				c-0.48-0.37-0.96-0.73-1.45-1.1c3.71,13.46,7.41,26.92,11.12,40.38c0.23-0.56,0.46-1.13,0.69-1.69
				c-6.37,4.67-12.87,11.63-21.31,10.25c-7.05-1.15-13.78-2.61-20.98-2.14C511.06,492.23,511.04,495.23,512.97,495.1z"/>
		</g>
	</g>
	<g>
		<path fill="#EEB873" d="M839.86,368.01c-3.87,1.75-9.59,1.69-13.2-0.55l-12.62-8.79L808,327.37l18.67-7.14l21.42,2.2l-2.2,33.5
			L839.86,368.01z"/>
		<g>
			<path d="M839.46,366.57c-7.83,3.03-12.76-0.9-18.74-5.06c-1.83-1.28-4.01-2.45-5.67-3.95c-0.13-0.11,0.43,1.3,0.32,0.11
				c-0.07-0.75-0.3-1.53-0.44-2.27c-1.83-9.47-3.66-18.95-5.48-28.42c-0.35,0.62-0.7,1.23-1.05,1.85c3.42-1.31,6.85-2.62,10.27-3.93
				c2.21-0.84,6.84-3.01,8.23-3.14c3.42-0.31,7.56,0.78,10.97,1.13c3.41,0.35,6.82,0.7,10.22,1.05c-0.5-0.5-1-1-1.5-1.5
				c-0.57,8.7-1.14,17.4-1.71,26.1c-0.12,1.89-0.29,3.79-0.37,5.69c-0.02,0.48,0,1.01-0.1,1.48c-0.08,0.38,0.32-0.97-0.15,0.15
				c-1.62,3.9-3.82,7.64-5.71,11.41c-0.86,1.72,1.73,3.24,2.59,1.51c1.9-3.8,4.33-7.62,5.8-11.6c0.85-2.31,0.69-4.97,0.85-7.43
				c0.6-9.11,1.19-18.21,1.79-27.32c0.06-0.87-0.74-1.42-1.5-1.5c-3.41-0.35-6.82-0.7-10.22-1.05c-3.45-0.35-7.67-1.5-11.14-1.14
				c-2.91,0.3-6.15,2.22-8.86,3.26c-3.42,1.31-6.85,2.62-10.27,3.93c-0.8,0.31-1.21,0.98-1.05,1.85c0.88,4.57,1.76,9.13,2.64,13.7
				c1.03,5.32,1.25,11.96,3.28,16.99c1.33,3.3,6.58,5.54,9.43,7.52c5.72,3.98,11.32,6.2,18.35,3.48
				C842.04,368.77,841.26,365.87,839.46,366.57z"/>
		</g>
	</g>
	<g>
		<path d="M804.7,331.21c-18.13,3.3-35.58,18.18-43.39,31.31c-2.29,3.84-7.14,10.44-13.18,24.72c-2.71,6.42-6.05,27.63-1.91,40.62
			c2.46,7.71,14.54,21.99,26.08,21.99c24.22,0,35.7-16.48,38.45-21.42"/>
	</g>
	<g>
		<path fill="#3E3E3E" d="M773.15,392.03c-3.95,12.96-2.72,27.47,3.52,39.51c1.68,3.25,3.88,6.47,7.19,8.03
			c3.18,1.5,6.94,1.23,10.33,0.27c7.16-2.03,13.27-6.95,17.7-12.92c4.43-5.97,7.3-12.97,9.44-20.09
			c6.36-21.19,6.49-44.21,0.35-65.46c-1.19-4.11-2.94-8.57-6.8-10.43c-3.07-1.49-6.76-0.92-9.96,0.27c-2.43,0.9-4.76,2.17-6.6,3.99
			c-2.04,2.01-3.4,4.6-4.69,7.16c-7.6,15.05-14.13,30.63-19.54,46.6L773.15,392.03z"/>
		<g>
			<path d="M771.7,391.63c-2.58,9.01-3.03,18.41-1.05,27.59c1.58,7.31,4.83,17.3,11.77,21.26c6.63,3.79,15.31,0.52,21.1-3.41
				c7.63-5.17,12.78-12.98,16.27-21.38c7.69-18.5,9.52-39.71,6.64-59.43c-1.11-7.6-2.21-19.16-8.2-24.8
				c-5.48-5.16-14.54-2.68-19.79,1.63c-4.17,3.42-6.29,8.81-8.58,13.53c-2.73,5.62-5.3,11.31-7.73,17.06
				C778.25,372.84,774.66,382.15,771.7,391.63c-0.58,1.85,2.32,2.64,2.89,0.8c4.36-14,9.98-27.66,16.24-40.91
				c3.73-7.89,6.9-16.84,16.14-19.41c11.51-3.21,13.8,10.38,15.46,18.61c3.36,16.59,2.99,33.96-1.09,50.38
				c-3.72,14.99-11.47,33.61-28.3,37.48c-11.75,2.7-16.73-8.99-19.12-18.5c-2.3-9.14-1.93-18.62,0.66-27.65
				C775.13,390.57,772.23,389.78,771.7,391.63z"/>
		</g>
	</g>
	<g>
		<path d="M447.14,463.04c-13.54-0.26-62.07,14.83-99.14,57.5c-5.41,6.22-9.1,13.74-11.93,21.49c-5.48,15-8.46,31.11-6.99,47.02
			s7.6,31.61,18.56,43.23c5,5.3,10.9,9.68,17.12,13.48c6.94,4.23,31.42,9.19,39.54,8.97c41.19-1.1,70.57-39.28,75.25-44.49"/>
	</g>
	<g>
		<path fill="#3E3E3E" d="M402.65,489.4c-14.55,10.41-31.31,43.94-35.04,66.91c-3.07,18.86-2.25,38.6,5.4,56.11
			c3.4,7.8,8.05,15.27,14.8,20.45c7.97,6.12,18.32,8.55,28.36,8.29s19.98-2.72,29.28-6.52c24.77-10.12,44.2-34.91,49.49-44.73
			c15.38-28.56,22.03-58.25,18.67-87.88c-1.62-14.28-8.71-28.49-20.72-36.37c-13.34-8.75-34.2-8.67-49.58-0.98
			C428.15,472.13,415.83,478.96,402.65,489.4z"/>
		<g>
			<path d="M401.89,488.1c-11.54,8.56-19.16,22.57-25.07,35.33c-7.33,15.8-11.88,32.35-12.34,49.82
				c-0.49,18.59,3.53,38.98,15.39,53.83c11.27,14.12,29.31,17.34,46.38,14.6c31.03-4.98,58.7-28.29,72.59-56.07
				c8.98-17.96,15-37.4,16.65-57.46c1.47-17.91,0.53-37.61-10.36-52.68c-11-15.23-29.58-20.25-47.58-17.03
				c-10.39,1.86-19.7,7.05-28.87,12.06c-9.53,5.2-18.56,11.13-27.1,17.82c-1.52,1.19,0.62,3.3,2.12,2.12
				c7.02-5.5,14.41-10.47,22.14-14.91c7.69-4.42,15.8-9.2,24.21-12.06c15.54-5.3,34.73-4.12,47.16,7.51
				c13.4,12.54,16.01,31,15.71,48.47c-0.32,18.26-4.48,36.28-11.42,53.13c-10.96,26.62-31.39,51.16-58.94,61.57
				c-16.29,6.16-36.75,9.04-52.07-1.21c-15.58-10.43-21.69-32.16-22.83-49.86c-1.18-18.25,2.38-36.04,9.41-52.83
				c5.86-13.98,13.84-30.31,26.34-39.57C404.94,489.56,403.44,486.95,401.89,488.1z"/>
		</g>
	</g>
	<g>
		<path d="M794.97,367.08c-4.59,4.98-7.18,11.42-9.49,17.79c-0.75,2.06-4.39,14.44-0.77,24.08c1.14,3.04,3.33,5.85,6.39,6.93
			c3.99,1.42,8.56-0.41,11.5-3.46c2.94-3.04,4.56-7.09,5.99-11.08c1.31-3.65,3.81-15.21,3.96-20.26c0.16-5.32-1.64-19.71-6.74-19.67
			C801.96,361.42,797.36,364.49,794.97,367.08z"/>
		<g>
			<path d="M793.91,366.02c-6.77,7.8-10.96,18.49-12.03,28.75c-0.89,8.59,0.95,23.54,12.63,23.06c10.79-0.44,15.05-13.08,17.1-21.84
				c2.09-8.94,3.27-17.55,1.13-26.59c-0.75-3.17-2.04-8.09-5.58-9.24C802.54,358.66,796.9,363.02,793.91,366.02
				c-1.36,1.37,0.76,3.49,2.12,2.12c2.08-2.08,4.64-4.06,7.53-4.86c3.24-0.89,4.35,1.03,5.35,3.71c1.42,3.78,1.97,8.05,2.11,12.06
				c0.27,7.62-1.74,16.27-4.43,23.39c-2.28,6.05-8.04,15.66-16,11.58c-5.72-2.93-6.23-11.54-5.9-17.11
				c0.61-10.16,4.67-21.09,11.33-28.77C797.29,366.69,795.18,364.56,793.91,366.02z"/>
		</g>
	</g>
	<g>
		<path d="M429.83,507.11c-22.11,12.98-36.72,37.87-37.29,63.5c-0.12,5.26,0.32,10.54,1.62,15.64c2.31,9.07,7.47,17.51,14.99,23.08
			s17.41,8.08,26.53,6.01c10.12-2.29,18.74-7.96,26.84-14.44c10.99-8.79,20.86-21.14,26.36-36.25c1.86-5.1,6.14-38.38-0.55-48.88
			c-9.55-14.99-20.32-24.45-41.19-18.13C442.57,499.02,429.83,507.11,429.83,507.11z"/>
		<g>
			<path d="M429.07,505.81c-22.48,13.53-37.47,38.43-38.03,64.8c-0.29,13.48,3.55,27.21,13.48,36.77
				c9.49,9.13,22.94,12.36,35.47,8.33c12.73-4.09,24.45-13.15,33.4-22.93c7.6-8.32,15.18-19.11,17.61-30.3
				c1.98-9.12,2.61-18.82,2.44-28.12c-0.19-10.14-2.08-17.76-8.33-25.83c-7.22-9.33-16.89-15.34-29.01-14.22
				C445.88,495.25,437.54,500.45,429.07,505.81c-1.63,1.03-0.12,3.63,1.51,2.59c5.78-3.66,11.89-7.95,18.54-9.77
				c10.96-3.01,21.46-1.12,29.58,7.06c6.54,6.58,10.62,13.56,11.44,22.82c0.78,8.82,0.2,17.86-0.96,26.62
				c-2.78,21.09-18.07,38.79-35.28,50.29c-11.6,7.75-25.39,12.36-38.67,5.86c-12.78-6.25-19.84-19.91-20.99-33.67
				c-2.31-27.66,12.8-55.04,36.35-69.21C432.24,507.41,430.73,504.81,429.07,505.81z"/>
		</g>
	</g>
	<g>
		<path fill="#F6E0D2" d="M152.73,569.59c-6.08,4.78-17.41-1.76-23.24-6.84c-26.55-23.11-39.77-57.6-60.21-86.26
			c-20.5-28.73-49.22-53.15-58.89-87.09c-3.33-11.67-4.17-23.89-4.75-36.02c-2.5-52.66-0.01-103.95,7.04-156.2
			c9.79-4.91,11.34,9.23,17.03-52.18c1.99-21.5,12.08-42.29,2.75-49.43c0.82-3.17,1.66-8.09,2.52-11.25
			c2.5-9.21,5.39-18.81,12.13-25.56c5.41-5.43,12.74-8.43,19.87-11.23c78.81-30.99,157.17-50.27,242.86-35.44l2.7,0.32
			C471.1,32.25,629.07,56.99,786.12,86.58c14.54,2.74,29.39,5.64,42.15,13.12c29.37,17.23,40.55,54.17,43.4,88.11
			c4.68,55.75-2.79,114.34-13.68,169.21l-0.41,1.17c-5.89,3.34-11.78,6.68-17.67,10.02c-0.96-12.57-1.14-25.46-3.34-37.55
			c-9.89-3.3-30.64,3.06-39.96,15.35s-13.09,27.8-16.62,42.83c-73.48,32.19-146.97,64.37-220.45,96.56
			c-1.85,0.81-3.83,1.64-5.83,1.33c-2.62-0.4-4.56-2.65-5.92-4.92c-5.5-9.18-7.29-22.63-17.57-25.61
			c-5.18-1.5-10.66,0.51-15.66,2.53c-28.82,11.65-57.16,24.83-87.15,33.02c-32.26,8.81-69.75,14.03-88.73,41.57
			c-8.97,13.01-12.3,29.4-22.06,41.82c-13.85,17.62-37.46,23.67-59.31,28.64c-16.57,3.78-33.84,7.56-50.4,3.68
			c-21.58-5.05-38-22.07-53.1-38.3L152.73,569.59z"/>
		<g>
			<path d="M151.98,568.3c-5.52,3.69-12.89-0.48-17.65-3.72c-5.64-3.83-10.52-9.01-14.99-14.11c-8.69-9.9-15.84-21-22.6-32.27
				c-6.63-11.05-12.88-22.33-19.87-33.16c-6.71-10.41-14.32-20.12-22.24-29.63c-16.48-19.79-34.69-39.71-42.34-64.88
				c-4.61-15.16-4.99-31.27-5.55-46.99c-0.56-15.65-0.68-31.32-0.36-46.98c0.33-16.23,1.14-32.46,2.4-48.64
				c1.22-15.63,3.8-31.19,4.89-46.8c0.2-2.85,0.05-2.98,2.54-3.56c0.98-0.23,2-0.27,2.98-0.52c2.05-0.53,3.47-1.58,4.56-3.41
				c2.17-3.65,2.73-8.49,3.39-12.59c1.64-10.05,2.58-20.23,3.55-30.37c1.3-13.56,5.18-26.53,6.82-39.99
				c0.48-3.96,0.78-8.38-0.91-12.13c-0.57-1.26-2.13-2.6-2.38-3.84c-0.45-2.21,1.33-6.41,1.89-8.73c1.56-6.43,3.5-13.07,6.71-18.88
				c3.94-7.14,10.02-11.71,17.3-15.1c13.42-6.24,27.79-10.98,41.77-15.78c27.23-9.36,55.07-17.1,83.46-22
				c28.83-4.97,58.19-6.88,87.4-5.02c13.29,0.85,26.31,3.08,39.5,4.67c15.17,1.83,30.33,3.84,45.48,5.82
				C484.62,36.34,611.1,56.12,737.01,79.01c15.92,2.89,31.83,5.84,47.73,8.83c14.64,2.76,29.74,5.52,42.76,13.16
				c21.07,12.37,32.45,35.37,38.1,58.33c6.62,26.89,6.67,55.53,5.59,83.04c-1.22,30.91-5.14,61.67-10.5,92.13
				c-0.65,3.71-1.33,7.41-2.02,11.11c-0.55,2.95-0.54,8.51-2.13,11.02c-1.34,2.11-5.5,3.55-7.75,4.82
				c-3.21,1.82-6.43,3.64-9.64,5.46c0.75,0.43,1.5,0.86,2.26,1.3c-0.93-12.67-1.22-25.4-3.39-37.95c-0.09-0.51-0.58-0.91-1.05-1.05
				c-8.35-2.49-17.98,0.19-25.63,3.73c-10.11,4.67-17.08,12.2-22.06,22.08c-2.53,5.03-4.5,10.34-6.14,15.71
				c-0.98,3.18-1.84,6.4-2.65,9.63c-0.39,1.55-0.6,3.36-1.18,4.85c-1.17,2.99-2.63,3.45-5.54,4.72
				c-14.58,6.38-29.15,12.77-43.73,19.15c-29.15,12.77-58.3,25.54-87.45,38.3c-14.58,6.38-29.15,12.77-43.73,19.15
				c-7.29,3.19-14.58,6.38-21.86,9.58c-3.04,1.33-6.07,2.66-9.11,3.99c-4.45,1.95-11.77,7.19-16.56,3.8
				c-3.97-2.81-5.8-10.27-7.65-14.51c-1.81-4.15-3.86-8.46-7.34-11.49c-9.54-8.31-22.89-0.39-32.55,3.62
				c-27.06,11.23-53.94,22.89-82.37,30.26c-22.05,5.72-45.6,10.02-65.02,22.61c-9.32,6.03-17.06,14-22.45,23.73
				c-6.32,11.42-9.81,24.39-17.65,34.96c-8.76,11.81-22.27,18.59-35.94,23.07c-14.17,4.63-29.22,8.12-43.97,10.29
				c-17.27,2.53-33.77,0.52-48.74-8.83c-12.54-7.83-22.79-18.76-32.79-29.5c-0.33-0.36-0.99-0.57-1.46-0.39
				c-0.35,0.14-0.71,0.28-1.06,0.42c-1.78,0.7-1,3.6,0.8,2.89c1.17-0.46,10.7,10.81,12.38,12.45c4.47,4.36,9.14,8.52,14.15,12.27
				c10.22,7.65,21.83,13.13,34.63,14.47c15.35,1.61,30.73-2.06,45.59-5.48c11.89-2.74,23.84-5.8,34.91-11.06
				c10.67-5.07,20.01-12.39,26.38-22.44c7.31-11.54,10.72-25.1,18.34-36.48c14.33-21.42,40.53-29.31,64.2-35.4
				c12.85-3.31,25.74-6.33,38.37-10.45c14.78-4.82,29.21-10.62,43.56-16.58c7.47-3.1,14.92-6.25,22.41-9.34
				c7.05-2.91,16.62-8.47,24.14-4.36c9.78,5.34,9.23,19.45,16.56,26.91c3.47,3.54,7.3,2.91,11.55,1.14
				c7.65-3.18,15.19-6.65,22.77-9.98c15.18-6.65,30.36-13.3,45.55-19.95c30.67-13.43,61.34-26.87,92.01-40.3
				c15.18-6.65,30.36-13.3,45.55-19.95c3.64-1.6,7.29-3.19,10.93-4.79c3.46-1.52,4.06-1.37,4.9-4.91c1.6-6.74,3.28-13.48,5.57-20.02
				c4.63-13.22,11.69-24.82,24.68-30.98c5.15-2.44,10.89-4.19,16.61-4.48c1.39-0.07,5.43-0.5,6.49,0.52
				c0.75,0.72,0.71,5.24,0.82,6.14c0.27,2.17,0.48,4.36,0.67,6.54c0.68,7.88,0.99,15.78,1.57,23.67c0.08,1.12,1.21,1.89,2.26,1.3
				c4.02-2.28,8.03-4.55,12.05-6.83c2.45-1.39,5.57-2.22,6.62-4.96c1.52-3.96,1.8-8.98,2.58-13.16c0.92-4.94,1.8-9.89,2.64-14.85
				c3.26-19.2,5.93-38.51,7.7-57.91c3.24-35.52,4.87-73.12-2.6-108.24c-6.09-28.61-20.45-56.91-48.51-69.12
				c-16.95-7.38-36.05-9.59-54.09-12.94c-20.13-3.74-40.27-7.4-60.43-10.98c-80.95-14.38-162.13-27.47-243.5-39.27
				c-40.33-5.85-80.7-11.38-121.11-16.59c-36.38-4.69-72.32-10.52-109.15-8.73c-36.84,1.8-73.19,9.19-108.44,19.85
				C106.32,31.25,88.5,37.57,70.88,44.4c-7.62,2.96-15.64,5.73-22.12,10.89c-5.59,4.45-9.14,10.58-11.67,17.17
				c-2.83,7.4-4.23,15.08-6.1,22.73c-0.12,0.49-0.02,1.11,0.39,1.46c6.77,5.78,2.48,18.32,0.9,25.57
				c-2.33,10.66-3.89,21.13-4.96,31.98c-0.83,8.4-1.65,16.83-2.96,25.17c-0.6,3.8-1.09,7.97-2.64,11.53
				c-1.52,3.5-3.73,3.02-6.98,3.92c-5.44,1.5-4.21,7.19-4.83,12.17c-1.53,12.32-2.81,24.67-3.83,37.04
				c-2.03,24.61-3,49.31-2.87,74.01c0.07,12.43,0.4,24.86,1.03,37.28c0.58,11.28,1.47,22.64,4.46,33.58
				c10.57,38.68,44.52,65,65.58,97.67c12.17,18.87,22.13,39.18,35.71,57.13c6.12,8.1,12.99,16.23,21.19,22.32
				c5.9,4.37,15.25,9.61,22.32,4.89C155.09,569.82,153.59,567.22,151.98,568.3z"/>
		</g>
	</g>
	<g>
		<path fill="#007CF8" d="M328.5,88.44c-14.28-0.55-18.67,10.44-17.74,22.49c3.03,38.98,5.31,71.14,9.56,106.52
			c1.59,13.24,10.93,22.58,19.03,24.94c8.8,2.57,18.26,1.87,27.43,1.91c13.01,0.05,25.98-1.1,38.94-2.26
			c7.81-0.7,15.63-1.39,23.44-2.09c12.62-1.12,30.79-2.26,43.11-5.19c2.17-0.52,4.44-1.14,6.04-2.7c2.45-2.37,2.85-11.7,2.88-15.11
			c0.37-36.26-1.65-63.73-9.97-99.03c-1.6-6.79-3.63-13.99-8.93-18.53c-5.51-4.72-13.28-5.5-20.52-5.93
			C414.29,91.84,338.93,88.44,328.5,88.44z"/>
		<g>
			<path d="M328.5,86.94c-7.31-0.08-13.92,2.65-17.14,9.56c-4,8.59-1.75,19.02-1.05,28.03c1.93,25.07,3.86,50.15,6.5,75.16
				c1.1,10.38,1.03,21.94,6.52,31.16c4.29,7.21,10.94,12.21,19.17,13.85c12.15,2.43,25.61,1.37,37.92,0.76
				c13.67-0.67,27.29-2.1,40.92-3.31c11.46-1.02,22.96-1.8,34.39-3.15c4.76-0.57,9.52-1.21,14.21-2.18
				c3.49-0.72,7.93-1.4,10.13-4.55c4.25-6.08,2.68-17.96,2.66-24.82c-0.03-12.34-0.41-24.68-1.46-36.97
				c-0.99-11.63-2.57-23.21-4.73-34.69c-1.99-10.57-3.27-23.39-9.15-32.68c-8.72-13.77-29.62-11.41-43.9-12.14
				C391.91,89.36,360.13,87.03,328.5,86.94c-1.93-0.01-1.93,2.99,0,3c24.24,0.07,48.57,1.79,72.77,2.94c13,0.62,26.01,1.24,39,2
				c11.05,0.65,21.6,2.26,26.47,13.53c4.22,9.78,5.7,21.27,7.55,31.69c3.89,21.94,5.34,44.14,5.43,66.41
				c0.03,6.52,2.4,23.07-5.26,26.08c-9.15,3.59-20.51,3.7-30.19,4.57c-22.53,2.03-45.15,4.64-67.75,5.47
				c-11.49,0.42-24.72,1.7-35.89-1.45c-9.02-2.55-15.58-10.68-17.98-19.54c-1.67-6.18-1.87-12.96-2.56-19.32
				c-0.66-6.13-1.28-12.26-1.86-18.39c-1.18-12.37-2.21-24.75-3.19-37.14c-1.01-12.7-2.72-25.61-2.9-38.35
				c-0.15-10.57,5.05-18.64,16.35-18.52C330.43,89.96,330.43,86.96,328.5,86.94z"/>
		</g>
	</g>
	<g>
		<path fill="#007CF8" d="M494.53,124.53c2.06,13.81,6.8,77.37,12.47,96.28c1.65,5.49,7.69,9.89,15.93,10.44
			c19.82,1.32,69.16-6.06,73.82-10.89c3.97-4.12,4.82-10.25,5.3-15.94c2.7-32.24,2.89-50.13-5.84-81.28
			c-1.4-4.99-3.28-10.4-7.74-13.04c-2.86-1.7-56.89-11.21-83.12-11.21C494.92,98.88,492.18,108.76,494.53,124.53z"/>
		<g>
			<path d="M493.09,124.93c3.9,26.74,4.97,53.82,9.23,80.54c0.86,5.38,1.55,11.15,3.44,16.29c2.61,7.11,10.07,10.43,17.18,11
				c13.97,1.1,28.58-1.08,42.38-3.1c7.16-1.05,14.32-2.25,21.35-3.97c3.49-0.85,8.11-1.63,10.94-4.06
				c6.44-5.51,5.97-16.95,6.54-24.53c0.75-10,1.3-20.03,0.95-30.06c-0.33-9.44-1.52-18.83-3.44-28.08c-1.77-8.57-3.13-20.25-9-27.19
				c-2.63-3.11-5.46-3.73-9.22-4.54c-5.72-1.24-11.5-2.24-17.28-3.2c-17.36-2.89-34.92-5.42-52.51-6.37
				c-6.27-0.34-13.75-1.42-18.05,4.24C490.83,108.15,492.07,117.71,493.09,124.93c0.27,1.9,3.16,1.09,2.89-0.8
				c-0.91-6.49-2.58-17.91,3.89-22.29c4.6-3.11,13.15-1.3,18.37-0.92c14.63,1.07,29.2,3.08,43.68,5.41
				c5.71,0.92,11.42,1.9,17.1,3.02c2.73,0.54,6.12,0.8,8.66,2.01c7.22,3.45,8.81,18.12,10.38,25.14c1.98,8.85,3.34,17.81,3.86,26.87
				c0.49,8.66,0.26,17.34-0.25,26c-0.28,4.71-0.63,9.41-1.03,14.11c-0.42,4.95-0.79,12.3-4.94,15.82c-2.58,2.19-7.09,2.83-10.27,3.6
				c-6.08,1.47-12.27,2.54-18.45,3.5c-13.36,2.06-27.08,3.78-40.62,3.5c-8.28-0.17-16.04-2.74-18.42-11.37
				c-1.34-4.86-2.1-9.91-2.88-14.88c-4.11-26.38-5.21-53.11-9.07-79.5C495.7,122.23,492.81,123.04,493.09,124.93z"/>
		</g>
	</g>
	<g>
		<path fill="#007CF8" d="M630.01,117.66c-10.19,4.76-4.81,16.63-4.61,27.87c0.41,23,2.34,41.03,5.37,63.84
			c0.45,3.37,2.07,9.57,6.99,10.33c9.24,1.43,57.15-2.9,62.84-3.91c4.99-0.89,5.67-6.01,5.87-9.05c1.69-26.36,0.22-43.46-2.28-69.58
			c-0.41-4.24-1.53-8.67-4.47-11.76c-4.57-4.82-41.74-6.91-53.21-8.49C642.57,116.35,633.92,116.17,630.01,117.66z"/>
		<g>
			<path d="M629.25,116.36c-11.34,6-5.57,21.02-5.32,31.13c0.44,17.54,1.93,34.96,4.1,52.37c1.14,9.14,1.09,21.1,12.73,21.58
				c9.31,0.38,18.75-0.49,28.03-1.16c9.31-0.67,18.64-1.42,27.92-2.49c2.79-0.32,5.77-0.42,7.98-2.37c3.85-3.4,3.37-9.87,3.59-14.47
				c0.8-16.39,0.16-32.72-1.25-49.06c-0.79-9.23,0.64-25.88-10.3-29.7c-10.46-3.66-22.58-4-33.52-5.06
				c-10.52-1.02-23.34-4.22-33.61-0.91c-1.83,0.59-1.05,3.49,0.8,2.89c8.26-2.66,17.77-0.43,26.21,0.38
				c9.46,0.91,18.96,1.71,28.36,3.19c3.56,0.56,7.23,1.12,10.64,2.29c6.52,2.23,6.86,10.14,7.42,16.04
				c1.28,13.53,2.46,27.07,2.62,40.67c0.08,7.06-0.09,14.12-0.47,21.17c-0.3,5.56-0.38,10.72-6.81,11.75
				c-6.77,1.09-13.75,1.42-20.58,1.99c-8.79,0.73-17.59,1.37-26.4,1.72c-3.33,0.13-6.67,0.25-10,0.16
				c-1.05-0.03-2.23,0.04-3.26-0.21c-3.89-0.92-5.16-4.89-5.8-8.39c-2.96-16.07-4.11-32.93-4.94-49.22
				c-0.4-7.86-0.29-15.72-1.31-23.54c-0.87-6.68-2.43-14.39,4.67-18.15C632.47,118.05,630.96,115.46,629.25,116.36z"/>
		</g>
	</g>
	<g>
		<path fill="#007CF8" d="M730,122.5c-6.04,0-10.42,1.31-10.43,6.87c-0.01,6.31,5.44,74.11,8.23,78.26
			c3.58,5.32,9.52,4.82,15.93,4.94c8.22,0.16,14.28-0.55,22.99-2.01c4.01-0.67,7.86-3.18,9.79-6.75c1.62-2.98,1.47-6.57,1.28-9.96
			c-1.19-21.45-2.38-30.69-3.57-52.14c-0.17-3.12-0.21-8.39-1.94-10.99c-3.09-4.64-9.26-6.76-14.83-6.59
			C749.92,124.37,730,122.5,730,122.5z"/>
		<g>
			<path d="M730,121c-7.38,0.13-12.2,2.64-11.86,10.47c0.28,6.27,0.83,12.53,1.33,18.79c1.33,16.48,2.63,33.05,5.06,49.42
				c0.74,4.98,1.06,9.62,5.88,12.39c4.59,2.63,10.79,2.05,15.88,2.03c6.67-0.02,13.35-0.75,19.91-1.93
				c5.01-0.9,9.78-3.52,11.94-8.35c2.63-5.89,0.97-13.54,0.56-19.76c-0.87-13.17-2.04-26.31-2.81-39.48
				c-0.31-5.24,0.26-11.74-3.38-16c-3.84-4.49-9.8-5.87-15.45-5.92C748.03,122.57,739,121.84,730,121c-1.92-0.18-1.91,2.82,0,3
				c6.26,0.59,12.52,1.09,18.8,1.43c4.06,0.22,8.5-0.22,12.5,0.48c7.74,1.34,10.87,6.1,11.32,13.48
				c0.65,10.65,1.35,21.28,2.17,31.91c0.39,5.09,0.76,10.17,1.08,15.27c0.45,7.16,2.37,16.38-4.81,20.8
				c-4.81,2.96-12.13,3.04-17.57,3.46c-5.46,0.42-11.38,0.69-16.84,0.03c-7.79-0.95-8.24-5.46-9.17-11.61
				c-2.04-13.57-3.16-27.31-4.34-40.98c-0.61-7.09-1.19-14.18-1.67-21.29c-0.14-2.07-0.35-4.17-0.37-6.25
				c-0.04-5.52,3.88-6.62,8.89-6.71C731.93,123.96,731.94,120.96,730,121z"/>
		</g>
	</g>
	<g>
		<path fill="#007CF8" d="M807.85,127.18c-9.76-0.49-9.85,9.06-9.67,12.28c1.07,18.65,3.23,35.92,4.3,54.57
			c0.27,4.76-0.26,12.11,4.11,14.01c3.7,1.61,33.33-1.74,45.75-4.99c2-0.52,3.33-0.39,4.85-1.78c2.51-2.29,4.24-6.28,4.34-9.68
			c0.47-15.99-5.86-47.82-12.2-56.12C844.21,128.78,812.24,127.4,807.85,127.18z"/>
		<g>
			<path d="M807.85,125.68c-7.4-0.02-11,5.08-11.2,12.06c-0.38,13.26,2.06,26.98,3.17,40.18c0.55,6.57,1,13.14,1.3,19.72
				c0.16,3.65,0.32,8.45,3.49,10.93c4.34,3.39,13.65,1.1,18.49,0.62c9.01-0.89,18.09-2.06,26.93-4.04c3.54-0.8,6.9-1.16,9.35-4.06
				c3.34-3.94,3.78-8.77,3.62-13.71c-0.31-9.78-1.89-19.6-4.02-29.14c-1.65-7.43-3.4-17.4-8.37-23.53
				c-4.36-5.37-13.9-6.12-20.22-7.03C822.92,126.61,815.39,126.05,807.85,125.68c-1.93-0.1-1.92,2.91,0,3
				c11.57,0.57,24.02,0.94,35.05,4.77c6.25,2.17,7.96,7.3,9.9,13.26c2.6,7.98,4.32,16.28,5.6,24.56c1.12,7.28,3.57,17.96,0.44,24.97
				c-3.15,7.04-15.97,7.36-22.82,8.37c-7.5,1.1-15.11,2.03-22.69,2.3c-2.31,0.08-5.04,0.54-6.9-0.96
				c-3.32-2.67-2.33-9.95-2.56-13.84c-0.77-13.14-2.19-26.23-3.25-39.35c-0.59-7.28-4.71-24.11,7.23-24.08
				C809.78,128.68,809.78,125.68,807.85,125.68z"/>
		</g>
	</g>
	<g>
		<path fill="#007CF8" d="M137.36,229.6c0,11.53,11.13,13.49,18.67,18.13c24.17,14.83,100.04,12.05,128.43-3.87
			c7.79-4.37,12.37-13.2,12.19-18.78c-1.01-31.75-13.29-123.41-23.41-135.69c-2.87-3.48-6.46-6.47-10.68-8.09
			c-3.8-1.47-7.94-1.79-12-2.09c-18.38-1.36-36.76-2.73-55.13-4.09c-10.89-0.81-23.36-1.04-30.87,6.88
			c-3.4,3.59-5.21,8.35-6.85,13.01C141.68,140.48,137.36,229.6,137.36,229.6z"/>
		<g>
			<path d="M135.86,229.6c0.4,10.31,8.47,13.68,16.57,17.85c7.12,3.66,13.73,6.6,21.66,8.25c20.87,4.36,43.01,4.07,64.11,1.73
				c10.11-1.12,20.22-2.79,30.02-5.58c8.26-2.35,17.6-5.38,23.48-11.97c6.25-7,6.6-14.15,6.03-22.96c-0.6-9.12-1.51-18.22-2.53-27.3
				c-2.33-20.73-5.25-41.44-9.17-61.93c-1.62-8.45-3.37-16.91-5.76-25.18c-1.35-4.69-2.77-9.94-5.76-13.9
				c-8.82-11.7-23.58-10.87-36.76-11.85c-16.24-1.2-32.58-3.08-48.86-3.49c-11.33-0.28-23.02,1.95-28.96,12.62
				c-5.11,9.17-7.52,20.43-9.88,30.58c-8.4,36.18-12,73.76-14.08,110.8C135.94,228.05,135.89,228.82,135.86,229.6
				c-0.09,1.93,2.91,1.92,3,0c1.41-28.79,4.34-57.68,9-86.12c1.67-10.21,3.62-20.38,6.11-30.42c2.44-9.83,4.93-23.99,12.66-30.98
				c9.92-8.98,26.64-5.62,38.65-4.73c15.1,1.12,30.2,2.17,45.29,3.36c10.37,0.82,19.97,4.41,24.12,14.49
				c2.45,5.96,3.95,12.38,5.4,18.64c4.15,17.94,6.97,36.2,9.46,54.44c2.37,17.37,4.48,34.85,5.41,52.37
				c0.55,10.3-4.06,18.41-13.53,23.12c-7.68,3.82-16.18,6.03-24.55,7.76c-22.12,4.57-45.47,5.69-67.94,3.41
				c-9.42-0.96-19.32-2.47-28.05-6.35c-3.75-1.67-7.29-3.86-10.97-5.67c-5.84-2.88-10.79-6.16-11.07-13.3
				C138.78,227.68,135.78,227.67,135.86,229.6z"/>
		</g>
	</g>
	<g>
		<path fill="#007CF8" d="M37.12,196.65c0,6.59,2.29,10.68,6.38,15.03s9.68,6.73,15.14,8.85c13.21,5.12,26.74,9.46,40.6,12.06
			c2.56,0.48,5.26,0.89,7.71-0.05c4.93-1.9,6.65-8.2,7.39-13.67c2.93-21.7,12.18-93.81,14.79-126.59c0.63-7.86,0-15.38-9.93-13.73
			c-22.41,1.61-33.98,4.94-54.83,11.62c-2.4,0.77-4.58,2.36-6.19,4.39c-1.36,1.71-2.11,3.86-2.82,5.96
			c-10.09,30.05-16.15,61.58-17.95,93.39L37.12,196.65z"/>
		<g>
			<path d="M35.62,196.65c0.48,16.03,14.61,22.43,27.8,27.29c8.94,3.29,18.04,6.19,27.32,8.38c5.82,1.37,14.01,4.35,19.32,0.12
				c6.95-5.55,6.48-18.76,7.54-26.9c1.58-12.13,3.11-24.27,4.61-36.41c3.14-25.54,6.59-51.17,8.42-76.84
				c0.32-4.46,0.68-10.41-3.14-13.6c-4.62-3.86-13.36-1.29-18.69-0.67c-15.07,1.75-30.65,5.24-44.83,10.72
				C55.5,92,53.79,100.19,51.34,108.11c-3.22,10.41-5.96,20.97-8.21,31.63C39.13,158.63,37.66,177.51,35.62,196.65
				c-0.21,1.92,2.8,1.9,3,0c1.58-14.78,2.51-29.49,5.09-44.17c2.81-15.95,6.7-31.71,11.65-47.13c1.47-4.58,2.66-9.85,7.02-12.59
				c3.45-2.17,8.27-3.03,12.14-4.21c6.1-1.86,12.24-3.6,18.47-4.95c6.87-1.48,13.83-2.47,20.83-3.11c3.24-0.3,8.03-1.62,11.01,0.1
				c2.95,1.7,3.02,5.56,2.97,8.63c-0.14,9.5-1.61,19.14-2.62,28.58c-1.25,11.72-2.61,23.43-4,35.13
				c-2.42,20.29-4.96,40.57-7.65,60.82c-0.68,5.15-0.79,13.13-5.48,16.37c-4.18,2.89-10.16,0.73-14.71-0.29
				c-4.49-1.01-8.94-2.2-13.36-3.51c-8.91-2.66-18.1-5.57-26.51-9.59c-8.26-3.94-14.56-10.6-14.84-20.09
				C38.56,194.72,35.56,194.71,35.62,196.65z"/>
		</g>
	</g>
	<g>
		<path fill="#EEB873" d="M42.88,396.03c0.31-23.86,1.18-32.17,2.59-55.99c3.76-0.03,6.93,2.66,9.71,5.19
			c18.36,16.73,36.72,33.47,55.08,50.2c2.68,2.45,5.41,4.94,7.27,8.06c2.41,4.02,3.21,8.78,3.92,13.42
			c4.82,31.49,7.52,63.31,8.07,95.17c-28.92-34.03-45.44-47.38-74-83.63C42.88,411.95,42.4,406.51,42.88,396.03z"/>
		<g>
			<path d="M44.38,396.03c0.26-18.71,1.48-37.32,2.59-55.99c-0.5,0.5-1,1-1.5,1.5c5.32,0.49,9.29,5.34,12.99,8.71
				c2.9,2.64,5.8,5.28,8.7,7.93c6.28,5.72,12.56,11.45,18.84,17.17c6.28,5.72,12.56,11.45,18.84,17.17
				c6.1,5.56,12.01,10.29,14.03,18.69c3.9,16.21,4.97,33.63,6.45,50.21c1.5,16.84,2.37,33.73,2.69,50.63
				c0.85-0.35,1.71-0.71,2.56-1.06c-16.54-19.41-34.47-37.52-51.39-56.58c-9.57-10.77-19.36-21.78-27.45-33.72
				C46.35,412.74,43.97,405.58,44.38,396.03c0.08-1.93-2.92-1.93-3,0c-0.36,8.39,1.08,15.36,5.47,22.62
				c7.5,12.41,17.63,23.54,27.15,34.42c17.8,20.35,36.92,39.47,54.46,60.05c0.86,1,2.58,0.18,2.56-1.06
				c-0.35-18.85-1.41-37.69-3.23-56.46c-0.83-8.55-1.82-17.08-2.96-25.59c-1.09-8.12-1.44-17.4-4.82-24.95
				c-3.2-7.14-10.31-12.18-15.93-17.31c-6.76-6.16-13.53-12.33-20.29-18.49c-6.76-6.16-13.53-12.33-20.29-18.49
				c-5.18-4.72-10.58-11.55-18.01-12.23c-0.84-0.08-1.46,0.75-1.5,1.5c-1.11,18.67-2.33,37.29-2.59,55.99
				C41.36,397.96,44.36,397.96,44.38,396.03z"/>
		</g>
	</g>
	<g>
		<path fill="#FC421D" d="M23.4,371.6c0.54-0.54,0.54-3.22,0.54-3.76c0-9.03-0.25-16.88-0.69-25.9c-0.04-0.79-0.09-1.63-0.56-2.27
			c-0.34-0.47-0.86-0.78-1.37-1.07c-2.84-1.63-5.69-3.26-8.53-4.88c0.26,9.77-0.11,17.83,0.4,28.75L23.4,371.6z"/>
		<g>
			<path d="M24.69,372.35c1.07-2.23,0.75-4.97,0.73-7.38c-0.03-5.18-0.16-10.36-0.35-15.54c-0.11-2.99,0.67-7.89-1.09-10.53
				c-1.98-2.97-7.45-4.78-10.44-6.49c-0.97-0.55-2.28,0.14-2.26,1.3c0.13,5.47,0.09,10.93,0.11,16.4
				c0.02,3.59-1.09,10.36,0.76,13.45c1,1.67,3.64,3.25,5.07,4.54c1.7,1.52,3.4,3.04,5.1,4.57c1.44,1.28,3.56-0.83,2.12-2.12
				c-1.34-1.2-2.68-2.4-4.02-3.6c-1.58-1.41-4.81-3.29-5.78-5.17c-0.52-1.01-0.14-3.53-0.17-4.85c-0.06-2.54-0.09-5.09-0.09-7.64
				c-0.02-5.19,0.01-10.38-0.11-15.58c-0.75,0.43-1.5,0.86-2.26,1.3c2.97,1.7,8.58,3.47,9.71,6.93c0.92,2.81,0.33,7.3,0.43,10.23
				c0.11,3.33,0.19,6.67,0.23,10.01c0.03,2.38,0.8,6.38-0.3,8.67C21.27,372.57,23.86,374.09,24.69,372.35z"/>
		</g>
	</g>
	<g>
		<path fill="#FFC000" d="M22.85,339.84c-0.48-6.14-0.95-12.27-1.43-18.41c-0.19-2.41-0.41-4.93-1.77-6.93
			c-0.85-1.25-2.11-2.21-3.53-2.7c-0.89-0.3-1.9-0.41-2.73,0.02c-1.41,0.73-1.7,2.59-1.76,4.18c-0.2,5.65,0.49,12.33,1.05,17.96
			L22.85,339.84z"/>
		<g>
			<path d="M24.35,339.84c-0.4-5.21-0.81-10.43-1.21-15.65c-0.27-3.43-0.19-7.45-2.18-10.45c-2.97-4.45-9.59-5.24-10.69,0.83
				c-0.74,4.09-0.04,8.83,0.31,12.92c0.2,2.34-0.25,5.99,1.4,7.78c2.28,2.48,7.18,4.15,10.13,5.86c1.67,0.97,3.19-1.62,1.51-2.59
				c-2.11-1.22-4.23-2.45-6.34-3.67c-0.81-0.47-2.71-1.13-3.28-1.9c-0.42-0.56-0.29-3.98-0.42-5.48c-0.23-2.77-0.43-5.55-0.46-8.33
				c-0.03-2.34-0.41-2.9,1.83-4.3c2.09-2.15,3.57-1.27,4.43,2.64c0.14,0.82,0.29,1.65,0.43,2.47c0.84,6.56,1.04,13.27,1.55,19.86
				C21.49,341.76,24.49,341.77,24.35,339.84z"/>
		</g>
	</g>
	<g>
		<path fill="#FC421D" d="M185.62,531.32c-0.16-3.51-0.31-7.02-0.47-10.53c-0.44-9.8-0.88-19.59-1.73-29.36
			c-0.45-5.1-1.08-10.39-3.82-14.71c-0.58-0.92-1.26-1.79-2.17-2.38c-1.14-0.74-2.52-0.98-3.84-1.32c-3.13-0.81-6.08-2.3-8.58-4.34
			c-1.04-0.85-2.41-1.84-3.57-1.18c-1.01,0.58-1.04,1.99-0.95,3.15c1.27,15.97,2.55,31.94,3.82,47.91L185.62,531.32z"/>
		<g>
			<path d="M187.12,531.32c-0.45-10.04-0.83-20.09-1.47-30.12c-0.52-8.1-0.17-18.15-4.76-25.24c-1.81-2.81-3.88-3.45-6.91-4.39
				c-1.95-0.61-3.81-1.3-5.58-2.34c-1.63-0.96-3.12-2.76-5-3.21c-6.61-1.6-4.05,9.16-3.8,12.3c0.82,10.22,1.63,20.44,2.45,30.66
				c0.33,4.11-0.86,9.39,2.93,11.73c6.57,4.06,13.26,7.94,19.88,11.91c1.66,0.99,3.17-1.6,1.51-2.59c-5.18-3.1-10.36-6.2-15.53-9.3
				c-1.3-0.78-2.94-1.49-4.11-2.46c-0.33-0.28-1.04-0.42-1.29-0.77c-0.62-0.89,0.82,1.04,0.21-0.85c-1.09-3.38-0.63-7.94-0.92-11.5
				c-0.33-4.15-0.66-8.3-0.99-12.46c-0.19-2.39-2.76-23.47-0.63-23.55c0.54-0.02,3.3,2.4,3.77,2.69c1.03,0.62,2.12,1.15,3.24,1.61
				c5.09,2.08,8.6,3.12,10.36,9.1c2.27,7.73,2.07,16.54,2.5,24.54c0.44,8.08,0.76,16.16,1.13,24.25
				C184.21,533.24,187.21,533.25,187.12,531.32z"/>
		</g>
	</g>
	<g id="Licht">
		<path fill="#FFC000" d="M180.75,478.96c0.09-10.63-1.42-23.48-2.45-34.05c-0.32-3.26-0.71-6.61-2.27-9.5
			c-1.42-2.63-3.7-4.67-6.01-6.56c-1.85-1.52-3.83-3.02-6.17-3.52c-2.34-0.5-5.12,0.29-6.22,2.41c-0.61,1.17-0.63,2.54-0.62,3.86
			c0.07,12.37,1.77,24.3,3.42,36.93L180.75,478.96z"/>
		<g>
			<path d="M182.25,478.96c0.01-8.62-0.77-17.2-1.62-25.77c-0.64-6.46-0.36-14.21-4.08-19.81c-2.72-4.1-8.6-9.59-13.89-9.7
				c-5.42-0.11-7.17,4.1-7.14,8.83c0.06,8.91,1.07,17.81,2.19,26.64c0.5,3.94-0.36,9.22,3.32,11.35c6.13,3.54,12.67,6.5,18.97,9.74
				c1.71,0.88,3.23-1.71,1.51-2.59c-4.66-2.4-9.33-4.79-13.99-7.19c-1.44-0.74-5.17-1.81-6.14-3.15c0.04,0.06,0.2-1.37,0.18-1.63
				c-0.17-1.87-0.49-3.74-0.73-5.6c-0.43-3.37-0.85-6.75-1.2-10.13c-0.32-3.05-0.59-6.1-0.79-9.15c-0.17-2.64-1.35-8.04-0.31-10.54
				c1.37-1.19,2.75-2.39,4.12-3.58c1.37,0.15,2.6,0.59,3.7,1.33c1.37,0.75,2.57,1.83,3.75,2.85c3.1,2.69,5.15,5.46,6.08,9.54
				c1.37,6.05,1.46,12.69,2.02,18.87c0.59,6.55,1.04,13.1,1.04,19.68C179.25,480.89,182.25,480.9,182.25,478.96z"/>
		</g>
	</g>
	<g>
		<g>
			<path fill="#FFFFFF" d="M70.5,124.77c-1.89,13.53-5.5,30.01,0.58,43.01c4.12,8.8,15.42-9.19,16.26-12.76
				c1.61-6.87,1.11-15.03,1.62-22.08c0.3-4.26,0.64-8.52,0.91-12.78c0.09-1.47,0.49-3.15-0.5-4.42c-0.99-1.28-4.71-2.2-6.06-2.29
				c-1.77-0.11-2.49,0.64-3.79,1.87c-3.02,2.85-5.81,5.99-8.73,8.94c-1.02,1.03,0.57,2.62,1.59,1.59
				c3.08-3.11,8.92-11.86,13.53-9.27c3.55,1.99,1.12,11.68,0.86,15.37c-0.4,5.57-0.79,11.14-1.19,16.71
				c-0.19,2.7-0.09,5.65-1.36,8.09c-1,1.92-2.53,3.7-3.76,5.48c-1.71,2.48-4.94,6.76-7.67,3.25c-1.09-1.4-1.37-4.96-1.82-6.7
				c-2.63-10.31,0.24-23.04,1.69-33.42C72.87,123.95,70.7,123.34,70.5,124.77z"/>
		</g>
	</g>
	<g>
		<g>
			<path fill="#FFFFFF" d="M70.33,155.75c5.6-13.28,12.24-26.07,19.11-38.73c0.69-1.27-1.25-2.41-1.94-1.14
				c-6.97,12.83-13.66,25.8-19.34,39.27C67.6,156.48,69.78,157.07,70.33,155.75L70.33,155.75z"/>
		</g>
	</g>
	<g>
		<g>
			<path fill="#FFFFFF" d="M70.91,125.54c3.91,10.91,8.48,21.55,13.46,32.02c0.62,1.31,2.56,0.17,1.94-1.14
				c-4.9-10.29-9.39-20.75-13.24-31.48C72.59,123.59,70.42,124.17,70.91,125.54L70.91,125.54z"/>
		</g>
	</g>
	<g>
		<g>
			<path fill="#FFFFFF" d="M73.94,168.54c2.28-17.18,4.59-34.35,6.86-51.53c0.19-1.43-2.06-1.42-2.25,0
				c-2.28,17.18-4.59,34.35-6.86,51.53C71.5,169.97,73.76,169.95,73.94,168.54L73.94,168.54z"/>
		</g>
	</g>
	<g>
		<g>
			<path d="M702.19,96.53c10.6,41.06,15.52,85.43,11.33,127.77c-0.44,4.47-1.88,8.75-2.19,13.24c-0.38,5.49-0.07,11.07-0.11,16.57
				c-0.08,10.78-0.34,21.56-0.77,32.33c-0.86,21.6-2.4,43.18-4.6,64.69c-2.5,24.47-5.89,48.85-10.25,73.06
				c-0.34,1.89,2.55,2.7,2.89,0.8c7.68-42.68,12.42-85.9,14.54-129.22c0.53-10.83,0.89-21.66,1.07-32.5
				c0.19-11.37-0.49-22.66,1.74-33.83c1.9-9.56,1.63-19.91,1.75-29.62c0.12-10.84-0.2-21.69-0.95-32.5
				c-1.69-24.15-5.5-48.15-11.56-71.59C704.6,93.86,701.71,94.66,702.19,96.53L702.19,96.53z"/>
		</g>
	</g>
	<g>
		<g>
			<path d="M782.94,325.92c9.54-4.06,19.42-7.36,29.5-9.81c4.67-1.14,9.39-2.1,14.16-2.78c3.07-0.44,6.45-1.18,9.48-0.27
				c3.6,1.08,4.79,3.84,5.4,7.36c0.97,5.57,1.24,11.34,1.82,16.96c0.36,3.42,0.37,7.37,2.14,10.44c2.57,4.46,9.6,4.36,14.04,3.52
				c1.89-0.36,1.09-3.25-0.8-2.89c-4.27,0.81-10.15,0.51-11.48-4.36c-1.5-5.47-1.43-11.83-2.02-17.47
				c-0.68-6.57-0.96-15.36-9.01-16.84c-3.61-0.66-7.6,0.24-11.19,0.78c-5.06,0.76-10.07,1.82-15.03,3.08
				c-9.75,2.48-19.27,5.76-28.53,9.69C779.66,324.08,781.18,326.67,782.94,325.92L782.94,325.92z"/>
		</g>
	</g>
	<g>
		<path fill="#EEB873" d="M872.85,136.54c-4.23,2.03-4.14,9.28-4.38,13.95c-0.4,7.51-0.8,15.03-1.2,22.54
			c-0.22,4.14-0.19,8.91,2.94,11.63c3.3,2.87,8.73,1.84,11.86-1.21c3.13-3.04,4.43-7.5,5.14-11.81c1.3-7.85,1.08-15.86,0.79-23.81
			c-0.11-3.08-0.32-6.42-2.33-8.77c-2.55-2.99-7.03-3.27-10.94-2.93L872.85,136.54z"/>
		<g>
			<path d="M872.09,135.25c-4.06,2.51-4.65,7.29-4.95,11.7c-0.51,7.43-0.78,14.89-1.17,22.33c-0.27,4.99-1.23,11.27,2.25,15.47
				c2.93,3.54,7.96,3.81,11.89,1.87c11.35-5.63,9.8-24.78,9.51-35.09c-0.14-4.98,0.26-11.21-4.11-14.64
				c-3.61-2.83-8.81-2.69-13.06-1.79c-1.89,0.4-1.09,3.3,0.8,2.89c4.01-0.86,9.59-0.99,11.99,3.09c2.18,3.71,1.41,9.92,1.47,14.11
				c0.1,8.26,1.01,22.36-6.6,27.87c-2.25,1.63-5.45,2.57-8.09,1.05c-2.94-1.7-3.25-5.28-3.32-8.26c-0.11-4.36,0.4-8.8,0.63-13.16
				c0.24-4.44,0.48-8.89,0.7-13.33c0.19-3.78-0.1-9.26,3.59-11.54C875.25,136.82,873.74,134.23,872.09,135.25z"/>
		</g>
	</g>
	<g>
		<g>
			<path d="M841.35,123.94c5.39-1.14,11.04-1.58,16.53-2.05c4.01-0.35,8.23-0.26,11.76,1.99c3.72,2.38,5.82,8.23,7.22,12.19
				c0.64,1.81,3.54,1.03,2.89-0.8c-2.97-8.43-6.8-15.53-16.44-16.53c-7.11-0.74-15.78,0.83-22.76,2.3
				C838.67,121.45,839.47,124.34,841.35,123.94L841.35,123.94z"/>
		</g>
	</g>
	<g>
		<g>
			<path d="M852.32,211.99c10.38-6.63,23.61-11.78,24.19-25.78c0.08-1.93-2.92-1.93-3,0c-0.51,12.37-13.58,17.36-22.7,23.19
				C849.18,210.43,850.69,213.03,852.32,211.99L852.32,211.99z"/>
		</g>
	</g>
	<g>
		<g>
			<path d="M8.87,216.38c7.62,9.65,20.72,13.32,31.82,17.27c15.61,5.56,30.75,12.32,45.86,19.1c29.31,13.16,58.94,26.6,90.89,31.79
				c33.64,5.47,67.74,2.29,101.22-2.74c15.41-2.32,30.63-5,46.12-6.59c41.5-4.26,83.01-8.53,124.51-12.8
				c60.46-6.22,120.91-12.44,181.37-18.66c71.68-7.37,143.35-14.75,215.03-22.12c8.92-0.92,17.84-1.84,26.75-2.75
				c1.9-0.2,1.92-3.2,0-3c-70.69,7.27-141.37,14.55-212.06,21.82c-64.21,6.61-128.43,13.22-192.64,19.82
				c-43.01,4.42-86.02,8.84-129.03,13.26c-9.42,0.97-18.9,1.7-28.29,2.91c-16.25,2.09-32.35,5.4-48.62,7.47
				c-16.95,2.15-34.02,3.55-51.12,3.27c-34.51-0.57-66.57-9.93-98.09-23.4c-14.81-6.33-29.39-13.19-44.19-19.55
				c-13.34-5.73-27.23-10.06-40.54-15.77c-6.28-2.69-12.57-6-16.87-11.45C9.79,212.74,7.68,214.88,8.87,216.38L8.87,216.38z"/>
		</g>
	</g>
	<g>
		<g>
			<path d="M38.7,75.46c67.79-34.86,146.58-38.12,221.11-31.63c41.4,3.61,82.49,9.95,123.73,14.97c23.82,2.9,47.72,4.54,71.57,6.99
				c36.84,3.78,73.6,8.51,110.34,13.18c50.4,6.4,100.77,13.08,151.1,20.1c40.51,5.65,81.05,11.27,121.36,18.2
				c3.27,0.56,6.53,1.14,9.79,1.74c1.89,0.35,2.7-2.54,0.8-2.89c-37.99-6.96-76.31-12.21-114.55-17.61
				c-50.26-7.1-100.58-13.82-150.93-20.29c-39.9-5.13-79.83-10.24-119.83-14.57c-17.75-1.92-35.57-3.04-53.33-4.87
				c-41.66-4.29-83.05-10.83-124.68-15.42c-74.64-8.24-153.16-9.72-224.08,18.61c-8.15,3.25-16.12,6.9-23.92,10.91
				C35.47,73.75,36.98,76.34,38.7,75.46L38.7,75.46z"/>
		</g>
	</g>
	<g>
		<path fill="#FFFFFF" d="M12.89,362.01c-0.56,2.89-0.13,6.63-0.34,9.57c-0.09,1.24-0.14,2.5,0.14,3.71c0.49,2.11,1.13,3.02,2.6,4.6
			c1.47,1.58,3.03,3.13,4.93,4.15c0.84,0.45,2.03,0.71,2.61-0.04c0.28-0.36,0.3-0.85,0.32-1.3c0.13-3.27,0.26-6.54,0.39-9.81
			c0.03-0.71,0.05-1.45-0.25-2.09c-0.14-0.31-0.36-0.58-0.57-0.84c-2.56-3.15-5.57-5.32-9-7.49L12.89,362.01z"/>
		<g>
			<path d="M11.45,361.62c-0.48,3.31-0.33,6.63-0.39,9.96c-0.04,2.29-0.05,4.44,1.05,6.54c1.43,2.73,6.64,8.84,10.39,7.77
				c1.64-0.47,1.92-1.7,2.17-3.19c0.51-3.1,1.01-8.2,0.33-11.28c-1.04-4.69-7.44-8.59-11.34-10.7c-1.7-0.92-3.22,1.67-1.51,2.59
				c2.62,1.41,5.57,3.25,7.53,5.51c2.12,2.45,2.38,4.28,2.26,7.33c-0.07,1.8,0.53,4.47-1.12,5.41c-2.74,1.57-6.52-5.37-6.74-7.71
				c-0.34-3.59-0.24-7.88,0.27-11.44C14.61,360.52,11.72,359.71,11.45,361.62z"/>
		</g>
	</g>
	<g>
		<path fill="#FFFFFF" d="M164.09,518.57c0.38,6.46,0.75,12.92,1.13,19.38c0.11,1.93,0.23,3.89,0.92,5.69
			c0.75,1.97,2.12,3.63,3.55,5.19c3.53,3.85,7.96,7.47,13.18,7.67c0.8,0.03,1.71-0.08,2.17-0.73c0.23-0.32,0.3-0.73,0.37-1.12
			c1.16-7.08,1.33-14.32,0.52-21.44c-0.08-0.69-0.19-1.44-0.68-1.94c-0.45-0.46-6.7-4.28-8.99-6.31
			C172.86,521.96,164.09,518.57,164.09,518.57z"/>
		<g>
			<path d="M162.59,518.57c0.4,6.93,0.57,13.92,1.22,20.83c0.46,4.86,2.5,8.19,5.89,11.63c4.23,4.29,16.04,12.15,17.45,1.87
				c0.86-6.23,1.56-13.5,0.25-19.71c-0.65-3.09-2.17-3.76-4.72-5.46c-6.04-4.01-11.38-7.94-18.2-10.61c-1.8-0.7-2.58,2.2-0.8,2.89
				c4.36,1.7,8.47,3.75,12.2,6.58c2.01,1.53,4.31,2.78,6.26,4.36c3.34,2.71,2.81,7.89,2.76,11.99c-0.02,1.96-0.12,3.91-0.29,5.86
				c-0.33,3.74,0.34,7.09-4.4,5.72c-4.19-1.2-7.87-4.63-10.53-7.96c-3.36-4.21-3.01-9.32-3.31-14.44
				c-0.26-4.52-0.53-9.04-0.79-13.56C165.47,516.65,162.47,516.64,162.59,518.57z"/>
		</g>
	</g>
	<g>
		<g>
			<path d="M44.7,408.16c24.54-0.55,48.92,6.22,73.38,1.81c1.9-0.34,1.09-3.23-0.8-2.89c-24.14,4.35-48.35-2.46-72.59-1.92
				C42.77,405.2,42.77,408.2,44.7,408.16L44.7,408.16z"/>
		</g>
	</g>
	<g>
		<g>
			<path d="M158.11,41.1c-15.83,47.27-25.94,96.37-30.02,146.05c-2.03,24.76-2.57,49.65-1.6,74.47c0.64,16.47,2.63,32.77,3.76,49.19
				c3.7,53.97,5.94,108.01,10.31,161.94c2.7,33.29,5.46,66.8,11.34,99.7c0.34,1.9,3.23,1.09,2.89-0.8
				c-5.16-28.91-7.79-58.3-10.29-87.53c-2.84-33.17-5.04-66.4-7.02-99.63c-1.38-23.09-2.53-46.2-3.95-69.3
				c-0.68-11.07-2.09-22.06-2.89-33.12c-1.81-24.78-2.09-49.67-0.88-74.48C132.51,151.24,143.08,95.4,161,41.9
				C161.62,40.06,158.72,39.27,158.11,41.1L158.11,41.1z"/>
		</g>
	</g>
	<g>
		<g>
			<path d="M48.03,68.27C24.91,160.81,26.41,257.5,30.37,352.12c1.16,27.64,2.59,55.27,3.87,82.9c0.09,1.92,3.09,1.93,3,0
				c-4.41-95.6-11.3-192-0.35-287.42c3.03-26.45,7.57-52.71,14.02-78.54C51.39,67.19,48.5,66.39,48.03,68.27L48.03,68.27z"/>
		</g>
	</g>
	<g>
		<g>
			<path d="M600.58,82.8c7.07,24.37,11.89,49.36,14.41,74.62c1.2,12.04,1.89,24.13,2.04,36.23c0.07,5.59-0.19,11.23,0.51,16.78
				c0.75,5.94,3.9,11.37,3.92,17.39c0.02,6.02-1.89,12.27-2.66,18.24c-0.82,6.38-1.34,12.79-1.67,19.21
				c-0.66,12.89-0.52,25.8-0.44,38.7c0.15,24.96-0.53,49.88-2.55,74.76c-2.36,29.09-6.42,58-11.91,86.66
				c-0.36,1.89,2.53,2.69,2.89,0.8c9.64-50.29,14.62-101.33,14.61-152.55c-0.01-26.29-0.71-52.44,3.81-78.45
				c0.89-5.11,1.24-9.78-0.26-14.82c-1.9-6.36-3.14-11.93-3.21-18.63c-0.12-12.32-0.39-24.59-1.4-36.88
				c-2.3-28.04-7.36-55.84-15.2-82.86C602.94,80.15,600.04,80.94,600.58,82.8L600.58,82.8z"/>
		</g>
	</g>
	<g>
		<g>
			<path d="M780.19,107.52c2.83,19.39,4.97,38.87,6.35,58.42c0.67,9.51,1.17,19.03,1.46,28.56c0.13,4.32,0.01,8.7,0.43,13
				c0.44,4.5,1.91,8.78,1.96,13.34c0.09,8.98-1.51,18.16-2.37,27.09c-0.87,9.02-1.72,18.05-2.56,27.08
				c-1.68,18.14-3.32,36.29-4.98,54.43c-1.87,20.37-3.77,40.74-5.82,61.09c-0.19,1.92,2.81,1.91,3,0
				c3.7-36.65,6.91-73.35,10.29-110.03c1.66-17.96,3.64-35.9,5.17-53.86c0.79-9.3-1.76-18.15-1.98-27.43
				c-0.23-9.83-0.69-19.65-1.33-29.45c-1.38-21.1-3.66-42.12-6.71-63.04C782.8,104.81,779.91,105.62,780.19,107.52L780.19,107.52z"
				/>
		</g>
	</g>
	<g id="Spanngurt">
		<g>
			<path fill="#FFC000" d="M613.06,136.94c11.23-5.8,128.24,6.18,172.88,12.3c0.64,0.09,1.37,0.23,1.72,0.78
				c0.4,0.63,0.1,1.44-0.21,2.12c-10.85,23.75-23.37,46.74-37.59,68.63c-7.57,11.65-15.63,23.01-22.55,35.06
				c-4.77,8.31-62.37,86.65-75.73,102.99c-5.65,6.91-11.3,13.82-16.94,20.73c-7.09,8.67-14.18,17.35-21.27,26.02
				c-0.78-1.08-1.35-2.31-1.68-3.6c9.82-8.17,40.32-51.95,48.05-63.47c5.93-8.82,111.84-165.22,120.21-183.25
				c-51.7-6.85-165.88-12.6-166.37-13.37"/>
			<g>
				<path d="M613.62,137.91c2.48-1.2,5.8-1.11,8.48-1.24c5.1-0.25,10.21-0.16,15.31-0.02c14.3,0.39,28.59,1.41,42.85,2.55
					c31.64,2.52,63.25,5.76,94.73,9.73c2.6,0.33,5.2,0.66,7.8,1.01c0.19,0.03,2.61,0.14,2.84,0.38c1.35,1.49-0.28,3.31-0.72,4.63
					c-1.15,3.43-3.23,6.85-4.82,10.1c-5.47,11.16-11.32,22.14-17.55,32.9c-11.52,19.87-24.62,38.8-36.8,58.27
					c-12.73,20.36-28.04,39.42-42.31,58.7c-22.74,30.72-46.68,60.25-70.86,89.85c0.59,0.08,1.18,0.15,1.77,0.23
					c-1.33-2.12-1.46-1.86-0.46-3.49c0.47-0.76,1.46-1.47,2.08-2.14c1.75-1.88,3.41-3.85,5.04-5.83c4.06-4.92,7.93-9.99,11.74-15.1
					c8.12-10.85,15.98-21.91,23.67-33.07c6.61-9.59,13.07-19.3,19.58-28.96c26.49-39.32,52.95-78.68,78.8-118.42
					c8.88-13.65,19.17-27.38,26.13-42.17c0.39-0.83-0.1-1.58-0.97-1.69c-49.76-6.54-100.12-8.81-150.17-12.1
					c-3.75-0.25-7.5-0.49-11.25-0.77c-0.99-0.07-4.21-0.23-4.37-0.34c-1.19-0.83-2.32,1.12-1.14,1.94c0.76,0.53,2.3,0.39,3.17,0.47
					c2.78,0.25,5.56,0.42,8.34,0.61c9.96,0.68,19.92,1.3,29.89,1.95c27.82,1.81,55.63,3.7,83.41,6.11
					c14.07,1.22,28.13,2.55,42.13,4.39c-0.32-0.56-0.65-1.13-0.97-1.69c-5.77,12.26-14.15,23.66-21.48,35
					c-13.01,20.14-26.26,40.12-39.54,60.08c-19.62,29.47-39.39,58.83-59.19,88.17c-7.41,10.98-15.06,21.8-22.88,32.49
					c-7.58,10.37-15.14,22.33-24.99,30.75c-0.29,0.25-0.4,0.74-0.29,1.09c0.45,1.42,0.99,2.59,1.79,3.87
					c0.35,0.56,1.29,0.81,1.77,0.23c22.37-27.37,44.68-54.61,65.78-82.98c15.86-21.32,32.24-42.5,46.87-64.7
					c4.67-7.08,8.85-14.48,13.54-21.56c7.27-10.97,14.58-21.9,21.3-33.22c6.83-11.49,13.21-23.24,19.15-35.21
					c2.54-5.12,6.12-10.77,7.73-16.26c0.79-2.7-0.02-3.67-2.68-4.33c-5.92-1.47-12.51-1.64-18.57-2.37
					c-7.65-0.93-15.31-1.8-22.97-2.64c-17.24-1.89-34.51-3.61-51.79-5.11c-17.44-1.51-34.91-2.9-52.41-3.49
					c-6.1-0.21-12.22-0.36-18.31-0.05c-3.03,0.16-6.52,0.19-9.31,1.54C611.18,136.6,612.32,138.54,613.62,137.91L613.62,137.91z"/>
			</g>
		</g>
		<g>
			<path fill="#FFC000" d="M612.97,404.98c30.85-14.91,63.91-25.6,97.67-31.44c14.36-2.49,61.17-16.51,69.3-22.24
				c1.19-0.84,2.43-1.8,2.89-3.18c0.7-2.12-0.66-4.31-1.98-6.11c-17.99-24.44-40.8-45.14-57.75-70.32
				c-4.99-7.42-83.85-115.45-109.22-135.24c-2.51-0.08-2.23,3.89-0.92,6.04c15.7,25.91,41.29,44.46,58.25,69.56
				c5.33,7.89,26.7,35.86,32.16,41.9c5.08,5.62,9.7,11.63,14.31,17.64c19.38,25.26,38.76,50.53,58.14,75.79
				c-39.93,11.59-79.86,23.18-119.8,34.77c-11.47,3.33-26.8,6.69-36.97,12.97"/>
			<g>
				<path d="M613.53,405.95c31.51-15.13,64.39-24.96,98.64-31.55c19.92-3.83,40.12-10.19,58.95-17.67
					c5.78-2.3,16.39-5.83,11.67-13.87c-4.02-6.84-9.96-13.05-15.08-19.06c-5.41-6.35-10.99-12.55-16.51-18.81
					c-12.7-14.38-23.9-29.64-35.19-45.09c-22.95-31.43-46.44-62.6-71.43-92.45c-5.72-6.83-11.54-13.6-17.64-20.1
					c-2.33-2.48-4.7-4.92-7.17-7.25c-1.3-1.23-3.77-4.36-5.59-4.74c-3.45-0.71-3.54,3.97-2.91,6.06c1.74,5.71,7.15,11.37,10.83,16
					c9.8,12.31,21.2,23.21,31.77,34.85c15.68,17.26,28.36,37.26,42.92,55.49c8.84,11.06,17.95,21.84,26.58,33.09
					c11.51,15,23.02,30,34.52,45c5.65,7.37,11.31,14.74,16.96,22.11c0.22-0.55,0.45-1.1,0.67-1.65
					c-28.21,8.19-56.41,16.37-84.62,24.56c-13.39,3.89-26.75,7.92-40.2,11.62c-10.99,3.02-22.33,5.8-32.21,11.67
					c-1.24,0.74-0.11,2.69,1.14,1.94c10.37-6.17,22.37-8.83,33.88-12.05c13.34-3.73,26.61-7.7,39.9-11.56
					c27.57-8,55.14-16,82.72-24.01c0.62-0.18,1.13-1.06,0.67-1.65c-21.35-27.84-42.36-55.99-64.12-83.51
					c-12.93-16.35-26.46-32.09-38.59-49.09c-7.31-10.25-15.06-19.83-23.69-29.02c-10.49-11.16-21.47-21.97-30.52-34.38
					c-1.97-2.71-4.65-5.78-5.95-8.9c-0.47-1.13-0.77-1.68-0.55-2.99c0.45-2.68-0.33-1.12,0.68-0.91c0.42,0.09,1.11,0.93,1.44,1.22
					c2.21,1.93,4.31,3.99,6.37,6.08c5.52,5.6,10.72,11.52,15.84,17.48c24.99,29.14,48.14,59.92,70.92,90.81
					c7.36,9.99,14.3,20.37,21.87,30.19c9.52,12.34,20.1,23.78,30.36,35.5c5.46,6.23,10.83,12.55,15.89,19.11
					c1.08,1.4,2.97,3.2,3.62,4.87c0.72,1.84-0.15,6.13-1.73,7.53c-0.98,0.87-2.65,1.41-3.81,1.94c-17.83,8.1-37.61,13.41-56.6,18
					c-12.44,3.01-25.09,4.88-37.49,8.11c-16.02,4.17-31.76,9.42-47.08,15.68c-7.18,2.94-14.25,6.1-21.24,9.46
					C611.09,404.64,612.23,406.58,613.53,405.95L613.53,405.95z"/>
			</g>
		</g>
	</g>
</g>
<g id="Maedchen">
	<g>
		<path fill="#DF9A6C" d="M610.02,570.48c-2.53,6.13-3.95,12.71-4.18,19.34c-0.29,8.23,1.24,16.42,1.32,24.65
			c0.02,1.85-0.08,3.83-1.2,5.3c-0.8,1.05-2.01,1.68-3.12,2.39c-6.86,4.34-10.77,12.03-13.86,19.54c-0.49,1.19-1,2.44-1.95,3.31
			c-1.41,1.29-3.56,1.5-5.41,1.02c-0.78-0.2-1.56-1.3-2.36-1.3c-1.65,0-2.92-2.13-3.84-2.75c-1.7-1.14-2.38-1.02-3-2.97
			c-1.48-0.52-2.41-2.24-2.04-3.76c-0.93,0.43-1.61-0.95-1.71-1.97c-0.08-0.8-0.16-1.63,0.03-2.41c0.42-1.74,2.04-2.87,3.49-3.91
			c5.36-3.87,9.99-8.76,13.55-14.33c1.02-1.6,1.98-3.29,2.39-5.15c0.42-1.88,0.27-3.84,0.04-5.75c-1.32-10.84-5.33-21.39-4.92-32.3
			l0.96-10.93l13.18-8.24l13.18,1.1l2.2,11.53L610.02,570.48z"/>
		<g>
			<path d="M608.94,570.19c-3.21,8.17-4.55,16.58-4.18,25.33c0.22,5.07,0.88,10.1,1.14,15.16c0.09,1.65,0.43,3.58,0.11,5.2
				c-0.84,4.17-2.67,4.44-5.22,6.34c-5.87,4.37-9.35,10.93-12.19,17.51c-0.37,0.87-0.73,1.74-1.1,2.6c-2.03,0.77-4.06,1.53-6.08,2.3
				c-0.63-0.08-3.9-2.19-3.92-2.21c-1.77-1.34-6.09-4.67-5.99-7.17c0.02-0.66-0.54-1.06-1.12-1.12c-1.11-0.12-0.2-3.12-0.1-3.37
				c0.55-1.46,1.29-1.9,2.48-2.83c0.95-0.74,1.92-1.43,2.85-2.19c2.98-2.45,5.68-5.23,8.07-8.27c3.39-4.32,6.16-8.64,5.78-14.3
				c-0.85-12.84-5.87-24.72-4.72-37.77c0.15-1.75,0.52-3.61,0.47-5.37c-0.01-0.38-0.01-1.06,0.13-1.42
				c-0.35,0.94-0.67,0.83,0.22,0.38c3.23-1.63,6.28-3.92,9.35-5.84c3.07-1.92,2.33-1.77,5.78-1.49c2.06,0.17,4.12,0.34,6.19,0.52
				c0.72,0.06,1.62,0.29,2.34,0.2c0.71-0.09,1.58,0.54,0.79-0.25c-0.79-0.8,0.26,3.57,0.41,4.35c0.36,1.89,1.02,3.94,1.12,5.87
				c0.04,0.84-0.15,1.13-0.74,2.76C610.17,566.79,609.55,568.49,608.94,570.19c-0.49,1.36,1.68,1.95,2.17,0.6
				c0.95-2.63,2.68-5.66,2.7-8.44c0.02-3.61-1.47-7.72-2.15-11.29c-0.1-0.51-0.62-0.79-1.08-0.83c-3.71-0.31-7.41-0.62-11.12-0.93
				c-2.75-0.23-3.68,0.64-6.05,2.12c-2.69,1.68-7.68,3.55-9.7,6.06c-1.49,1.85-1.03,5.61-1.23,7.91c-0.5,5.73-0.22,11.25,0.8,16.94
				c1.55,8.65,6.67,20.29,2.24,28.51c-1.99,3.69-4.88,7.05-7.83,9.98c-2.78,2.76-7.15,4.76-9.27,8.06c-1.58,2.46-1.52,7.11,1.96,7.5
				c-0.38-0.38-0.75-0.75-1.12-1.12c-0.19,5.16,7.17,9.96,11.42,11.53c8.84,3.28,10.69-8.72,13.99-14.18
				c1.51-2.5,3.28-4.88,5.42-6.88c1.76-1.64,4.02-2.62,5.77-4.23c3.03-2.79,2.52-7.06,2.32-10.82c-0.74-13.92-2.3-26.53,2.95-39.9
				C611.64,569.44,609.46,568.85,608.94,570.19z"/>
		</g>
	</g>
	<g>
		<path fill="#DF9A6C" d="M583.52,412.15c0.96,13.14-8.38,24.96-9.56,38.09c-0.33,3.64,0.6,8.16,4.09,9.23l5.61,0.71l-4.94,20.87
			l-8.91,2.11c-2.58-0.04-5.15-0.34-7.67-0.91c-0.67-0.15-1.36-0.33-1.86-0.79c-0.6-0.55-0.82-1.38-0.98-2.17
			c-2.08-10.38,2.18-20.84,3.7-31.32c1.24-8.55,0.65-17.27,1.37-25.88c0.72-8.61,1.78-17.08,7.71-23.37"/>
		<g>
			<path d="M582.4,412.15c0.57,13.29-8.12,24.36-9.47,37.31c-0.37,3.53-0.03,8.32,3.37,10.42c2.08,1.28,5.01,1.13,7.36,1.43
				c-0.36-0.47-0.72-0.95-1.08-1.42c-1.29,5.43-2.57,10.86-3.86,16.28c-0.29,1.24-0.67,2.49-0.89,3.74
				c-0.25,1.45,0.79,0.08-0.19,0.24c-3.29,0.55-6.41,1.97-9.77,1.81c-2.72-0.13-6.09-0.13-7.49-2.97c-0.77-1.55-0.53-4.43-0.51-6.12
				c0.05-3.95,0.76-7.82,1.57-11.67c1.44-6.87,2.98-13.56,3.37-20.59c0.73-13.43-1.5-30.18,8.06-41.09
				c0.95-1.08-0.63-2.68-1.59-1.59c-6.37,7.27-7.58,16.69-8.18,26.01c-0.38,5.86-0.24,11.73-0.6,17.59
				c-0.42,6.82-2.05,13.33-3.42,19.99c-1.15,5.58-4.65,19.41,2.76,21.82c5.98,1.94,11.37,0.17,17.17-1.2
				c0.37-0.09,0.7-0.42,0.79-0.79c1.65-6.96,3.3-13.91,4.94-20.87c0.19-0.78-0.35-1.33-1.08-1.42c-2.96-0.38-5.82-0.05-7.48-2.84
				c-2.81-4.7-0.24-11.69,1.38-16.45c3.09-9.11,7.52-17.75,7.1-27.61C584.59,410.71,582.34,410.7,582.4,412.15L582.4,412.15z"/>
		</g>
	</g>
	<g>
		<path fill="#DF9A6C" d="M687.75,406.46c5.5,8.53,10.88,17.13,16.15,25.8c1.19,1.96,2.41,4.02,2.64,6.3
			c0.41,4.12-2.42,7.79-5.17,10.88c-8.31,9.35-17.4,18.02-27.14,25.88c-1.22,0.98-2.48,1.99-3.23,3.36
			c-0.83,1.53-0.94,3.33-1.2,5.06c-0.37,2.42-1.08,4.8-2.11,7.02c-0.38,0.82-0.85,1.68-1.65,2.1c-0.96,0.51-2.13,0.27-3.19,0.03
			c-2.6-0.61-5.2-1.21-7.79-1.82l-16.46-2.89l9.89-25.27l6.74,1.93c11.37-5.66,19.5-16.07,27.24-26.14
			c0.35-0.45,0.71-0.94,0.78-1.51c0.15-1.29-1.19-2.19-2.25-2.93c-3.2-2.23-4.91-3.44-7.97-8.03"/>
		<g>
			<path d="M686.78,407.03c3.77,5.87,7.5,11.76,11.18,17.69c1.82,2.93,3.74,5.84,5.41,8.85c2.94,5.3,1.88,9.42-1.77,13.89
				c-8,9.81-17.74,18.49-27.48,26.5c-1.59,1.31-3.25,2.55-4.21,4.42c-1.37,2.68-0.78,5.93-2.01,8.64c-0.18,1.61-1.07,2.7-2.68,3.26
				c-0.98,1.52-2.2,1.91-3.64,1.16c-1.25-0.02-2.69-0.63-3.9-0.91c-1.13-0.26-2.25-0.51-3.39-0.73c-5.12-0.99-10.27-1.8-15.41-2.7
				c0.26,0.46,0.52,0.92,0.79,1.38c3.3-8.42,6.59-16.84,9.89-25.27c-0.46,0.26-0.92,0.52-1.38,0.79c3.12,0.89,6.03,2.61,9.01,1.09
				c6.13-3.13,11.4-8.13,15.98-13.19c2.51-2.77,4.85-5.68,7.16-8.61c1.2-1.53,3.69-3.72,3.99-5.79c0.22-1.52-0.67-2.45-1.68-3.4
				c-3.18-2.98-6.09-4.7-8.66-8.43c-0.82-1.18-2.77-0.06-1.94,1.14c1.25,1.81,2.51,3.59,4.11,5.11c1.19,1.14,3.25,2.07,4.27,3.32
				c2.64,3.24-2.13,7.08-4.17,9.59c-1.85,2.28-3.74,4.51-5.74,6.66c-3.7,3.96-9.09,10.09-14.44,11.66
				c-2.18,0.64-4.86-0.62-7.28-1.31c-0.63-0.18-1.16,0.22-1.38,0.79c-3.3,8.42-6.59,16.84-9.89,25.27
				c-0.21,0.53,0.23,1.29,0.79,1.38c5.48,0.96,11.01,1.78,16.46,2.89c3.81,0.78,10.18,4.16,13.24,0.37
				c1.81-2.24,2.37-5.75,2.89-8.49c1-5.25,3.62-7.43,7.59-10.77c5.71-4.79,11.17-9.86,16.38-15.19c4.18-4.28,9.84-9.05,12.04-14.79
				c2.37-6.19-1.89-11.42-5-16.48c-4.32-7.02-8.71-14-13.17-20.93C687.94,404.68,685.99,405.81,686.78,407.03L686.78,407.03z"/>
		</g>
	</g>
	<g>
		<path fill="#DF9A6C" d="M659.23,592.52c1.47,4.74,2.88,9.51,4.21,14.29c3.92,14.03,7.28,28.28,8.69,42.78l0.45,7.97
			c0.86,2.02,2.1,3.9,2.58,6.04c0.36,1.6,0.28,3.26,0.52,4.87c0.94,6.19,6.35,10.63,9.09,16.25c1.65,3.37,2.32,7.21,1.92,10.94
			c-0.1,0.9-0.27,1.83-0.8,2.57s-1.51,1.21-2.37,0.91c0.29,0.67-0.41,1.39-1.12,1.56c-0.71,0.17-1.48,0.06-2.16,0.31
			c-1.09,0.4-1.81,1.68-2.97,1.73c-0.45,0.02-0.89-0.16-1.33-0.13c-0.75,0.05-1.33,0.65-2,1.02c-2.25,1.23-5.1-0.64-6.18-2.97
			c-1.07-2.33-1.04-5-1.69-7.48c-0.47-1.81-1.31-3.51-1.99-5.25c-2.1-5.43-2.67-11.37-4.83-16.78c-0.89-2.24-2.06-4.41-2.4-6.8
			c-0.51-3.57-0.49-6.9-1.79-10.26l-4.25-9.42c-5.79-10.43-10.04-21.73-12.56-33.39c-0.68-3.17-1.25-6.38-2.32-9.44
			c-2.76-7.85-8.9-14.89-8.52-23.2"/>
		<g>
			<path d="M658.14,592.82c5.91,19.17,11.87,39.17,13.01,59.31c0.1,1.82-0.09,3.96,0.35,5.73c0.52,2.1,2.08,3.89,2.58,6.04
				c0.54,2.3,0.31,4.66,1.03,6.94c1.12,3.57,3.49,6.5,5.61,9.51c1.12,1.58,2.24,3.19,3.09,4.94c0.77,1.61,4.24,12.5-0.29,12.72
				c-0.46,0.02-0.99,0.33-1.08,0.83c-0.09,0.47-3.54,1.82-3.99,1.99c1.63-0.6-3.96,1.07-3.84,1.08c-2.33-0.18-5.9-2.27-6.63-4.48
				c-1.07-3.22-1.6-6.56-2.81-9.81c-1.23-3.29-1.95-6.7-2.8-10.1c-0.88-3.5-2.27-6.64-3.43-10.03c-1.07-3.1-1.2-6.3-1.72-9.51
				c-0.57-3.5-2.05-6.42-3.5-9.62c-4.81-10.65-10.13-20.76-13.12-32.17c-1.57-5.98-2.33-12.15-4.86-17.84
				c-2.88-6.5-7.18-12.33-7.2-19.72c0-1.45-2.25-1.45-2.25,0c0.02,9.84,7.06,17.4,9.49,26.61c2.74,10.38,4.88,20.5,9.28,30.39
				c2.73,6.13,6.11,11.93,8.65,18.16c1.66,4.07,1.29,8.44,2.46,12.61c0.73,2.58,2.05,4.96,2.87,7.52c0.98,3.06,1.57,6.22,2.4,9.31
				c1.35,5.03,3.2,9.73,4.37,14.81c0.67,2.89,1.86,5.71,4.89,6.75c4.17,1.43,11.09-2.33,14.29-4.59c5.27-3.74,2.82-12.41,0.1-17.3
				c-2.32-4.16-5.96-7.57-7.58-12.12c-0.87-2.46-0.65-4.97-1.25-7.46c-0.51-2.11-2.01-3.87-2.55-5.9c-0.64-2.39-0.25-5.34-0.44-7.81
				c-0.45-5.76-1.43-11.54-2.51-17.21c-2.58-13.59-6.36-26.95-10.44-40.16C659.89,590.84,657.72,591.43,658.14,592.82L658.14,592.82
				z"/>
		</g>
	</g>
	<g>
		<path fill="#FC421D" d="M655.45,365.47c0.2,6.61,5.48,12.72,12,13.87c2.02,0.36,4.18,0.31,5.97,1.3c1.73,0.97,2.82,2.76,3.83,4.47
			c2.08,3.53,4.16,7.06,6.24,10.59c1.91,3.24,3.88,6.73,3.71,10.49c-0.11,2.41-1.11,4.7-2.29,6.81
			c-3.43,6.14-8.53,11.34-14.62,14.87c-1.69,0.98-3.51,1.89-4.67,3.46c-1.34,1.82-1.55,4.2-1.73,6.45
			c-0.56,7.21-1.26,14.67-4.78,20.99c-2.82,5.06-7.27,9.07-10,14.18s-3.1,12.36,1.48,15.89c1.1,0.85,2.4,1.41,3.44,2.33
			c1.81,1.6,2.58,4.02,3.32,6.32c6.18,19.33,14.84,37.87,25.7,55.02c0.8,1.26,1.64,2.64,1.49,4.13c-0.25,2.48-3.08,3.84-5.57,4.06
			c-2.49,0.22-5.13-0.18-7.38,0.89c1.81,6.55-1.63,14.16-7.75,17.13c-1.14,0.55-2.41,1-3.16,2.03c-1.62,2.22,0.24,5.3,0.01,8.05
			c-0.31,3.73-4.64,6.03-8.35,5.56c-3.71-0.47-6.85-2.87-9.79-5.18c-3.1-2.43-6.2-4.87-9.3-7.3c-1.58-1.24-3.21-2.5-5.15-3.01
			c-2.3-0.6-4.74-0.04-7.1-0.27c-7.84-0.75-12.22-9.24-14.78-16.69c-0.68-1.99-1.87-4.38-3.97-4.31c-0.84,0.03-1.6,0.48-2.32,0.92
			c-5.28,3.22-10.56,6.45-15.85,9.67c-2.02,1.23-4.14,2.5-6.51,2.7c-3.97,0.33-7.47-2.41-10.52-4.99
			c-8.16-6.91-16.33-13.83-24.49-20.74c-0.87-0.73-1.77-1.52-2.13-2.6c-0.39-1.19-0.03-2.49,0.39-3.68c0.97-2.75,2.24-5.4,3.79-7.88
			c1.24-1.99,2.71-4.01,2.84-6.36c0.23-4.02-3.46-7.2-4.29-11.14c-1.05-4.96,2.58-9.63,6.31-13.06
			c9.27-8.53,21.09-15.18,26.33-26.63c4.75-10.39,3.18-23.11,9.19-32.82c2.17-3.51,5.28-6.53,6.5-10.47
			c2.01-6.53-1.71-13.31-5.29-19.13c-5.64,1.67-11.06-5.7-13.38-11.1c-2.29-5.35,1.57-9.84,3.56-15.37
			c2.53-7.02,5.58-14.66,12.18-18.14l48.35-10.37L655.45,365.47z"/>
		<g>
			<path d="M654.32,365.47c0.48,5.67,3.47,10.73,8.57,13.46c2.78,1.49,6.14,0.91,8.81,2.22c4.52,2.21,7.02,8.7,9.46,12.84
				c2.42,4.11,5.49,8.46,4.66,13.45c-0.77,4.66-4.32,9.23-7.47,12.58c-2.92,3.11-6.33,5.36-9.92,7.6c-2.41,1.5-4.18,3.04-5.04,5.81
				c-0.92,2.94-0.75,6.32-1.08,9.35c-0.55,5.05-1.49,10.09-3.8,14.67c-3.18,6.3-9.28,10.88-11.57,17.68
				c-1.68,4.98-1.36,10.9,2.85,14.5c1.29,1.1,2.61,1.7,3.78,3.02c1.79,2.01,2.4,4.31,3.24,6.84c1.41,4.25,2.91,8.47,4.55,12.64
				c3.41,8.71,7.32,17.22,11.71,25.47c2.25,4.21,4.62,8.36,7.11,12.44c0.21,0.35,1.83,2.42,1.89,3.04
				c-0.72,2.11-1.43,4.22-2.15,6.33c-1.07,0.17-2.15,0.25-3.23,0.25c-1.94,0.11-3.56,0.2-5.42,0.85c-0.6,0.21-0.92,0.76-0.79,1.38
				c1.46,6.57-1.52,12.55-7.23,15.86c-3.58,2.08-4.3,2.96-4.19,7.12c0.04,1.68,0.59,3.96-0.11,5.61c-1.18,2.8-5.48,3.08-7.88,2.47
				c-3.53-0.9-6.51-3.63-9.29-5.79c-3.67-2.85-7.61-7.07-12-8.87c-2.38-0.98-4.54-0.68-7.02-0.76c-3.49-0.12-6.16-1.18-8.66-3.59
				c-3.98-3.85-5.06-9.05-7.4-13.81c-1.27-2.58-3.07-4.09-5.97-3.31c-2.1,0.57-4.29,2.5-6.14,3.63c-2.91,1.77-5.81,3.55-8.72,5.32
				c-2.21,1.35-4.64,3.25-7.22,3.8c-4.37,0.93-7.71-1.94-10.81-4.46c-5.37-4.36-10.57-8.95-15.84-13.42c-2.4-2.03-4.81-4.06-7.2-6.1
				c-3.38-2.88-3.59-5.2-1.69-9.39c1.77-3.9,5.6-7.7,5.45-12.21c-0.15-4.43-4.23-7.56-4.44-11.96c-0.32-6.71,7.33-11.97,11.95-15.73
				c7.59-6.18,15.98-12.21,20.38-21.24c5.27-10.8,3.3-23.9,9.94-34.15c2.86-4.42,6.53-8.13,6.78-13.67c0.27-5.95-3.04-11.54-6-16.42
				c-0.28-0.46-0.77-0.61-1.27-0.52c-4.82,0.9-8.46-3.92-10.57-7.57c-2.68-4.62-1.94-8.29,0.15-12.93
				c2.7-5.99,4.37-12.79,8.65-17.91c4.16-4.97,9.63-5.09,15.6-6.37c8.03-1.72,16.06-3.44,24.09-5.17c3.27-0.7,6.54-1.4,9.82-2.1
				c0.85-0.18,1.72-0.32,2.55-0.55c0.86-0.24,1.34,0,0.3-0.27c3.21,0.81,6.62,3.25,9.56,4.7c2.94,1.44,5.87,2.89,8.81,4.33
				c1.29,0.64,2.44-1.3,1.14-1.94c-4.25-2.09-8.5-4.18-12.75-6.27c-2.32-1.14-4.67-2.92-7.24-2.81c-3.6,0.16-7.55,1.62-11.07,2.37
				c-5.92,1.27-11.85,2.54-17.77,3.81c-8.2,1.76-18.84,1.84-24.63,8.67c-2.25,2.66-3.84,5.81-5.19,8.99
				c-1.9,4.49-4.24,9.09-5.67,13.74c-2.04,6.63,2.45,14.58,8.13,18.15c1.33,0.84,2.49,1.12,4,1.52c2.18,0.57,2.26,0.51,3.62,3
				c3.88,7.12,4.61,13.49-0.26,20.27c-6.15,8.56-7.43,16.92-9.39,27.08c-2.12,11.05-7.66,18.71-16.16,25.85
				c-6.3,5.3-15.64,10.55-18.84,18.54c-1.36,3.4-0.97,6.55,0.64,9.76c1.35,2.69,3.46,5.24,2.73,8.51c-0.66,2.93-3.31,5.87-4.6,8.56
				c-1.22,2.54-3.13,5.97-2.08,8.85c0.44,1.19,1.41,1.99,2.3,2.83c2.73,2.57,5.78,4.89,8.64,7.32c4.32,3.66,8.64,7.32,12.96,10.98
				c3.25,2.75,6.72,6.36,11,7.44c9.29,2.34,16.57-8.61,24.53-11.23c0.53-0.32,1.06-0.64,1.58-0.97c2.68,0.24,4.3,1.35,4.86,3.35
				c0.56,1.05,0.86,2.32,1.33,3.42c0.9,2.09,1.92,4.13,3.2,6.01c2.05,3.02,4.79,5.74,8.33,6.9c2.12,0.7,4.18,0.48,6.36,0.56
				c5.16,0.18,7.86,2.94,11.76,5.99c3.87,3.04,7.98,7.09,12.66,8.89c3.33,1.28,7.19,1.31,10.1-1.01c1.27-1.01,2.2-2.31,2.55-3.91
				c0.5-2.25-0.86-4.32-0.52-6.47c0.46-2.87,3.9-3.64,5.8-5.11c1.85-1.44,3.36-3.32,4.43-5.41c1.84-3.59,2.17-7.49,1.31-11.39
				c-0.26,0.46-0.52,0.92-0.79,1.38c4.08-1.42,13.11,0.5,13.78-6.04c0.28-2.79-2.2-5.55-3.54-7.74c-2.65-4.33-5.16-8.74-7.53-13.23
				c-4.55-8.62-8.58-17.53-12.03-26.65c-2.41-6.37-3.43-15.28-9.07-19.65c-2.22-1.72-3.97-2.5-4.88-5.6
				c-0.62-2.12-0.46-4.59,0.11-6.72c1.29-4.81,4.75-8.55,7.71-12.4c4.7-6.11,6.99-12.56,7.95-20.19c0.65-5.22-0.05-10.94,4.57-14.5
				c3.29-2.53,6.84-4.23,9.86-7.18c4.46-4.36,9.62-10.81,9.47-17.39c-0.08-3.76-2.01-7.09-3.84-10.26
				c-2.48-4.28-4.76-9.26-7.88-13.1c-2.5-3.08-5.19-2.96-8.83-3.78c-6.21-1.39-10.63-6.43-11.17-12.78
				C656.45,364.04,654.2,364.03,654.32,365.47z"/>
		</g>
	</g>
	<g>
		<path fill="#DF9A6C" d="M641.29,362.18c0.75,1.01,1.5,2.02,2.25,3.04c1.09,1.47,2.23,3.05,2.39,4.87c0.19,2.11-0.97,4.1-2.27,5.77
			c-1.43,1.82-3.09,3.46-4.48,5.31c-1.22,1.61-2.23,3.37-3.33,5.06c-3.51,5.39-7.94,10.11-12.35,14.79
			c-1.09,1.16-2.2,2.34-3.53,3.22c-1.43,0.95-3.07,1.54-4.56,2.4c-1.97,1.13-3.66,2.72-4.91,4.61c-1.1-2.17-2.4-4.24-3.87-6.18
			c-2.29-3.02-5.13-6-5.46-9.77c-0.08-0.98,0.03-2.03,0.63-2.81c1.3-1.7,4.14-1.35,5.61-2.9c1.05-1.11,1.06-2.82,1.01-4.35
			c-0.16-4.61-0.32-9.22-0.48-13.83l-14.39-6.78l-7.69-20.87l9.89-20.87l7.14-10.99l13.18,4.94l25.82,16.48l7.69,12.08l-5.49,8.24
			L641.29,362.18z"/>
		<g>
			<path d="M640.32,362.75c2.22,2.99,3.88,4.42,3.55,8.29c-0.36,4.28-3.02,6.07-5.49,9.33c-3,3.96-5.38,8.23-8.59,12.06
				c-3.26,3.88-6.82,8.55-11.13,11.27c-3.6,2.28-6.53,3.43-9.13,6.98c0.65,0,1.3,0,1.94,0c-1.87-3.49-4.25-6.4-6.52-9.6
				c-2.41-3.4-3.87-5.57,0.53-9.2c0.97-0.8,1.65-0.42,2.62-1.41c1.27-1.3,1.42-2.92,1.46-4.65c0.12-4.78-0.32-9.64-0.49-14.42
				c-0.01-0.37-0.2-0.8-0.56-0.97c-2.1-0.99-4.2-1.98-6.3-2.97c-2.41-1.13-5.84-2.08-7.92-3.73c0.6,0.48,0.23,0.46-0.11-0.63
				c-0.33-1.06-0.77-2.09-1.15-3.13c-1.24-3.37-2.49-6.75-3.73-10.12c-0.71-1.92-1.98-4.15-2.28-6.18c0.04,0.3-0.27,0.91,0.26-0.3
				c0.59-1.32,1.24-2.62,1.86-3.93c2.48-5.23,4.69-10.71,7.48-15.79c0.77-1.4,1.73-2.72,2.61-4.06c1.03-1.58,2.06-3.16,3.08-4.75
				c0.23-0.36,0.66-0.84,0.8-1.23c0.58-1.61,1.22-0.34-0.45-0.6c3.84,0.58,10.05,3.39,12.98,4.89c4.72,2.42,9.14,5.83,13.61,8.69
				c2.68,1.71,5.35,3.42,8.03,5.12c0.95,0.6,1.89,1.2,2.84,1.81c0.25,0.16,1.55,1.19,0.85,0.44c1.94,2.09,3.31,5.2,4.84,7.6
				c0.82,1.29,2.07,2.7,2.63,4.13c0.26,0.66,0.07-0.61,0.11-0.75c-0.17,0.65-0.99,1.49-1.35,2.03c-1.41,2.11-3.15,4.2-4.22,6.5
				c-1.22,2.61-1.85,5.69-2.75,8.43c-0.45,1.38,1.72,1.97,2.17,0.6c0.88-2.69,1.56-5.98,2.74-8.39c1.4-2.84,3.66-5.49,5.42-8.13
				c0.21-0.32,0.2-0.81,0-1.14c-2.46-3.86-4.65-9.08-7.87-12.31c-3.3-3.31-8.8-5.64-12.71-8.15c-4.35-2.78-8.69-6.19-13.31-8.5
				c-4.23-2.11-9.04-3.41-13.47-5.07c-0.48-0.18-1.02,0.12-1.27,0.52c-3.16,4.86-6.45,9.53-8.93,14.77
				c-1.93,4.07-3.85,8.13-5.78,12.2c-0.8,1.69-2.44,3.9-2.41,5.81c0.04,2.66,2.41,6.54,3.32,9.01c1.31,3.57,2.29,7.65,4.06,11.01
				c1.02,1.95,2.44,2.24,4.54,3.23c2.04,0.96,4.07,1.92,6.11,2.88c0.73,0.35,3.94,1.29,4.38,2.06c0.38,0.68-0.14,5.89-0.1,7.02
				c0.07,1.97,0.82,5.23,0.22,7.1c-1.27,3.93-5.86,3.17-7.05,6.85c-2.01,6.2,6.73,13.82,9.27,18.57c0.43,0.81,1.47,0.64,1.94,0
				c2.27-3.1,5.16-4.25,8.32-6.17c2.24-1.36,3.92-3.21,5.7-5.11c4.07-4.34,8.04-8.77,11.32-13.74c1.72-2.6,3.36-5.1,5.38-7.5
				c1.52-1.8,3.37-3.61,4.24-5.86c1.83-4.73-1.49-8.21-4.18-11.83C641.41,360.46,639.46,361.58,640.32,362.75z"/>
		</g>
	</g>
	<g>
		<path fill="#703C14" d="M604.19,316.91c-2.23,6.43-2.79,10.51-5.35,16.82c-1.53-0.76-3.97-1.68-6.02-2.11
			c-3.47,7.74-2.22,16.71-0.46,25.01c0.37,1.74,0.77,3.51,1.63,5.06c1.13,2.03,2.98,3.55,4.79,5.01c-2.28,1.5-5.34,3-7.54,1.38
			c-0.7-0.52-1.17-1.28-1.61-2.04c-10.11-17.49-10.28-39.8-2.5-58.45c1-2.39,2.13-4.75,3.77-6.74c4.14-5.03,11.07-7.06,17.58-6.8
			c6.51,0.26,13.9,0.25,19.41,3.74c16.58,10.51,19.88,28.29,20.24,31.33c1.46,12.37,12.52,22.4,10.59,34.7
			c-0.16,1-0.66,2.25-1.67,2.2c-0.48-0.02-0.88-0.36-1.25-0.65c-2.31-1.83-5.26-2.84-8.2-2.82c-1.89,0.01-3.88,0.41-5.59-0.39
			c-3.02-1.43-3.3-5.53-3.16-8.86c0.03-0.77,0.09-1.6,0.58-2.19c0.42-0.51,1.07-0.75,1.65-1.07c3.55-1.91,4.24-7.55,1.26-10.27
			c-0.4-0.36-0.85-0.68-1.36-0.84c-0.63-0.2-1.32-0.16-1.98-0.14c-2.52,0.07-5.05-2.23-7.48-2.88c-4.87-1.31-9.55-5.05-14.57-4.59
			c-1.77-7.29-10.2-8.41-12.16-15.65L604.19,316.91z"/>
		<g>
			<path d="M603.11,316.61c-1.88,5.59-3.2,11.32-5.35,16.82c0.55-0.22,1.1-0.45,1.65-0.67c-2.05-0.94-4.1-1.67-6.29-2.22
				c-0.64-0.16-1.15,0.21-1.38,0.79c-2.58,6.38-2.57,12.98-1.55,19.71c1.05,6.95,2.27,11.92,7.8,16.47
				c0.08-0.59,0.15-1.18,0.23-1.77c-2.34,1.44-3.01,2-5.57,0.74c-2.27-1.12-2.5-1.7-3.59-3.88c-1.17-2.34-2.18-4.76-3.02-7.24
				c-1.8-5.32-2.84-10.87-3.16-16.47c-0.62-10.86,1.27-22.23,5.84-32.15c5.45-11.82,17.44-12.44,28.92-11
				c10.39,1.31,18.42,8.73,23.59,17.52c2.74,4.66,4.72,9.81,5.67,15.14c1.43,8.02,5.14,14.48,8.3,21.89
				c0.99,2.33,5.11,14.34,0.56,13.68c-1.41-0.2-3.43-1.84-4.95-2.19c-2.04-0.47-4.09,0.07-6.08-0.25c-3.47-0.56-5.78-4.98-4.76-8.24
				c0.63-2.01,2.7-2.67,3.86-4.23c1.59-2.13,1.94-5.21,0.95-7.67c-1.42-3.54-4.29-3.36-7.39-4.24c-4.87-1.39-9.46-4.16-14.25-5.88
				c-1.41-0.51-4.32-0.58-5.49-1.48c-0.81-0.62-1.39-2.69-2.09-3.55c-3.2-3.91-7.96-5.76-9.69-10.87c-0.28-0.84-1.61-1.2-2.06-0.27
				c-0.2,0.42-0.4,0.83-0.59,1.25c-0.62,1.3,1.32,2.44,1.94,1.14c0.2-0.42,0.4-0.83,0.59-1.25c-0.69-0.09-1.37-0.18-2.06-0.27
				c2.27,6.74,10.09,8.94,12.16,15.65c0.15,0.47,0.58,0.83,1.08,0.83c5.78-0.07,12.43,3.86,17.71,6.15
				c1.29,0.56,3.23,0.72,4.34,1.32c2.04,1.12,4.62,3.74,3.84,6.17c-1.16,3.61-2.63,2.29-4.2,4.23c-1.62,2-1.15,6.14-0.47,8.43
				c0.98,3.32,3.19,4.83,6.57,5.05c3.56,0.23,5.97-0.09,9.29,1.71c1.03,0.56,2.04,1.78,3.33,1.61c3.12-0.42,2.81-5.47,2.67-7.62
				c-0.66-10.33-8.38-18.51-10.43-28.46c-2.89-13.99-8.97-27.92-22.43-34.94c-7.74-4.04-20.5-4.6-28.64-1.68
				c-9.64,3.46-13.21,13.03-15.62,22.22c-3.08,11.8-3.28,24.45,0.01,36.22c1.28,4.6,3.26,11.35,6.55,14.99
				c2.96,3.27,6.53,1.9,9.89-0.16c0.57-0.35,0.81-1.29,0.23-1.77c-5.25-4.31-6.42-9.66-7.31-16.18c-0.83-6.1-0.7-12.03,1.64-17.81
				c-0.46,0.26-0.92,0.52-1.38,0.79c2.03,0.51,3.82,1.12,5.75,2c0.71,0.32,1.37,0.05,1.65-0.67c2.15-5.5,3.48-11.23,5.35-16.82
				C605.74,315.83,603.56,315.24,603.11,316.61z"/>
		</g>
	</g>
	<g>
		<g>
			<path d="M634.46,352.16c0.1,2.51-2.17,5.59-3.51,7.58c-2.85,4.26-6.08,7.41-11.04,9.09c-7.62,2.58-14.1,1.2-20.53-3.27
				c-1.19-0.83-2.32,1.12-1.14,1.94c7.75,5.39,15.91,6.5,24.74,2.56c4.09-1.83,7.03-4.99,9.54-8.64c1.65-2.41,4.31-6.12,4.18-9.25
				C636.65,350.72,634.4,350.71,634.46,352.16L634.46,352.16z"/>
		</g>
	</g>
	<g>
		<g>
			<path d="M595.31,342.37c1.05-1.91,4.96-2.39,6.8-1.43c1.28,0.67,2.42-1.27,1.14-1.94c-2.93-1.52-8.18-0.85-9.88,2.24
				C592.67,342.51,594.61,343.65,595.31,342.37L595.31,342.37z"/>
		</g>
	</g>
	<g>
		<g>
			<path d="M598.79,338.75c-0.98-0.09-1.51,0.9-1.55,1.73c-0.04,0.76,0.24,1.5,0.71,2.08c0.46,0.58,1.17,1.03,1.93,1.07
				c0.96,0.05,1.68-0.61,2.02-1.47c0.63-1.61-0.69-3.67-2.54-3.09c-0.89,0.28-1.46,1.12-1.36,2.04c0.09,0.9,0.74,1.56,1.52,1.94
				c0.79,0.39,1.64-0.09,1.69-0.97c0.05-0.82-0.14-1.57-0.46-2.31c-0.32-0.75-1.62-0.73-1.94,0c-0.28,0.62-0.46,1.33-0.09,1.97
				c0.34,0.59,1.05,0.99,1.74,0.82c1.39-0.34,1.48-2.42,0.06-2.78c-0.46-0.12-1.05,0.07-1.27,0.52c-0.14,0.29-0.21,0.53-0.23,0.85
				c0.74-0.1,1.47-0.2,2.21-0.3c-0.03-0.1-0.06-0.2-0.09-0.3c-0.42-1.38-2.59-0.79-2.17,0.6c0.03,0.1,0.06,0.2,0.09,0.3
				c0.37,1.23,2.16,0.97,2.21-0.3c0-0.05,0-0.1,0.01-0.15c-0.05,0.19-0.1,0.38-0.15,0.57c0.02-0.04,0.04-0.09,0.07-0.13
				c-0.42,0.17-0.85,0.34-1.27,0.52c0.03,0.01,0.06,0.02,0.09,0.02c-0.17-0.1-0.33-0.19-0.5-0.29c-0.04-0.29-0.08-0.58-0.12-0.86
				c0.13-0.13,0.27-0.27,0.4-0.4c0.6,0.72,0.92,0.88,0.96,0.49c-0.65,0-1.3,0-1.94,0c0.16,0.37,0.17,0.78,0.15,1.18
				c0.56-0.32,1.13-0.65,1.69-0.97c-0.05-0.03-0.43-0.28-0.43-0.27c-0.05,0.02-0.01,0.34-0.2,0.39c-0.02,0-0.27-0.05-0.2-0.08
				c0.07-0.03,0,0.36-0.05,0.3c-0.01-0.01,0.26,0,0.27-0.05c0,0.01-0.15-0.08-0.12-0.05c-0.06-0.07-0.19-0.13-0.28-0.26
				c-0.05-0.06-0.11-0.21-0.13-0.36c0.02,0.1-0.01-0.11,0-0.11c0-0.14,0-0.18,0.01-0.12c0.02,0.14-0.06,0.25-0.24,0.34
				c-0.19,0.05-0.38,0.1-0.57,0.15c0.03,0,0.07,0.01,0.1,0.01c0.61,0.06,1.12-0.56,1.12-1.12
				C599.92,339.21,599.4,338.8,598.79,338.75L598.79,338.75z"/>
		</g>
	</g>
	<g>
		<g>
			<path d="M615.13,339.17c2.51-0.59,6.24-1.23,8.59,0.18c1.24,0.75,2.38-1.2,1.14-1.94c-2.93-1.76-7.16-1.16-10.32-0.41
				C613.13,337.33,613.72,339.5,615.13,339.17L615.13,339.17z"/>
		</g>
	</g>
	<g>
		<g>
			<path d="M617.89,336.91c-0.92,0.65-1.4,1.8-0.88,2.87c0.46,0.97,1.61,1.71,2.68,1.77c2.26,0.13,3.72-3.39,1.56-4.58
				c-0.94-0.52-2.18-0.32-2.89,0.49c-0.8,0.91-0.68,2.4,0.37,3.06c1.05,0.66,2.53,0.04,2.71-1.21c0.18-1.22-1.12-2.3-2.27-1.76
				c-1.51,0.71-0.81,3.17,0.88,2.68c1.44-0.42,1.42-2.85-0.24-2.82c-0.48,0.01-0.97,0.34-1.08,0.83c-0.05,0.2-0.08,0.4-0.06,0.61
				c0.11,1.44,2.36,1.45,2.25,0c-0.01,0-0.01-0.01-0.02-0.01c-0.36,0.28-0.72,0.55-1.08,0.83c0.03,0,0.07,0,0.1,0
				c-0.27-0.11-0.53-0.22-0.8-0.33c0.02,0.03,0.05,0.06,0.07,0.09c-0.1-0.17-0.19-0.33-0.29-0.5c0.01,0.04,0.02,0.09,0.03,0.13
				c0-0.2,0-0.4,0-0.6c0.03-0.04,0.06-0.09,0.09-0.13c0.17-0.1,0.33-0.19,0.5-0.29c-0.04,0.02-0.09,0.03-0.13,0.05
				c0.2,0,0.4,0,0.6,0c-0.05-0.01-0.1-0.03-0.15-0.04c0.17,0.1,0.33,0.19,0.5,0.29c-0.03-0.04-0.07-0.09-0.1-0.13
				c0.11,0.27,0.22,0.53,0.33,0.8c-0.01-0.05-0.01-0.11-0.02-0.16c-0.05,0.19-0.1,0.38-0.15,0.57c0.01-0.01,0.01-0.02,0.02-0.03
				c-0.17,0.1-0.33,0.19-0.5,0.29c0.01,0,0.01,0,0.02,0c-0.19-0.05-0.38-0.1-0.57-0.15c0.35-0.98,0.59-1.18,0.71-0.6
				c0.04-0.02,0.02-0.01-0.05,0.04c0,0,0.1-0.06,0.1-0.03c0-0.11,0.03-0.1-0.08-0.03c-0.1,0.07-0.14,0.39-0.23,0.49
				c0.13-0.15,0.16,0.01-0.03-0.06c-0.16-0.06-0.28-0.11-0.43-0.2c-0.11-0.07-0.25-0.16-0.31-0.28c0.02,0.05,0.06-0.02-0.01,0.02
				c0.5-0.35,0.73-0.98,0.4-1.54C619.14,336.82,618.39,336.56,617.89,336.91L617.89,336.91z"/>
		</g>
	</g>
	<g>
		<g>
			<path d="M604.56,361.63c6.22,2.75,12.93,1.57,17.65-3.39c1-1.05-0.59-2.64-1.59-1.59c-3.96,4.18-9.61,5.39-14.92,3.04
				C604.39,359.1,603.24,361.04,604.56,361.63L604.56,361.63z"/>
		</g>
	</g>
	<g>
		<g>
			<path d="M604.45,343.86c-0.01,2.14-0.56,3.99-1,6.05c-0.27,1.29-0.04,2.57,1.03,3.41c2.37,1.86,6.06,1.42,8.42-0.16
				c1.2-0.8,0.07-2.75-1.14-1.94c-1.41,0.94-6.43,2.14-6.08-0.98c0.12-1.03,0.59-2.07,0.75-3.11c0.18-1.09,0.25-2.18,0.25-3.28
				C606.71,342.41,604.46,342.41,604.45,343.86L604.45,343.86z"/>
		</g>
	</g>
	<g>
		<g>
			<path d="M682.95,438.08c2.98-0.25,8-2.63,10.62-0.51c1.12,0.9,2.72-0.68,1.59-1.59c-3.57-2.89-8.22-0.49-12.21-0.15
				C681.51,435.95,681.5,438.2,682.95,438.08L682.95,438.08z"/>
		</g>
	</g>
	<g>
		<g>
			<path d="M587.27,411.62c-0.24-4.19-0.32-8.38-0.25-12.58c0.03-1.45-2.22-1.45-2.25,0c-0.07,4.2,0.01,8.39,0.25,12.58
				C585.11,413.06,587.36,413.07,587.27,411.62L587.27,411.62z"/>
		</g>
	</g>
	<g>
		<g>
			<path d="M660.12,409.8c0.79,6.9,2.84,13.39,6.2,19.46c0.7,1.27,2.65,0.13,1.94-1.14c-3.17-5.72-5.15-11.83-5.9-18.33
				C662.2,408.37,659.95,408.36,660.12,409.8L660.12,409.8z"/>
		</g>
	</g>
	<g>
		<g>
			<path d="M609.95,410.92c1.12,9.33-2.74,17.86-2.23,27.1c0.08,1.44,2.33,1.45,2.25,0c-0.51-9.25,3.35-17.74,2.23-27.1
				C612.03,409.5,609.78,409.48,609.95,410.92L609.95,410.92z"/>
		</g>
	</g>
	<g>
		<path d="M614.85,416.5c-0.92,0.86-0.66,2.62,0.47,3.17c0.22,0.11,0.47,0.17,0.71,0.13c0.62-0.11,0.91-0.84,0.94-1.46
			c0.02-0.43-0.03-0.89-0.28-1.25c-0.24-0.36-0.72-0.59-1.13-0.45s-0.64,0.71-0.37,1.05"/>
		<g>
			<path d="M614.05,415.7c-1,1.02-1.16,2.64-0.42,3.86c0.83,1.39,2.87,1.94,3.92,0.47c0.9-1.26,0.76-3.5-0.7-4.3
				c-1.61-0.87-3.67,0.81-2.62,2.51c0.76,1.23,2.71,0.1,1.94-1.14c0.09,0.23,0.03,0.42-0.17,0.55c-0.3-0.04-0.38-0.02-0.22,0.07
				c-0.03,0.07,0.08,0.49,0.07,0.6c-0.02,0.14-0.05,0.32-0.14,0.43c0.15-0.17,0.1,0.02,0.04-0.15c-0.07-0.21-0.29-0.3-0.33-0.58
				c-0.04-0.29,0.02-0.54,0.22-0.75C616.66,416.26,615.07,414.66,614.05,415.7L614.05,415.7z"/>
		</g>
	</g>
	<g>
		<path d="M615.95,428.27c-0.5-0.07-0.96,0.4-0.99,0.9c-0.04,0.67,0.62,1.29,1.28,1.2c0.62-0.08,1.1-0.74,1.03-1.36
			c-0.07-0.63-0.62-1.15-1.25-1.23c-0.34-0.05-0.77,0.11-0.79,0.45"/>
		<g>
			<path d="M615.95,427.15c-1.57-0.08-2.52,1.67-1.89,3.01c0.62,1.35,2.4,1.78,3.53,0.77c1.04-0.93,1.07-2.56,0.07-3.53
				c-0.98-0.95-3.13-1.13-3.51,0.53c-0.32,1.41,1.85,2.01,2.17,0.6c-0.09,0.25-0.23,0.38-0.42,0.37c-0.07-0.02-0.04,0,0.11,0.04
				c0.01,0.02-0.02,0,0.11,0.11c0.03,0.02,0.04,0.21,0.05,0.07c-0.01,0.18-0.01,0.07-0.07,0.14c-0.13,0.16,0.09-0.06,0.03,0.02
				c0,0-0.12-0.36-0.08,0.08c0-0.02-0.11,0.05-0.1,0.05c0.61,0.03,1.12-0.54,1.12-1.12C617.08,427.64,616.56,427.18,615.95,427.15
				L615.95,427.15z"/>
		</g>
	</g>
	<g>
		<path d="M615.25,434.95c-0.23-0.33-0.77-0.3-1.06-0.02c-0.29,0.28-0.36,0.72-0.34,1.12c0.04,0.68,0.37,1.39,0.98,1.7
			s1.5,0.05,1.7-0.6c0.15-0.47-0.09-1-0.46-1.33c-0.38-0.32-0.87-0.48-1.35-0.6"/>
		<g>
			<path d="M616.05,434.16c-1.16-1.29-3.03-0.22-3.27,1.26c-0.22,1.35,0.43,2.91,1.75,3.43c1.25,0.49,2.84-0.16,3.13-1.54
				c0.36-1.71-1.19-2.78-2.63-3.15c-1.4-0.36-2,1.81-0.6,2.17c0.24,0.06,0.48,0.11,0.7,0.23c0.1,0.05,0.23,0.22,0.31,0.25
				c0.02,0.01,0.02,0.06,0.02,0.06c-0.01,0,0.12-0.18,0.12-0.16c0.01,0.08-0.22,0.06-0.2,0.06c-0.14-0.04-0.3-0.3-0.36-0.53
				c-0.03-0.13-0.05-0.26-0.04-0.4c0.01-0.37,0.1-0.06-0.06-0.06c-0.14,0-0.31,0.13-0.46-0.03
				C615.43,436.83,617.02,435.23,616.05,434.16L616.05,434.16z"/>
		</g>
	</g>
	<g>
		<g>
			<path d="M577.24,466.65c-1.34-0.14-2.68-0.17-4.03-0.1c-0.78,0.04-1.49,0.95-0.97,1.69c0.68,0.99,1.37,1.97,2.05,2.96
				c0.53,0.76,1,1.63,1.96,1.85c1.41,0.33,2.01-1.84,0.6-2.17c-0.19-0.05-0.41-0.52-0.52-0.68c-0.23-0.33-0.46-0.66-0.68-0.99
				c-0.49-0.7-0.98-1.41-1.47-2.11c-0.32,0.56-0.65,1.13-0.97,1.69c1.35-0.07,2.69-0.04,4.03,0.1
				C578.68,469.05,578.67,466.8,577.24,466.65L577.24,466.65z"/>
		</g>
	</g>
	<g>
		<g>
			<path d="M566.51,472.7c0.4,1.4,0.65,3.09,1.45,4.34c0.33,0.52,0.77,0.91,1.33,1.17c0.47,0.22,1.64,0.22,1.95,0.67
				c0.81,1.19,2.76,0.06,1.94-1.14c-0.29-0.42-0.6-0.76-1.06-1c-0.58-0.31-1.28-0.28-1.84-0.58c-0.61-0.33-0.73-1.02-0.92-1.66
				c-0.23-0.8-0.46-1.6-0.69-2.4C568.28,470.71,566.11,471.3,566.51,472.7L566.51,472.7z"/>
		</g>
	</g>
	<g>
		<g>
			<path d="M561.99,474.54c0.55,2.12,1.09,4.26,1.86,6.32c0.41,1.12,0.89,2.11,2.1,2.46c0.93,0.27,1.33-1.18,0.4-1.45
				c-1.14-0.33-1.56-2.88-1.84-3.8c-0.39-1.3-0.73-2.62-1.07-3.94C563.2,473.21,561.75,473.6,561.99,474.54L561.99,474.54z"/>
		</g>
	</g>
	<g>
		<g>
			<path d="M640.13,345.7c0.72-1.11,1.22-2.34,1.48-3.64c0.28-1.41-1.89-2.02-2.17-0.6c-0.22,1.13-0.63,2.13-1.25,3.1
				C637.4,345.79,639.35,346.91,640.13,345.7L640.13,345.7z"/>
		</g>
	</g>
	<g>
		<g>
			<path d="M636.25,349.01c-0.33,1.05,0.4,2.17,1.23,2.75c1.14,0.8,2.48,0.5,3.44-0.4c1.06-0.99-0.53-2.58-1.59-1.59
				c-0.09,0.09-0.18,0.17-0.29,0.22c0.05-0.02-0.21,0.02-0.06,0.01c-0.19,0.01-0.01,0.04-0.17-0.04c0.2,0.09-0.22-0.17-0.12-0.09
				c-0.11-0.09-0.13-0.12-0.25-0.33c-0.04-0.07-0.03-0.06,0.01,0.04c-0.02-0.04-0.03-0.09-0.04-0.13c0.01-0.18-0.07,0.42,0.01,0.17
				C638.86,348.22,636.68,347.63,636.25,349.01L636.25,349.01z"/>
		</g>
	</g>
	<g>
		<g>
			<path d="M610.3,295.25c-5.2,4.69-6.27,13.65-7.01,20.25c-0.16,1.44,2.09,1.43,2.25,0c0.67-5.94,1.72-14.48,6.35-18.65
				C612.96,295.87,611.37,294.29,610.3,295.25L610.3,295.25z"/>
		</g>
	</g>
	<g>
		<g>
			<path d="M622.23,407.07c6.13,0.66,12.25,0.72,18.38-0.03c3.21-0.39,4.99-0.73,5.89-3.93c1.42-5.04,1.48-10.39,3.03-15.43
				c1.57-5.09,5.59-8.78,7.03-13.75c0.4-1.39-1.77-1.99-2.17-0.6c-1.05,3.65-4.08,6.46-5.62,9.93c-1.67,3.77-2.51,7.82-3.21,11.87
				c-0.32,1.84-0.35,3.98-0.94,5.75c-1.35,4.05-3.67,3.96-7.67,4.26c-4.92,0.37-9.81,0.2-14.71-0.33
				C620.79,404.66,620.81,406.91,622.23,407.07L622.23,407.07z"/>
		</g>
	</g>
	<g>
		<g>
			<path d="M596.12,368.55c-0.65,6.42-1.37,12.96-1.36,19.42c0,4.04,0.92,7.58,4.65,9.6c1.27,0.69,2.41-1.25,1.14-1.94
				c-5.02-2.72-3.49-9.91-3.21-14.52c0.26-4.19,0.61-8.38,1.03-12.56C598.52,367.11,596.26,367.12,596.12,368.55L596.12,368.55z"/>
		</g>
	</g>
	<g>
		<g>
			<path d="M607.93,377.43c1.06,3.34,2.76,6.33,5.08,8.94c0.96,1.09,2.55-0.51,1.59-1.59c-2.07-2.33-3.56-4.98-4.5-7.95
				C609.66,375.46,607.49,376.04,607.93,377.43L607.93,377.43z"/>
		</g>
	</g>
	<g>
		<g>
			<path d="M636.72,337.99c-1.21,0.73-1.79,2.14-1.46,3.51c0.34,1.41,2.51,0.81,2.17-0.6c-0.09-0.36,0.06-0.75,0.42-0.97
				C639.1,339.19,637.97,337.24,636.72,337.99L636.72,337.99z"/>
		</g>
	</g>
	<g>
		<g>
			<path d="M578.89,640.33c-0.62,1.49-0.73,3.06-0.45,4.65c0.25,1.42,2.41,0.82,2.17-0.6c-0.2-1.19-0.01-2.34,0.45-3.45
				c0.24-0.57-0.25-1.23-0.79-1.38C579.63,639.36,579.13,639.77,578.89,640.33L578.89,640.33z"/>
		</g>
	</g>
	<g>
		<g>
			<path d="M573.87,638.94c0.2-0.82,0.57-1.55,1.15-2.17c0.98-1.06-0.6-2.66-1.59-1.59c-0.83,0.9-1.43,1.97-1.73,3.17
				C571.35,639.75,573.52,640.35,573.87,638.94L573.87,638.94z"/>
		</g>
	</g>
	<g>
		<g>
			<path d="M571.87,635.5c0.52-0.73,1.2-1.3,1.97-1.74c1.26-0.71,0.13-2.65-1.14-1.94c-1.12,0.63-2.04,1.5-2.78,2.55
				c-0.35,0.5-0.09,1.25,0.4,1.54C570.89,636.24,571.51,636,571.87,635.5L571.87,635.5z"/>
		</g>
	</g>
	<g>
		<g>
			<path d="M576.62,641.64c0.18-1.37,0.76-2.61,1.58-3.71c0.87-1.16-1.09-2.28-1.94-1.14c-1.08,1.44-1.66,3.08-1.89,4.85
				c-0.08,0.61,0.57,1.12,1.12,1.12C576.16,642.78,576.54,642.24,576.62,641.64L576.62,641.64z"/>
		</g>
	</g>
	<g>
		<g>
			<path d="M676.34,702.16c-0.33-1.14-0.51-2.28-0.55-3.46c-0.05-1.44-2.3-1.45-2.25,0c0.05,1.38,0.25,2.74,0.63,4.06
				C674.57,704.14,676.74,703.55,676.34,702.16L676.34,702.16z"/>
		</g>
	</g>
	<g>
		<g>
			<path d="M680.19,700.98c-0.24-1.32-0.57-2.6-0.99-3.87c-0.46-1.37-2.63-0.78-2.17,0.6c0.42,1.27,0.75,2.56,0.99,3.87
				C678.28,703.01,680.45,702.4,680.19,700.98L680.19,700.98z"/>
		</g>
	</g>
	<g>
		<g>
			<path d="M684.28,698.71c-0.27-0.96-0.71-1.87-1.31-2.67c-0.37-0.48-0.97-0.74-1.54-0.4c-0.48,0.28-0.77,1.05-0.4,1.54
				c0.49,0.65,0.86,1.34,1.08,2.13C682.51,700.7,684.68,700.1,684.28,698.71L684.28,698.71z"/>
		</g>
	</g>
	<g>
		<g>
			<path d="M687.5,696.54c-0.18-0.84-0.51-1.65-0.96-2.38c-0.76-1.23-2.71-0.1-1.94,1.14c0.36,0.58,0.59,1.17,0.74,1.84
				c0.13,0.59,0.82,0.94,1.38,0.79C687.33,697.76,687.63,697.14,687.5,696.54L687.5,696.54z"/>
		</g>
	</g>
</g>
</svg>
