<?xml version="1.0" encoding="utf-8"?>
<!-- Generator: Adobe Illustrator 22.0.1, SVG Export Plug-In . SVG Version: 6.00 Build 0)  -->
<svg version="1.1" id="Ebene_1" xmlns="http://www.w3.org/2000/svg" xmlns:xlink="http://www.w3.org/1999/xlink" x="0px" y="0px"
	 viewBox="0 0 1091.33 713.67" style="enable-background:new 0 0 1091.33 713.67;" xml:space="preserve">
<g id="weg">
	<path style="fill:none;" d="M8.8,599.34c9.1,5.33,14.53,16.29,24.57,19.52c15.9,5.12,30.41-13.09,31.76-29.74
		c1.35-16.65-4.59-33.37-2.38-49.93c2.56-19.25,15.68-35.44,21.01-54.11c11.93-41.73-16.35-83.14-26.5-125.34
		c-10.1-41.97-1.24-88.13,23.67-123.39c15.65-22.15,37.54-40.71,46.27-66.39c1.63-4.8,3.17-10.29,7.63-12.71
		c3.01-1.64,6.67-1.42,10.07-0.95c21.57,2.93,41.93,14.08,56.01,30.68c3.03,3.57,5.9,7.48,10.04,9.67
		c3.18,1.68,6.84,2.18,10.43,2.42c19.6,1.29,40.11-4.45,58.49,2.48c10.59,3.99,19.45,11.91,30.28,15.19
		c11.82,3.58,24.53,1.24,36.87,1.82c45.56,2.12,79.86,42.46,123.29,56.41c8.68,2.79,17.74,4.52,26,8.37
		c8.74,4.08,16.23,10.36,23.66,16.51c54.52,45.14,111.77,86.97,171.34,125.2c13.42,8.61,29.33,17.38,44.48,12.43
		c8.22-2.69,16.1-9.33,24.42-6.97c9.71,2.76,12.13,15.37,19.22,22.56c10.84,10.97,28.93,6.84,44.25,8.51
		c21.73,2.36,40.02,17.6,61.33,22.44c27.46,6.24,56.8-5.38,84.06,1.7c4.81,1.25,9.56,3.12,13.39,6.28
		c8.63,7.12,5.86,19.69,7.59,30.97c3.95,25.79,13.12,56.12,95.65,94.2"/>
</g>
</svg>
