<?xml version="1.0" standalone="no"?>
<!DOCTYPE svg PUBLIC "-//W3C//DTD SVG 20010904//EN"
 "http://www.w3.org/TR/2001/REC-SVG-20010904/DTD/svg10.dtd">
<svg version="1.0" xmlns="http://www.w3.org/2000/svg"
 width="1085.000000pt" height="1085.000000pt" viewBox="0 0 1085.000000 1085.000000"
 preserveAspectRatio="xMidYMid meet">
<metadata>
Created by potrace 1.11, written by Peter Selinger 2001-2013
</metadata>
<g transform="translate(0.000000,1085.000000) scale(0.100000,-0.100000)"
fill="#000000" stroke="none">
<path d="M9587 9531 c-226 -116 -454 -241 -656 -362 -305 -182 -519 -318 -956
-607 -187 -124 -378 -250 -425 -281 -47 -30 -86 -59 -88 -63 -2 -5 -7 -8 -12
-8 -5 0 -44 -24 -88 -52 -43 -29 -86 -57 -94 -63 -8 -5 -26 -17 -39 -26 -83
-57 -261 -169 -268 -169 -5 0 -11 4 -13 9 -14 39 -786 814 -1077 1081 -122
112 -130 118 -182 163 -24 22 -77 69 -118 105 -41 37 -83 74 -95 82 -12 8 -27
20 -33 26 -7 7 -38 22 -68 33 -73 27 -147 21 -232 -18 -54 -26 -148 -83 -163
-100 -3 -3 -39 -33 -80 -66 -41 -33 -77 -63 -80 -66 -3 -3 -49 -38 -102 -77
-119 -89 -144 -130 -135 -223 6 -64 32 -127 85 -203 41 -59 92 -144 92 -154 0
-4 -37 -45 -81 -92 -136 -143 -313 -332 -331 -352 -9 -11 -75 -81 -145 -156
-172 -184 -241 -258 -294 -316 -24 -26 -55 -60 -69 -75 -14 -15 -68 -74 -120
-131 -52 -57 -106 -115 -119 -129 -13 -14 -58 -64 -100 -110 -42 -47 -125
-139 -185 -205 -104 -115 -217 -240 -316 -350 -25 -28 -61 -69 -81 -91 -20
-22 -78 -87 -129 -145 -51 -58 -121 -136 -155 -175 -34 -38 -113 -128 -176
-200 -63 -71 -118 -135 -124 -141 -5 -6 -33 -37 -61 -70 -28 -32 -116 -134
-195 -225 -79 -91 -165 -190 -191 -220 -25 -30 -54 -64 -65 -75 -10 -12 -76
-90 -148 -174 -71 -84 -161 -189 -199 -234 -38 -45 -88 -103 -111 -131 -100
-118 -189 -222 -214 -250 -43 -49 -283 -337 -326 -394 -103 -133 -149 -240
-147 -348 1 -76 20 -141 76 -248 50 -99 90 -159 274 -413 45 -62 82 -117 82
-121 0 -5 3 -11 8 -13 4 -1 36 -46 71 -98 116 -170 213 -313 284 -415 93 -133
169 -243 235 -340 220 -323 446 -551 646 -652 104 -53 143 -66 261 -88 67 -13
233 -13 300 0 122 24 273 78 393 142 162 86 504 337 792 583 10 8 39 33 66 55
45 37 134 113 264 225 168 144 292 248 535 450 149 123 275 229 281 235 6 5
30 26 54 45 74 60 295 244 300 250 3 3 28 24 57 46 29 23 76 62 105 86 44 38
243 203 423 353 36 29 430 357 530 439 22 19 139 116 261 217 122 101 235 195
251 209 17 14 155 129 307 255 235 195 282 230 311 231 19 1 60 17 92 34 53
30 282 189 309 215 6 5 70 42 143 80 166 88 218 132 235 200 9 32 10 63 4 90
-15 69 -84 195 -176 320 -49 66 -139 192 -202 280 -62 88 -116 162 -120 165
-3 3 -17 21 -30 40 -14 19 -28 40 -32 45 -5 6 -22 28 -39 50 -16 22 -35 47
-42 55 -183 231 -307 381 -455 553 -47 54 -83 99 -81 101 2 2 46 31 96 65 145
96 362 255 693 505 910 688 1158 861 1558 1086 142 80 174 108 168 141 -9 50
-34 116 -77 207 -27 58 -56 129 -65 158 -29 100 -50 101 -237 5z"/>
</g>
</svg>
