<?xml version="1.0" encoding="utf-8"?>
<!-- Generator: Adobe Illustrator 22.0.1, SVG Export Plug-In . SVG Version: 6.00 Build 0)  -->
<svg version="1.1" xmlns="http://www.w3.org/2000/svg" xmlns:xlink="http://www.w3.org/1999/xlink" x="0px" y="0px"
	 viewBox="0 0 926.31 931.41" style="enable-background:new 0 0 926.31 931.41;" xml:space="preserve">
<g id="Aline">
</g>
<g id="müll">
</g>
<g id="titelbild">
</g>
<g id="Farben">
</g>
<g id="Cataki">
</g>
<g id="hintergrund">
</g>
<g id="Geldbeutel">
</g>
<g id="birds">
</g>
<g id="Umweltagent">
</g>
<g id="vista_garden">
</g>
<g id="Antônio">
</g>
<g id="Vitor_Golf">
</g>
<g id="Aline_Überschwemmung">
</g>
<g id="Cooperlinia_straße">
	<g id="Location">
		<g>
			<g>
				<g>
					<path d="M481.5,736.8c0.09-3.33-2.07-6.83-5.84-6.2c-3.77,0.64-4.45,5.75-4.71,8.81c-0.31,3.65,0.37,8.66,4.58,9.78
						c3.44,0.91,5.64-1.97,5.92-5.08c0.13-1.44-2.12-1.43-2.25,0c-0.38,4.26-4.84,3.04-5.79-0.25c-0.45-1.56-0.34-3.27-0.15-4.86
						c0.15-1.29,0.29-3.03,0.94-4.18c2.27-4,5.14-1.08,5.05,1.97C479.21,738.25,481.46,738.24,481.5,736.8L481.5,736.8z"/>
				</g>
			</g>
			<g>
				<g>
					<path d="M488.96,735.16c-3.05,1.71-4.22,5.84-3.71,9.13c0.54,3.44,3.88,5.18,7.05,3.69c3.34-1.57,3.76-5.55,3.06-8.76
						c-0.71-3.23-2.86-4.76-6.14-4.17c-1.42,0.26-0.82,2.43,0.6,2.17c4.41-0.8,4.82,7.04,1.6,8.68c-2.57,1.31-4.13-0.94-4.03-3.36
						c0.08-2.04,0.82-4.38,2.7-5.43C491.36,736.39,490.23,734.45,488.96,735.16z"/>
				</g>
			</g>
			<g>
				<g>
					<path d="M506.43,736.58c-6.82-4.45-12.41,7.19-6.47,11.43C506.36,752.59,512.23,740.29,506.43,736.58
						c-1.22-0.78-2.35,1.16-1.14,1.94c1.48,0.94,1.32,3.79,0.85,5.27c-0.63,2.02-3.22,3.9-5.13,2.17c-3.19-2.88-0.11-10.3,4.27-7.44
						C506.51,739.32,507.64,737.37,506.43,736.58z"/>
				</g>
			</g>
			<g>
				<g>
					<path d="M512.11,736.36c-0.28,5.6-0.34,11.19-0.16,16.79c0.05,1.44,2.3,1.45,2.25,0c-0.18-5.6-0.12-11.19,0.16-16.79
						C514.43,734.91,512.18,734.92,512.11,736.36L512.11,736.36z"/>
				</g>
			</g>
			<g>
				<g>
					<path d="M514,739.52c0.64-1.11,2.44-0.9,3.49-0.63c1.7,0.44,2.83,1.35,2.69,3.26c-0.12,1.59-0.94,3.74-2.75,3.82
						c-0.71,0.03-3.08,0.06-3.43-0.7c-0.62-1.31-2.56-0.17-1.94,1.14c0.86,1.82,4.26,1.96,5.95,1.77c2.84-0.31,4.34-3.58,4.44-6.14
						c0.11-2.81-1.76-4.65-4.36-5.32c-2.09-0.54-4.84-0.41-6.03,1.67C511.33,739.64,513.28,740.78,514,739.52L514,739.52z"/>
				</g>
			</g>
			<g>
				<g>
					<path d="M526.32,743.82c2.27,0.23,4.43,0.07,6.65-0.44c0.35-0.08,0.72-0.42,0.79-0.79c0.43-2.53,0.66-5.94-2.19-7.19
						c-2.94-1.3-5.21,1.52-5.88,4.06c-0.79,2.98-1.24,6.82,1.02,9.29c2.43,2.65,5.59,1.4,8.14-0.37c1.18-0.82,0.06-2.77-1.14-1.94
						c-1.44,1-3.38,2.55-5.18,0.98c-1.13-0.98-1.23-2.59-1.2-3.95c0.03-1.21,0.21-2.67,0.64-3.83c0.59-2.42,1.87-2.41,3.87,0.01
						c0.02,0.79-0.06,1.58-0.24,2.36c0.26-0.26,0.52-0.52,0.79-0.79c-2.03,0.47-3.98,0.57-6.05,0.36
						C524.88,741.42,524.89,743.67,526.32,743.82L526.32,743.82z"/>
				</g>
			</g>
			<g>
				<g>
					<path d="M537.16,738.1c0.22,3.25,0.44,6.5,0.66,9.74c0.1,1.43,2.23,1.46,2.25,0c0.04-3.65,0.23-8.75,4.63-9.79
						c1.41-0.33,0.81-2.5-0.6-2.17c-5.46,1.29-6.23,7.24-6.28,11.96c0.75,0,1.5,0,2.25,0c-0.22-3.25-0.44-6.5-0.66-9.74
						C539.31,736.66,537.06,736.65,537.16,738.1L537.16,738.1z"/>
				</g>
			</g>
			<g>
				<g>
					<path d="M547.55,731.21c-0.27,6.02-0.54,12.05-0.8,18.07c-0.06,1.45,2.19,1.44,2.25,0c0.27-6.02,0.54-12.05,0.8-18.07
						C549.87,729.76,547.62,729.76,547.55,731.21L547.55,731.21z"/>
				</g>
			</g>
			<g>
				<g>
					<path d="M553.9,738.18c-0.75,3.68-0.97,7.36-0.63,11.09c0.13,1.43,2.38,1.44,2.25,0c-0.32-3.54-0.16-7.01,0.55-10.5
						C556.35,737.36,554.19,736.76,553.9,738.18L553.9,738.18z"/>
				</g>
			</g>
			<g>
				<g>
					<path d="M556.04,734.64c1-1.01,2-2.02,3-3.02c1.02-1.03-0.57-2.62-1.59-1.59c-1,1.01-2,2.02-3,3.02
						C553.43,734.08,555.02,735.67,556.04,734.64L556.04,734.64z"/>
				</g>
			</g>
			<g>
				<g>
					<path d="M559.95,736.36c-0.41,3.84-0.43,7.67-0.06,11.52c0.14,1.43,2.16,1.46,2.25,0c0.12-2.04,1.36-9.6,4.21-9
						c1.19,0.25,1.01,0.5,1.12,1.58c0.09,0.87,0.1,1.77,0.14,2.65c0.1,1.77,0.19,3.53,0.29,5.3c0.08,1.44,2.33,1.45,2.25,0
						c-0.16-2.98-0.03-6.17-0.56-9.11c-0.3-1.69-1.24-3.41-3.21-3.38c-4.71,0.09-6.28,8.53-6.49,11.96c0.75,0,1.5,0,2.25,0
						c-0.37-3.85-0.35-7.68,0.06-11.52C562.35,734.92,560.1,734.93,559.95,736.36L559.95,736.36z"/>
				</g>
			</g>
			<g>
				<g>
					<path d="M573.44,738.09c-0.2,3.73-0.39,7.47-0.59,11.2c-0.08,1.45,2.17,1.44,2.25,0c0.2-3.73,0.39-7.47,0.59-11.2
						C575.76,736.65,573.51,736.65,573.44,738.09L573.44,738.09z"/>
				</g>
			</g>
			<g>
				<g>
					<path d="M574.62,730.84c-0.14,0.14-0.29,0.29-0.43,0.43c-1.03,1.03,0.57,2.62,1.59,1.59c0.14-0.14,0.29-0.29,0.43-0.43
						C577.24,731.41,575.64,729.82,574.62,730.84L574.62,730.84z"/>
				</g>
			</g>
			<g>
				<g>
					<path d="M578.82,740.13c2-1.54,5.53-2.1,7.34,0.15c0.9,1.11,0.64,2.78,0.64,4.1c-0.01,1.48-0.02,2.96-0.03,4.44
						c-0.01,1.45,2.24,1.45,2.25,0c0.02-3.39,1.1-8.36-1.96-10.76c-2.73-2.14-6.68-1.96-9.37,0.12
						C576.55,739.06,577.67,741.01,578.82,740.13L578.82,740.13z"/>
				</g>
			</g>
			<g>
				<g>
					<path d="M586.73,741.31c-2.7,0.57-9.84,1.86-9.01,5.96c0.99,4.88,7.04,2.86,9.87,1.26c1.26-0.71,0.13-2.66-1.14-1.94
						c-1.13,0.64-2.33,1.17-3.6,1.46c-0.63,0.14-1.26,0.24-1.86-0.02c-0.84-0.37-1.44-1.3-0.66-2.05c1.62-1.57,4.87-2.04,6.99-2.49
						C588.75,743.18,588.15,741.01,586.73,741.31L586.73,741.31z"/>
				</g>
			</g>
			<g>
				<g>
					<path d="M597.76,749.03c2.41-5.3,4.82-10.59,7.23-15.89c-0.69-0.09-1.37-0.18-2.06-0.27c2.16,5.48,4.33,10.95,6.49,16.43
						c0.53,1.33,2.7,0.75,2.17-0.6c-2.16-5.48-4.33-10.95-6.49-16.43c-0.31-0.79-1.61-1.25-2.06-0.27
						c-2.41,5.3-4.82,10.59-7.23,15.89C595.22,749.2,597.16,750.35,597.76,749.03L597.76,749.03z"/>
				</g>
			</g>
			<g>
				<g>
					<path d="M600.03,744.51c2.67,0.58,5.35,0.84,8.08,0.73c1.44-0.06,1.45-2.31,0-2.25c-2.53,0.1-5.01-0.11-7.48-0.65
						C599.22,742.03,598.62,744.2,600.03,744.51L600.03,744.51z"/>
				</g>
			</g>
			<g>
				<g>
					<path d="M613.39,735.95c0.31,3.73,0.62,7.45,0.92,11.18c0.12,1.43,2.37,1.45,2.25,0c-0.31-3.73-0.62-7.45-0.92-11.18
						C615.52,734.51,613.27,734.5,613.39,735.95L613.39,735.95z"/>
				</g>
			</g>
			<g>
				<g>
					<path d="M616.62,740.15c0.55-0.71,1.25-1.66,2.19-1.86c2.11-0.44,1.96,1.46,1.96,2.83c0,2.29-0.02,4.58-0.03,6.87
						c-0.01,1.45,2.24,1.45,2.25,0c0.01-2.29,0.03-4.58,0.03-6.87c0-1.48,0.08-3.11-1.11-4.19c-2.31-2.09-5.29-0.42-6.88,1.63
						C614.15,739.69,615.74,741.3,616.62,740.15L616.62,740.15z"/>
				</g>
			</g>
			<g>
				<g>
					<path d="M623.71,741.66c1.03-1.99,5.21-5.79,6.41-1.78c0.38,1.27,0.14,2.81,0.12,4.12c-0.01,1.47-0.03,2.94-0.04,4.41
						c-0.01,1.45,2.24,1.45,2.25,0c0.03-2.62,0.2-5.28,0.07-7.9c-0.09-1.76-0.8-3.2-2.42-4.01c-3.53-1.76-6.78,1.01-8.34,4.02
						C621.1,741.81,623.04,742.95,623.71,741.66L623.71,741.66z"/>
				</g>
			</g>
			<g>
				<g>
					<path d="M635.05,728.63c0.09,6.62,0.51,13.2,1.25,19.78c0.16,1.42,2.41,1.44,2.25,0c-0.74-6.58-1.16-13.16-1.25-19.78
						C637.28,727.19,635.03,727.18,635.05,728.63L635.05,728.63z"/>
				</g>
			</g>
			<g>
				<g>
					<path d="M638.25,739.31c2.33-1.37,5.38-0.13,5.63,2.7c0.24,2.82-2.68,4.72-5.21,3.56c-1.31-0.6-2.45,1.34-1.14,1.94
						c3.99,1.83,8.81-0.8,8.61-5.43c-0.2-4.56-5.19-6.96-9.02-4.71C635.86,738.1,636.99,740.05,638.25,739.31L638.25,739.31z"/>
				</g>
			</g>
			<g>
				<g>
					<path d="M647.69,737.65c-0.34,3.44-0.42,6.88-0.22,10.34c0.08,1.44,2.33,1.45,2.25,0c-0.2-3.46-0.12-6.9,0.22-10.34
						C650.09,736.21,647.84,736.22,647.69,737.65L647.69,737.65z"/>
				</g>
			</g>
			<g>
				<g>
					<path d="M649.42,732.34c1.45,0,1.45-2.25,0-2.25C647.97,730.09,647.97,732.34,649.42,732.34L649.42,732.34z"/>
				</g>
			</g>
			<g>
				<g>
					<path d="M655.44,743.5c3.03,0.2,5.95-0.16,8.85-1.07c0.47-0.15,0.83-0.58,0.83-1.08c-0.03-2.54-0.49-5.86-3.41-6.62
						c-3.12-0.81-5.51,1.97-6.25,4.68c-0.78,2.85-0.64,6.48,1.57,8.68c2,2,5.13,2.19,7.24,0.33c1.09-0.96-0.51-2.55-1.59-1.59
						c-1.65,1.46-3.93,0.3-4.82-1.41c-0.72-1.39-0.68-3.22-0.39-4.7c0.31-1.6,1.49-4.4,3.65-3.81c1.76,0.48,1.74,3.03,1.76,4.45
						c0.28-0.36,0.55-0.72,0.83-1.08c-2.71,0.85-5.42,1.17-8.25,0.99C654,741.16,654,743.41,655.44,743.5L655.44,743.5z"/>
				</g>
			</g>
			<g>
				<g>
					<path d="M667.12,735.95c0.19,3.87,0.38,7.74,0.57,11.61c0.07,1.44,2.32,1.45,2.25,0c-0.19-3.87-0.38-7.74-0.57-11.61
						C669.3,734.51,667.05,734.5,667.12,735.95L667.12,735.95z"/>
				</g>
			</g>
			<g>
				<g>
					<path d="M677.62,748.42c0.15-3.13,0.06-6.34-0.56-9.42c-0.34-1.69-1.06-3.36-2.93-3.7c-3.5-0.65-5.39,2.93-6.57,5.53
						c-0.59,1.31,1.35,2.45,1.94,1.14c0.73-1.61,1.36-3.75,3.32-4.23c1.31-0.32,1.65,0.44,2,1.58c0.31,1,0.35,2.14,0.44,3.17
						c0.19,1.98,0.2,3.96,0.1,5.95C675.3,749.87,677.55,749.87,677.62,748.42L677.62,748.42z"/>
				</g>
			</g>
			<g>
				<g>
					<path d="M681.04,733.79c-0.29,4.19-0.82,14.11,5.08,14.98c1.42,0.21,2.03-1.96,0.6-2.17c-4.4-0.65-3.64-9.76-3.43-12.81
						C683.39,732.35,681.14,732.36,681.04,733.79L681.04,733.79z"/>
				</g>
			</g>
			<g>
				<g>
					<path d="M678.29,737.72c2.75,0.86,5.62,0.86,8.37-0.02c1.37-0.44,0.79-2.61-0.6-2.17c-2.4,0.76-4.77,0.77-7.17,0.02
						C677.5,735.11,676.91,737.28,678.29,737.72L678.29,737.72z"/>
				</g>
			</g>
			<g>
				<g>
					<path d="M689.6,739.67c0.2-1.14,1.89-1.27,2.79-1.35c1.56-0.14,2.86,0.31,3.08,2.03c0.32,2.45,0.19,5.03,0.06,7.49
						c-0.08,1.45,2.17,1.44,2.25,0c0.13-2.53,0.2-5.11-0.06-7.64c-0.17-1.59-0.75-3.04-2.28-3.74c-2.35-1.08-7.48-0.47-8.01,2.61
						C687.19,740.49,689.35,741.09,689.6,739.67L689.6,739.67z"/>
				</g>
			</g>
			<g>
				<g>
					<path d="M695.01,741.33c-1.78-0.14-3.66-0.18-5.17,0.92c-1.18,0.85-1.92,2.3-1.57,3.76c0.92,3.8,5.35,3.45,8.24,2.68
						c1.4-0.37,0.8-2.55-0.6-2.17c-1.56,0.42-4.43,1.24-5.34-0.72c-1.12-2.42,3.25-2.31,4.43-2.22
						C696.45,743.69,696.45,741.44,695.01,741.33L695.01,741.33z"/>
				</g>
			</g>
			<g>
				<g>
					<path d="M701.29,732.07c0.17,5.59,0.33,11.19,0.5,16.78c0.04,1.44,2.29,1.45,2.25,0c-0.17-5.59-0.33-11.19-0.5-16.78
						C703.5,730.62,701.25,730.62,701.29,732.07L701.29,732.07z"/>
				</g>
			</g>
			<g>
				<g>
					<path d="M474.6,763.09c-1.46-0.25-3.08-0.21-4.06,1.08c-1.15,1.5-1.19,4.43-1.02,6.21c0.32,3.18,2.91,6.41,6.4,4.97
						c2.06-0.85,2.96-3.52,3.05-5.59C479.1,766.72,477.59,763.96,474.6,763.09c-1.39-0.41-1.99,1.76-0.6,2.17
						c2.86,0.83,3.18,4.26,2.18,6.7c-0.66,1.61-2.36,1.92-3.57,0.57c-1.38-1.53-1.56-7.78,1.4-7.27
						C475.42,765.5,476.03,763.33,474.6,763.09z"/>
				</g>
			</g>
			<g>
				<g>
					<path d="M477.06,757.89c0,5.98-0.01,11.96-0.01,17.95c0,1.45,2.25,1.45,2.25,0c0-5.98,0.01-11.96,0.01-17.95
						C479.31,756.44,477.06,756.44,477.06,757.89L477.06,757.89z"/>
				</g>
			</g>
			<g>
				<g>
					<path d="M487.8,762.71c-3.53,0.76-6.63,4.06-6.09,7.85c0.43,3.04,3.47,5.3,6.49,5.06C494.84,775.1,495.41,761.65,487.8,762.71
						c-1.43,0.2-0.82,2.37,0.6,2.17c4.03-0.56,3.37,8.8-0.89,8.51c-1.9-0.13-3.61-1.73-3.62-3.66c0-2.53,2.22-4.36,4.5-4.85
						C489.82,764.57,489.22,762.4,487.8,762.71z"/>
				</g>
			</g>
			<g>
				<g>
					<path d="M504.65,767.32c3.56,0.78,10.66,0.24,8.79-5.34c-1.56-4.65-7.21-3.99-11.04-3.47c-0.48,0.07-0.83,0.64-0.83,1.08
						c0,2.58,0,5.16,0,7.74c0,2.29-0.62,5.55,0,7.74c0.71,2.51,4.43,2.58,6.58,2.29c6.62-0.88,8.05-9.76,1.27-11.69
						c-1.39-0.4-1.99,1.77-0.6,2.17c3.69,1.05,3.78,5.67,0.3,6.98c-1.21,0.45-2.93,0.6-4.18,0.17c-1.08-0.37-0.76,0.06-1.11-0.97
						c-0.62-1.8,0-4.79,0-6.69c0-2.58,0-5.16,0-7.74c-0.28,0.36-0.55,0.72-0.83,1.08c1.32-0.18,2.7-0.45,4.03-0.35
						c0.61-0.04,1.2,0.08,1.77,0.36c2.08,0.21,2.56,1.69,1.45,4.43c-1.17,0.99-3.75,0.29-5,0.02
						C503.84,764.85,503.24,767.02,504.65,767.32L504.65,767.32z"/>
				</g>
			</g>
			<g>
				<g>
					<path d="M517.58,775.35c1.45,0,1.45-2.25,0-2.25C516.13,773.1,516.13,775.35,517.58,775.35L517.58,775.35z"/>
				</g>
			</g>
			<g>
				<g>
					<path d="M515.78,763.03c0.18,3.79,0.41,7.59,0.68,11.38c0.1,1.44,2.35,1.45,2.25,0c-0.27-3.79-0.49-7.58-0.68-11.38
						C517.96,761.59,515.71,761.58,515.78,763.03L515.78,763.03z"/>
				</g>
			</g>
			<g>
				<g>
					<path d="M518.38,769.79c0.65-3.13,3.55-5.16,6.7-4.78c1.43,0.17,1.42-2.08,0-2.25c-4.08-0.49-8.04,2.42-8.87,6.43
						C515.91,770.61,518.08,771.21,518.38,769.79L518.38,769.79z"/>
				</g>
			</g>
			<g>
				<g>
					<path d="M530.26,766.37c1.25-0.82,3.15-2.18,4.65-1.22c1.05,0.66,1.27,2.26,1.28,3.38c0.02,2.35-0.65,4.5-0.09,6.85
						c0.34,1.41,2.51,0.81,2.17-0.6c-0.82-3.45,1.33-7.33-1.05-10.47c-2.17-2.85-5.62-1.51-8.1,0.12
						C527.92,765.22,529.05,767.17,530.26,766.37L530.26,766.37z"/>
				</g>
			</g>
			<g>
				<g>
					<path d="M536.01,768.67c-1.79-0.44-3.77-0.87-5.53-0.05c-1.4,0.66-2.5,2.01-2.42,3.61c0.07,1.58,1.28,2.85,2.7,3.4
						c1.87,0.73,3.86,0.14,5.67-0.49c1.36-0.47,0.77-2.65-0.6-2.17c-1.41,0.49-5,1.72-5.48-0.67c-0.19-0.94,0.71-1.58,1.52-1.8
						c1.15-0.31,2.42,0.06,3.54,0.34C536.82,771.19,537.42,769.02,536.01,768.67L536.01,768.67z"/>
				</g>
			</g>
			<g>
				<g>
					<path d="M549.93,765.41c-1.61-4.01-8.85-4.68-8.35,0.76c0.17,1.9,1.74,3.18,3.21,4.18c0.72,0.49,1.95,0.92,2.51,1.59
						c0.72,0.88-0.13,1.72-1.22,1.81c-1.13,0.09-2.17-0.48-3-1.18c-1.1-0.92-2.7,0.66-1.59,1.59c1.78,1.5,4.52,2.6,6.72,1.24
						c1.57-0.97,2.45-3.1,1.14-4.65c-1.07-1.27-2.9-1.85-4.17-2.89c-0.7-0.57-1.48-1.3-1.35-2.28c0.32-2.32,3.36-1,3.93,0.42
						C548.3,767.33,550.47,766.76,549.93,765.41L549.93,765.41z"/>
				</g>
			</g>
			<g>
				<g>
					<path d="M552.78,764.77c0,3.59,0,7.17,0,10.76c0,1.45,2.25,1.45,2.25,0c0-3.59,0-7.17,0-10.76
						C555.03,763.32,552.78,763.32,552.78,764.77L552.78,764.77z"/>
				</g>
			</g>
			<g>
				<g>
					<path d="M552.35,759.61c0,0.14,0,0.29,0,0.43c0,1.45,2.25,1.45,2.25,0c0-0.14,0-0.29,0-0.43
						C554.6,758.16,552.35,758.16,552.35,759.61L552.35,759.61z"/>
				</g>
			</g>
			<g>
				<g>
					<path d="M559.12,757.89c0.25,5.74,0.72,11.46,0.98,17.2c0.06,1.44,2.31,1.45,2.25,0c-0.25-5.74-0.72-11.46-0.98-17.2
						C561.3,756.45,559.05,756.44,559.12,757.89L559.12,757.89z"/>
				</g>
			</g>
		</g>
		<g>
			<path style="fill:#FC421D;" d="M429.7,772.89l3.71-0.04c0.71-1.14,0.59-3.86,0.84-5.18c1.74-9.09,8.76-16.23,12.03-24.89
				c1.78-4.71,2.31-10.33-0.48-14.52c-1.29-1.93-3.18-3.4-5.2-4.53c-4.43-2.47-9.83-3.46-14.66-1.93s-8.88,5.82-9.39,10.87
				c-0.63,6.28,3.84,11.73,6.99,17.2C427.38,756.55,429.7,772.89,429.7,772.89z"/>
			<g>
				<path d="M429.7,774.02c1.24-0.01,2.47-0.02,3.71-0.04c0.54-0.01,0.9-0.35,1.08-0.83c1.02-2.56,0.79-5.48,1.61-8.14
					c1.17-3.82,3.33-7.3,5.36-10.71c3.22-5.39,6.85-11.02,7.35-17.45c0.92-11.94-12.4-19.59-23.17-16.12
					c-4.51,1.45-8.42,5.03-9.75,9.64c-1.67,5.79,1.25,11.15,4.18,15.96c5.04,8.29,7.17,17.31,8.55,26.86
					c0.21,1.43,2.37,0.82,2.17-0.6c-0.94-6.5-2.19-13.18-4.5-19.34c-1.56-4.16-4.27-7.62-6.31-11.53
					c-3.99-7.66-2.12-16.62,7.08-19.03c7.23-1.89,17.67,2.04,19.33,9.97c1.44,6.85-2.71,13.56-6.06,19.17
					c-2.66,4.45-5.55,8.96-6.82,14.04c-0.33,1.31-0.1,5-0.84,5.83c0.18-0.2,0.19,0-1.11,0.04c-0.62,0.02-1.24,0.01-1.85,0.02
					C428.25,771.78,428.25,774.03,429.7,774.02z"/>
			</g>
		</g>
	</g>
</g>
<g id="Schildkroete">
</g>
<g id="erica_x5F_bus">
</g>
<g id="Strohhalm">
</g>
</svg>
