<?xml version="1.0" encoding="utf-8"?>
<!-- Generator: Adobe Illustrator 22.0.1, SVG Export Plug-In . SVG Version: 6.00 Build 0)  -->
<svg version="1.1" xmlns="http://www.w3.org/2000/svg" xmlns:xlink="http://www.w3.org/1999/xlink" x="0px" y="0px"
	 viewBox="0 0 926.31 931.41" style="enable-background:new 0 0 926.31 931.41;" xml:space="preserve">
<g id="Aline">
</g>
<g id="müll">
</g>
<g id="titelbild">
</g>
<g id="Farben">
</g>
<g id="Cataki">
</g>
<g id="hintergrund">
</g>
<g id="Geldbeutel">
</g>
<g id="birds">
</g>
<g id="Umweltagent">
</g>
<g id="vista_garden">
</g>
<g id="Antônio">
</g>
<g id="Vitor_Golf">
</g>
<g id="Aline_Überschwemmung">
</g>
<g id="Cooperlinia_straße">
	<g id="Flaeche">
		<g>
			<path style="fill:#EEB873;" d="M448.41,665.39c-26.44-1.42-52.96-1.29-79.39,0.39c-2.04,25.53-3.12,51.14-3.24,76.76
				c-0.04,7.73,0.01,15.47-0.54,23.18c-1.33,18.65-6.15,37.37-3.12,55.83c29.61,1.75,59.24,3.05,88.89,3.9
				c2.88-37.62,3.99-75.37,3.34-113.09c-0.27-15.49-0.87-31.2-5.62-45.94"/>
		</g>
		<g>
			<path style="fill:#9DAE82;" d="M508.86,137.14c0.48-12.18,1.08-24.83,6.74-35.63c1.54-2.94,3.48-5.74,6.13-7.75
				c2.61-1.98,5.76-3.09,8.85-4.16c16.6-5.78,33.41-11.61,50.91-13.22c10.95-1.01,22.09-0.37,32.86-2.61
				c6.53-1.36,12.79-3.77,19.22-5.55c17.87-4.97,36.68-5.1,55.23-5.2c9.68-0.05,19.46-0.09,28.93,1.94
				c8.79,1.89,17.1,5.52,25.2,9.43c21.92,10.57,43.18,23.68,58.75,42.38c8.17,9.82,15.15,21.46,26.63,27.05
				c6.16,2.99,13.27,4.03,18.85,8.01c8.55,6.1,11.29,17.36,13.42,27.65c2.43,11.76,7.42,20.64,9.85,32.4l0.89,7.5
				c0.06,23.68-17.59,43.01-30.2,63.05c-10.63,16.89-18.06,35.56-25.44,54.1c-3.18,7.99-6.38,16.08-7.55,24.6
				c-3.9,28.51,15.46,56.53,11.07,84.97c-2.74,17.76-14.82,33.25-30.14,42.64c-15.32,9.39-33.57,13.15-51.53,13.48
				c-14.48,0.26-29.59-1.5-42.93,4.14c-11.45,4.84-20.08,14.56-27.41,24.61c-12.38,16.96-22.26,35.75-29.21,55.56
				c-8.46,24.1-12.74,49.97-25.7,71.98c-2.63,4.47-5.81,8.92-10.47,11.2c-4.07,1.99-8.78,2.06-13.31,2.07
				c-28.23,0.03-56.47-1.32-84.57-4.02c-5.42-0.52-11.03-1.16-15.67-3.99c-8.54-5.21-11.39-16.25-11.91-26.24
				c-1.46-28.23,9.62-55.64,23.37-80.34c7.33-13.16,15.55-26.03,19.91-40.45c3.73-12.32,4.49-25.33,4.68-38.19
				c1.21-84.01-21.23-167.21-17.97-251.17C506.3,227.35,507.78,164.37,508.86,137.14z"/>
		</g>
		<g>
			<path style="fill:#FCA391;" d="M236.13,336.52c5.94-4.66,12.8-7.99,19.59-11.28c16.31-7.9,32.63-15.81,48.94-23.71
				c1.32,4.78,0.68,9.86-0.01,14.78c-3.87,27.71-8.69,55.29-14.45,82.67c-0.84,3.99-1.53,8.67,1.22,11.69
				c1.04,1.15,2.47,1.88,3.91,2.45c8.23,3.23,18.41,1.13,26.96-1.12c8.12-2.13,16.32-5.97,24.92-8.07c0.96-0.23,2.03-0.42,2.87,0.09
				c0.96,0.58,1.23,1.83,1.38,2.94c1.17,8.74-0.61,16.73-3.27,25.14c-1.19,3.77-2.87,7.57-5.91,10.08
				c-2.68,2.22-6.15,3.21-9.56,3.89c-13.42,2.67-27.29,1.29-40.9-0.09c-11.27-1.15-22.55-2.3-33.82-3.45
				c-3.52-0.36-7.24-0.8-10.04-2.95c-3.13-2.42-4.46-6.48-5.23-10.36c-1.37-6.86-1.55-13.88-1.74-20.87
				c-0.65-24.8-1.29-49.6-1.94-74.4"/>
		</g>
		<g>
			<path style="fill:#9DAE82;" d="M146.41,322.88c-1.58,6.52,1.99,13.32,6.87,17.92s10.99,7.65,16.44,11.56s10.51,9.17,11.62,15.78
				c0.51,3.03,0.14,6.13,0.35,9.19c0.07,1.11,0.45,2.47,1.54,2.66c0.63,0.11,1.24-0.23,1.77-0.59
				c15.72-10.45,16.4-35.92,32.99-44.93c2.57-1.39,5.42-2.31,7.71-4.13c6.75-5.36,5.89-15.86,3.01-23.98
				c-2.99-8.43-7.46-16.33-13.16-23.22c-3.55-4.31-8.09-8.47-13.66-8.85c-4.83-0.33-9.33,2.26-13.48,4.76
				c-8.97,5.41-18.01,10.86-25.73,17.95s-14.11,16-16.46,26.21"/>
		</g>
		<g>
			<path style="fill:#FCA391;" d="M329.41,547.86c3.02-28.87,6.08-57.28,9.94-86.05c0.22-1.64,0.47-3.35,1.4-4.72
				c0.86-1.27,2.22-2.1,3.6-2.77c11.19-5.44,24.38-2,36.68-0.18c9.55,1.41,19.26,1.76,28.89,1.04c2.65-0.2,5.51-0.43,7.78,0.95
				c2.58,1.58,3.65,4.91,3.38,7.92s-1.64,5.8-2.99,8.51c-7.2,14.47-15.39,28.94-22.59,43.4
				C369.17,555.29,345.67,583.44,329.41,547.86z"/>
		</g>
		<g>
			<path style="fill:#F6E0D2;" d="M387.44,679.44c-0.31,20.39-0.62,40.77-0.94,61.16c-0.01,0.74,0.01,1.57,0.53,2.1
				c0.51,0.52,1.32,0.57,2.05,0.59c15.34,0.36,30.69,0.72,46.03,1.08c0.78,0.02,1.65,0,2.22-0.53c0.52-0.49,0.63-1.26,0.7-1.96
				c2.32-21.56,3.29-43.26,2.9-64.94c-15.21-0.84-30.41-1.68-45.62-2.52C395.31,674.42,387.41,675.86,387.44,679.44z"/>
		</g>
		<g>
			<path style="fill:#F6E0D2;" d="M420.41,796.86c-0.4,2.96-0.94,6.8-0.79,9.79c7.83,0.29,23.86,0.89,23.99,0.77
				c0.12-0.11,0.91-10.01,0.75-10.19C444.19,797.03,420.41,796.86,420.41,796.86z"/>
		</g>
		<g>
			<path style="fill:#F6E0D2;" d="M391.06,807.43c0.18-0.17,0.18-11.75,0.01-11.91c-0.16-0.15-19.22-0.13-19.56,0.33
				c-0.22,0.29-0.57,7.17-0.73,10.22C370.78,806.07,390.89,807.59,391.06,807.43z"/>
		</g>
		<g>
			<path style="fill:#3E3E3E;" d="M330.8,548.04c5.73,3.43,11.65,6.53,17.73,9.3c3.01-7.92,6.1-15.81,9.28-23.66
				c4.28-10.58,9-21.51,17.67-28.94c6.02,4.36,12.76,7.71,19.87,9.89c-5.66,18.66-16.46,35.29-24.18,53.19
				c-9.57,22.19-14.42,46.37-25.98,67.59c-0.73-3.94-1.48-7.95-3.38-11.47s-5.16-6.55-9.13-7.13c-1.06-0.15-2.22-0.16-3.08-0.79
				c-1.06-0.79-1.3-2.25-1.45-3.56c-2.43-21.15-1.25-42.46,1.27-63.6L330.8,548.04z"/>
		</g>
		<g>
			<path style="fill:#3E3E3E;" d="M379.91,615.89c5.6-0.2,11.21-0.06,16.79,0.44c1.06-3.11-0.71-6.66-3.43-8.5
				c-2.72-1.84-6.15-2.28-9.43-2.24c-2.02,0.02-4.1,0.22-5.91,1.12c-1.81,0.9-3.32,2.64-3.46,4.66c-0.14,2.02,1.43,4.14,3.46,4.18"
				/>
		</g>
		<g>
			<path style="fill:#3E3E3E;" d="M382.91,634.32c2.72,0.03,5.45,0.07,8.17,0.1c0.96,0.01,2.01-0.01,2.72-0.65
				c0.66-0.6,0.82-1.55,0.94-2.43c0.22-1.58,0.43-3.22-0.03-4.75c-0.45-1.53-1.76-2.93-3.35-2.95c-3.15-0.05-4.06,4.42-6.65,6.22
				c-0.98,0.68-2.25,1-2.95,1.96c-0.7,0.96,0.06,2.83,1.16,2.38"/>
		</g>
		<g>
			<path style="fill:#EEB873;" d="M408.37,655.91c-0.83-16.47-2.21-32.91-4.14-49.29c-0.57-4.88-1.49-10.29-5.38-13.3
				c-4.37-3.37-10.72-2.28-15.71,0.06c-4.99,2.34-9.58,5.79-14.98,6.89c2.43-8.15,6.98-15.66,13.07-21.6
				c23.86,3.5,47.71,7,71.57,10.5c-4.19,22.59,2.06,46.18-2.36,68.72c-14.13,1.65-28.49,1.28-42.52-1.1"/>
		</g>
		<g>
			<path style="fill:#FCA391;" d="M388.99,570.75c6.06-20.31,16.4-39.04,26.67-57.58c4.52-8.16,9.04-16.33,13.56-24.49
				c1.32-2.38,2.84-4.95,5.39-5.91c3.1-1.17,6.49,0.46,9.46,1.93c13.2,6.53,27.53,10.77,42.16,12.47c1.09,0.13,2.27,0.28,3.06,1.05
				c1.38,1.35,0.74,3.66,0.01,5.45c-10.56,25.88-21.12,51.76-31.68,77.65c-0.39,0.95-0.84,1.98-1.74,2.48
				c-0.84,0.46-1.87,0.35-2.83,0.22c-21.13-2.9-42.02-7.57-62.37-13.93"/>
		</g>
		<g>
			<path style="fill:#3E3E3E;" d="M294.91,591.31c1.39-5.21,2.07-10.6,2.02-15.99c-0.03-3.19-0.3-6.45,0.64-9.5
				c1.28-4.15,4.77-8.29,3.06-12.29c-1.54-3.6-6.25-4.34-10.16-4.3c-1.97,0.02-4.01,0.13-5.77,1c-2.62,1.3-4.23,4.13-4.72,7.01
				c-0.49,2.88-0.02,5.84,0.59,8.7c1.57,7.38,4.07,14.56,7.41,21.32c0.68,1.38,1.43,2.79,2.6,3.79c1.17,1.01,2.87,1.54,4.3,0.94"/>
		</g>
		<g>
			<path style="fill:#3E3E3E;" d="M211.4,558.89c3.56,0.17,7.17-0.68,10.28-2.44c0.76-0.43,1.52-0.94,1.99-1.68
				c1.06-1.68,0.29-3.86-0.46-5.7c-9.36-23.19-10.95-49.44-4.46-73.6c-7.3,3.24-15.42,4.62-23.38,3.96
				C195.71,504.43,211.4,558.89,211.4,558.89z"/>
		</g>
		<g>
			<path style="fill:#3E3E3E;" d="M251.15,712.4c1.35,3.6,4.23,6.37,6.34,9.58c2.17,3.31,3.52,7.07,4.85,10.8
				c0.34-5.61,0.68-11.22,1.02-16.83c0.02-0.35,0.03-0.73-0.17-1.02c-0.22-0.31-0.62-0.41-0.99-0.49
				c-3.74-0.81-7.47-1.63-11.21-2.44"/>
		</g>
		<g>
			<path style="fill:#3E3E3E;" d="M298.28,752.22c-0.3,2.3,0.17,4.63,0.74,6.88c0.46,1.8,1.57,4.39,3.39,4.75
				c2.36,0.46,3.71-2.79,4.33-5.11c0.79-2.95,1.16-6.34-0.6-8.83c-1.08-1.53-2.9-2.51-4.77-2.55
				C299.32,748.04,298.33,749.7,298.28,752.22z"/>
		</g>
		<g>
			<path style="fill:#3E3E3E;" d="M225.86,719.52c1.56-1.82,3.37-3.77,5.76-3.99c3.24-0.3,5.79,2.68,7.4,5.51
				c7.17,12.58,8.52,28.15,17.23,39.72c1.41,1.87,3.1,4.01,2.56,6.29c-6.14-9.38-12.27-18.75-18.41-28.13
				c-4.26-6.5-8.79-13.27-15.62-16.97L225.86,719.52z"/>
		</g>
		<g>
			<path style="fill:#9DAE82;" d="M-8.94,522.91c6.19-2.7,13.3,3.65,13.9,10.38c0.6,6.72-3.15,13.01-7.05,18.52
				c-1.07,1.5-2.21,3.17-2.02,5.01c0.16,1.54,1.22,2.82,2.24,3.99c7.52,8.62,15.04,17.23,22.55,25.85c1.83,2.1,3.73,4.25,6.21,5.52
				c4.06,2.08,8.92,1.46,13.43,2.15c15.45,2.36,23.88,18.89,29.6,33.43c6.08,15.42,11.99,32.36,7.18,48.22
				c-2.89,9.53-9.35,17.48-15.31,25.45c-12.27,16.4-23,33.94-32.01,52.34c-2.72,5.56-4.88,13.25-0.05,17.12
				c4.08,3.27,10.57,0.86,13.55-3.43c2.99-4.29,3.53-9.76,4.38-14.92c3.98-24.27,16.95-46.97,35.83-62.73
				c3.08-2.57,6.74-5.09,10.74-4.68c5.19,0.53,8.54,5.69,10.55,10.5c6.53,15.63,7.12,33.66,1.64,49.69
				c-1.5,4.37-3.49,8.68-6.72,11.98c-3.84,3.9-9.06,6.04-14.08,8.22c-18.09,7.85-35.63,17.67-49.55,31.64s-23.98,32.48-24.9,52.17
				c-0.26,5.68,0.33,11.69,3.51,16.4c2,2.96,4.88,5.21,7.82,7.23c29.87,20.59,68.87,22.74,104.83,17.96
				c35.96-4.78,71.01-15.71,107.16-18.71c8.29-0.69,16.74-0.98,24.62-3.64c12.11-4.09,21.71-13.38,29.96-23.15
				c5.7-6.75,11-16.9,5.37-23.7c-3.44-4.15-9.52-4.83-14.89-4.49c-21.95,1.37-42.62,14.23-64.51,12.15
				c-3.64-0.35-7.37-1.17-10.25-3.42c-3.61-2.81-5.32-7.4-6.41-11.85c-5.31-21.64,0.73-45.74,15.62-62.32
				c-21.21-1.79-45.8-6.52-55.39-25.53c-8.42-16.69-1.19-36.86-3.59-55.4c-2.95-22.84-19.96-40.87-34.72-58.54
				s-28.76-39.65-24.04-62.19c0.64-3.08,1.64-6.23,1.01-9.31c-1.26-6.17-8.05-9.16-13.66-12.02c-13.15-6.7-23.99-17.84-30.33-31.17
				c-0.28,12.01-0.56,24.02-0.84,36.03c-0.08,3.6-0.34,7.61-2.95,10.1c-3.84,3.65-10.69,1.5-13.65-2.9s-3.12-10.03-3.13-15.33
				c-0.03-18.3,0.53-36.6,1.66-54.86c5.67-2.38,11.85,2.17,15.53,7.09c3.68,4.92,6.86,10.89,12.63,13.03
				c8.84,3.28,18.68-5.62,19-15.04c0.32-9.42-6.23-17.86-14.01-23.19c-9.03-6.18-23.77-7.97-29.05,1.62
				c-1.35,2.46-2.33,5.79-5.1,6.29c-1.55,0.28-3.07-0.52-4.41-1.34c-10.63-6.49-19.46-15.91-25.24-26.94
				c-3.95-7.54-7.03-16.4-14.49-20.49"/>
		</g>
		<g>
			<path style="fill:#EEB873;" d="M221.41,447.86c3.39-0.64,6.26,3.63,6.57,7.06c-3.03-0.22-6.17-0.43-9.01,0.64
				c-2.84,1.07-5.29,3.8-5.02,6.83c-14.21-0.5-28.43-0.99-42.64-1.49c-2.14-0.07-4.38-0.18-6.21-1.29c-4.79-2.92-4.63-11.32-9.99-13
				c17.23-19.89,32.02-41.91,43.92-65.38c4.06-8.02,7.84-16.27,13.35-23.36c6.91-8.88,16.23-15.53,25.41-22.04
				c3.67,37.12-17.88,72.31-19.86,109.56c-0.08,1.42,0.71,3.47,2.01,2.91L221.41,447.86z"/>
		</g>
		<g>
			<path style="fill:#3E3E3E;" d="M141.22,511.63c1.66,22.45,5.45,44.92,13.26,66.03c1.92,5.2,3.92,5.2,4.11,1.02
				c1.06-24.03-5.32-47.84-10.22-71.4c-0.35-1.68-0.73-3.42-1.8-4.76c-1.07-1.34-3.03-2.13-4.54-1.33"/>
		</g>
		<g>
			<path style="fill:none;" d="M146.41,502.86c4.78,0.31,10.75-0.28,15.51-0.78"/>
		</g>
		<g>
			<path style="fill:none;" d="M151.58,517.05c2.89-0.14,5.79-0.1,8.68,0.11"/>
		</g>
		<g>
			<path style="fill:none;" d="M153.89,530.83c2.45,0.31,4.9,0.61,7.34,0.92"/>
		</g>
		<g>
			<path style="fill:none;" d="M156.41,543.86c2.48,0.14,6.11,0.11,8.59,0.24"/>
		</g>
		<g>
			<path style="fill:none;" d="M158.41,557.86c4.22-0.11,6.61-0.31,10.83-0.42"/>
		</g>
		<g>
			<path style="fill:none;" d="M159.41,571.86c3,0.24,6.83,0.28,9.83,0.13"/>
		</g>
		<g>
			<path style="fill:none;" d="M156.41,580.86c4.96-1.17,11.44-1.41,16.4-2.59c0.89-2.48,1.85-4.93,2.9-7.35
				c1.19-2.76,2.51-5.5,4.38-7.85c2.78-3.5,6.74-6.09,8.77-10.07"/>
		</g>
		<g>
			<path style="fill:none;" d="M171.41,578.86c5.52-2.46,11.84-3.72,17.83-4.56"/>
		</g>
		<g>
			<path style="fill:#3E3E3E;" d="M107.49,537.07c-0.8-1.35-3.11-1.34-3.9,0.01c-0.35,0.6-0.41,1.33-0.4,2.02
				c0.03,1.76,0.92,3.91,2.68,3.94c1.15,0.02,2.12-1,2.37-2.12s-0.08-2.29-0.57-3.33"/>
		</g>
		<g>
			<path style="fill:#3E3E3E;" d="M184.9,656.94c1.06-0.17,2.12-0.35,3.18-0.52c0.29-0.05,0.6-0.11,0.81-0.32
				c0.31-0.32,0.23-0.84,0.13-1.28c-0.41-1.86-0.83-3.72-1.24-5.58c-0.24-1.08-0.5-2.21-1.18-3.09c-0.8-1.04-2.16-1.62-3.46-1.48
				c-0.2,0.02-0.42,0.07-0.56,0.21c-0.16,0.16-0.2,0.4-0.23,0.62c-0.5,4.12-0.08,8.35,1.21,12.29"/>
		</g>
		<g>
			<path style="fill:#3E3E3E;" d="M192.1,663.34c0.03-1.51-2.34-2-3.41-0.93s-1.1,2.78-0.95,4.28c0.55,5.53,2.5,10.81,4.43,16.02
				c2.93,7.9,5.85,15.8,8.78,23.7c0.49,1.32,1.03,2.71,2.16,3.55c1.13,0.84,3.03,0.78,3.67-0.47c-2.41-11.25-5.69-22.3-9.8-33.04
				c-1.64-4.28-3.42-8.55-4.23-13.06"/>
		</g>
		<g>
			<path style="fill:#9DAE82;" d="M69.41,431.86c-4.56-1.89-8.07,3.89-7.63,8.81c0.44,4.92,5.04,8.69,9.88,9.66
				c4.84,0.97,9.84-0.28,14.53-1.84c1.37-0.46,3.12-0.85,4.08,0.24c0.55,0.63,0.61,1.54,0.63,2.38c0.1,3.32-0.48,13.75,1.52,14.75
				c2.36,1.18,4.69-1.2,6.61-3.01c8.92-8.37,17.34-17.28,25.18-26.67c4.43-5.31,8.7-10.78,13.69-15.56
				c4.38-4.2,9.27-7.82,13.68-11.98c13.12-12.37,21.67-29.5,23.67-47.42c-10.58,10.04-21.48,19.74-32.7,29.06
				c-7.54,6.27-15.28,12.42-24,16.92c-9.59,4.94-20.34,7.88-28.84,14.53c-5.58,4.37-10.79,10.55-17.88,10.63L69.41,431.86z"/>
		</g>
		<g>
			<path style="fill:#EEB873;" d="M308.75,303.14c14.18-9.97,30.77-15.84,47.12-21.59c7.97-2.8,16.15-5.64,24.6-5.54
				c4.71,0.06,9.51,1.1,13.44,3.68c4.01,2.64,6.88,6.69,9.31,10.83c15.77,26.89,16.67,59.65,17.14,90.81
				c0.04,2.43-0.07,5.19-1.9,6.78c-1.47,1.28-3.59,1.38-5.54,1.41c-18.97,0.33-37.94,0.65-56.91,0.98
				c-1.41,0.02-2.87,0.04-4.18-0.49c-2.88-1.17-4.13-4.48-5.11-7.43c-7.35-22.04-17.61-42.97-27.84-63.82
				c-2.6-5.3-5.32-10.76-9.77-14.64"/>
		</g>
		<g>
			<path style="fill:#3E3E3E;" d="M465.91,466.32c4.36,0.23,8.73,0.05,13.05-0.55c-0.38-6.27-0.76-12.53-1.14-18.8
				c-2.68-0.64-5.47-0.8-8.21-0.47c-1.03,0.12-2.12,0.36-2.83,1.11c-0.84,0.9-0.89,2.25-0.89,3.47c-0.01,5.11-0.01,10.22-0.02,15.33
				"/>
		</g>
		<g>
			<path style="fill:#FCA391;" d="M135.23,472.81c-6.12,21.57-4.71,44.61-0.53,66.64s11.04,43.45,15.81,65.35
				c2.52,11.57,4.5,23.38,9.22,34.25c4.18,9.63,10.41,18.25,14.87,27.75c3.93,8.37,6.46,17.38,7.45,26.57
				c-9.81-17.97-19.63-35.98-27.91-54.71c-21.24-48.05-32.06-101.23-27.07-153.53c0.6-6.27,2.42-13.79,8.44-15.64L135.23,472.81z"/>
		</g>
		<g>
			<path style="fill:#9DAE82;" d="M280.76,286.63c0.29,0.57,0.64,1.2,1.25,1.41c0.55,0.19,1.14-0.01,1.69-0.21
				c16.81-6.12,33.63-12.24,50.44-18.37c-6.25-19.99-13.55-39.64-21.87-58.86l-3.7-8.21c-2.19-6.21-3.45-12.76-3.71-19.34
				c55.41-26.24,111-52.08,166.78-77.51c2.47-1.13,5.08-2.38,6.48-4.7c0.92-1.52,1.2-3.33,1.46-5.09
				c1.99-13.31,2.83-19.61,4.82-32.91c-110.15,11.44-220.97-7.24-330.44,9.49c-27.12,4.15-53.94,10.02-80.74,15.88
				c-23.73,5.2-47.47,10.39-71.2,15.59c-2.4,0.52-5.01,1.19-6.44,3.18c-1.18,1.65-1.25,3.81-1.27,5.83
				c-0.25,25.36,0.8,50.74,3.14,75.99c53.82-29.54,112.01-50.12,169.9-70.57c12.88-4.55,25.8-9.11,39.19-11.8
				c14.33,38.81,30.52,78.59,44.85,117.4C251.41,223.86,269.8,265.21,280.76,286.63z"/>
		</g>
		<g>
			<path style="fill:#EEB873;" d="M102.3,213.24c-9.36,4.04-20.67-1.05-26.86-9.15c-6.18-8.1-8.38-18.49-10.1-28.53
				c-0.32-1.86-0.57-3.98,0.62-5.45c1.01-1.25,2.74-1.6,4.33-1.89c22.9-4.15,45.21-11.57,66.03-21.96
				c18.82-9.39,37.33-21.47,58.32-22.7c2.62-0.15,5.42-0.09,7.63,1.32c2.01,1.28,3.41,3.38,4.36,5.57
				c23.19,53.34,45.64,107.49,68.68,160.87c0.53,1.23,0.82,2.69,0.31,3.93c-0.47,1.14-1.61,1.84-2.69,2.44
				c-8.45,4.73-17.57,8.27-27.01,10.46c-1.9,0.44-3.92,0.82-5.75,0.15c-1.77-0.65-3.05-2.17-4.24-3.63
				c-18.88-23.11-35.33-47.06-48.53-73.82c-6.05-12.26-13.41-24.53-19.04-36.99c-1.09-2.41-2.31-4.93-4.48-6.45
				c-2.95-2.07-6.88-1.8-10.46-1.44c-8.38,0.83-17.27,1.86-23.85,7.12c-2.68,8.33-2.61,17.68-0.67,27.74
				c4.59,10.75,8.14,21.95,10.59,33.38c0.55,2.57,1.05,5.21,0.65,7.81c-0.57,3.75-2.95,7-5.76,9.55
				c-6.65,6.06-15.58,8.82-24.2,11.41c-6.21,1.86-12.41,3.72-18.62,5.58c-1.14,0.34-2.39,0.76-2.99,1.79
				c-0.72,1.23-0.23,2.77,0.28,4.1c3.87,10.18,7.73,20.37,11.6,30.55c2.33-4.61,4.66-9.22,6.99-13.83
				c2.36-4.66,4.72-9.34,7.76-13.59c6.17-8.65,14.82-15.17,23.41-21.42c10.8-7.87,22.18-15.75,35.31-18.24
				c13.13-2.49,25.06,1.19,31.47,12.91c-9.61-2.59-16.59,0.12-25.47,4.61s-16.38,11.29-23.19,18.55
				c-4.59,4.9-8.97,10.12-11.86,16.19c-2.23,4.69-3.51,9.76-5.05,14.73c-2.81,9.09-6.51,17.9-11.03,26.27
				c-4.14,7.67-9.17,15.18-16.44,19.98c-7.27,4.8-17.23,6.36-24.72,1.9c-4.16-2.48-7.16-6.49-9.88-10.5
				c-15.49-22.78-25.94-48.97-30.39-76.15c-0.94-5.74-1.59-11.77,0.32-17.26c2.64-7.58,9.74-12.8,17.19-15.8
				c12.04-4.86,25.9-5.02,38.04-0.45c1.96,0.74,5.57,1.81,7.48,0.95c3.14-1.42,1.42-6.13,0.59-9.48L102.3,213.24z"/>
		</g>
		<g>
			<path style="fill:none;" d="M-1.72,292.34c-1.88-0.76-0.81-3.61,0.53-5.13c18.37-20.71,42.24-36.5,68.49-45.3
				c2.51-0.84,5.14-1.67,7.07-3.49c5.78-5.44,1.46-15.65-5.18-20c-6.64-4.35-14.98-5.71-21.31-10.49
				c-4.58-3.47-7.78-8.49-12.26-12.09c-12-9.63-29.65-6.72-44.05-1.28"/>
		</g>
	</g>
</g>
<g id="Schildkroete">
</g>
<g id="erica_x5F_bus">
</g>
<g id="Strohhalm">
</g>
</svg>
